G04 #@! TF.GenerationSoftware,KiCad,Pcbnew,(5.1.2-1)-1*
G04 #@! TF.CreationDate,2019-11-23T20:05:59-08:00*
G04 #@! TF.ProjectId,mxenc,6d78656e-632e-46b6-9963-61645f706362,rev?*
G04 #@! TF.SameCoordinates,Original*
G04 #@! TF.FileFunction,Legend,Top*
G04 #@! TF.FilePolarity,Positive*
%FSLAX46Y46*%
G04 Gerber Fmt 4.6, Leading zero omitted, Abs format (unit mm)*
G04 Created by KiCad (PCBNEW (5.1.2-1)-1) date 2019-11-23 20:05:59*
%MOMM*%
%LPD*%
G04 APERTURE LIST*
%ADD10C,0.150000*%
%ADD11C,0.100000*%
%ADD12C,0.010000*%
%ADD13C,0.120000*%
%ADD14C,0.200000*%
%ADD15C,0.127000*%
G04 APERTURE END LIST*
D10*
X204300000Y-120000000D02*
X204466666Y-120466666D01*
X204633333Y-120000000D01*
X205033333Y-119766666D02*
X205100000Y-119766666D01*
X205166666Y-119800000D01*
X205200000Y-119833333D01*
X205233333Y-119900000D01*
X205266666Y-120033333D01*
X205266666Y-120200000D01*
X205233333Y-120333333D01*
X205200000Y-120400000D01*
X205166666Y-120433333D01*
X205100000Y-120466666D01*
X205033333Y-120466666D01*
X204966666Y-120433333D01*
X204933333Y-120400000D01*
X204900000Y-120333333D01*
X204866666Y-120200000D01*
X204866666Y-120033333D01*
X204900000Y-119900000D01*
X204933333Y-119833333D01*
X204966666Y-119800000D01*
X205033333Y-119766666D01*
X205566666Y-120400000D02*
X205600000Y-120433333D01*
X205566666Y-120466666D01*
X205533333Y-120433333D01*
X205566666Y-120400000D01*
X205566666Y-120466666D01*
X206266666Y-120466666D02*
X205866666Y-120466666D01*
X206066666Y-120466666D02*
X206066666Y-119766666D01*
X206000000Y-119866666D01*
X205933333Y-119933333D01*
X205866666Y-119966666D01*
X143969047Y-94521428D02*
X144730952Y-94521428D01*
X147669047Y-94521428D02*
X148430952Y-94521428D01*
X148050000Y-94902380D02*
X148050000Y-94140476D01*
X174560714Y-90389285D02*
X174560714Y-90996428D01*
X174596428Y-91067857D01*
X174632142Y-91103571D01*
X174703571Y-91139285D01*
X174846428Y-91139285D01*
X174917857Y-91103571D01*
X174953571Y-91067857D01*
X174989285Y-90996428D01*
X174989285Y-90389285D01*
X175310714Y-91103571D02*
X175417857Y-91139285D01*
X175596428Y-91139285D01*
X175667857Y-91103571D01*
X175703571Y-91067857D01*
X175739285Y-90996428D01*
X175739285Y-90925000D01*
X175703571Y-90853571D01*
X175667857Y-90817857D01*
X175596428Y-90782142D01*
X175453571Y-90746428D01*
X175382142Y-90710714D01*
X175346428Y-90675000D01*
X175310714Y-90603571D01*
X175310714Y-90532142D01*
X175346428Y-90460714D01*
X175382142Y-90425000D01*
X175453571Y-90389285D01*
X175632142Y-90389285D01*
X175739285Y-90425000D01*
X176310714Y-90746428D02*
X176417857Y-90782142D01*
X176453571Y-90817857D01*
X176489285Y-90889285D01*
X176489285Y-90996428D01*
X176453571Y-91067857D01*
X176417857Y-91103571D01*
X176346428Y-91139285D01*
X176060714Y-91139285D01*
X176060714Y-90389285D01*
X176310714Y-90389285D01*
X176382142Y-90425000D01*
X176417857Y-90460714D01*
X176453571Y-90532142D01*
X176453571Y-90603571D01*
X176417857Y-90675000D01*
X176382142Y-90710714D01*
X176310714Y-90746428D01*
X176060714Y-90746428D01*
X177203571Y-91139285D02*
X176775000Y-91139285D01*
X176989285Y-91139285D02*
X176989285Y-90389285D01*
X176917857Y-90496428D01*
X176846428Y-90567857D01*
X176775000Y-90603571D01*
X178310714Y-91425000D02*
X178275000Y-91389285D01*
X178203571Y-91282142D01*
X178167857Y-91210714D01*
X178132142Y-91103571D01*
X178096428Y-90925000D01*
X178096428Y-90782142D01*
X178132142Y-90603571D01*
X178167857Y-90496428D01*
X178203571Y-90425000D01*
X178275000Y-90317857D01*
X178310714Y-90282142D01*
X178596428Y-91139285D02*
X178596428Y-90389285D01*
X178596428Y-90746428D02*
X179025000Y-90746428D01*
X179025000Y-91139285D02*
X179025000Y-90389285D01*
X179346428Y-91103571D02*
X179453571Y-91139285D01*
X179632142Y-91139285D01*
X179703571Y-91103571D01*
X179739285Y-91067857D01*
X179775000Y-90996428D01*
X179775000Y-90925000D01*
X179739285Y-90853571D01*
X179703571Y-90817857D01*
X179632142Y-90782142D01*
X179489285Y-90746428D01*
X179417857Y-90710714D01*
X179382142Y-90675000D01*
X179346428Y-90603571D01*
X179346428Y-90532142D01*
X179382142Y-90460714D01*
X179417857Y-90425000D01*
X179489285Y-90389285D01*
X179667857Y-90389285D01*
X179775000Y-90425000D01*
X180025000Y-91425000D02*
X180060714Y-91389285D01*
X180132142Y-91282142D01*
X180167857Y-91210714D01*
X180203571Y-91103571D01*
X180239285Y-90925000D01*
X180239285Y-90782142D01*
X180203571Y-90603571D01*
X180167857Y-90496428D01*
X180132142Y-90425000D01*
X180060714Y-90317857D01*
X180025000Y-90282142D01*
D11*
X162707142Y-120326190D02*
X162707142Y-119826190D01*
X162992857Y-120326190D01*
X162992857Y-119826190D01*
X163516666Y-120278571D02*
X163492857Y-120302380D01*
X163421428Y-120326190D01*
X163373809Y-120326190D01*
X163302380Y-120302380D01*
X163254761Y-120254761D01*
X163230952Y-120207142D01*
X163207142Y-120111904D01*
X163207142Y-120040476D01*
X163230952Y-119945238D01*
X163254761Y-119897619D01*
X163302380Y-119850000D01*
X163373809Y-119826190D01*
X163421428Y-119826190D01*
X163492857Y-119850000D01*
X163516666Y-119873809D01*
X169871428Y-119610000D02*
X170371428Y-119610000D01*
X170276190Y-120278571D02*
X170252380Y-120302380D01*
X170180952Y-120326190D01*
X170133333Y-120326190D01*
X170061904Y-120302380D01*
X170014285Y-120254761D01*
X169990476Y-120207142D01*
X169966666Y-120111904D01*
X169966666Y-120040476D01*
X169990476Y-119945238D01*
X170014285Y-119897619D01*
X170061904Y-119850000D01*
X170133333Y-119826190D01*
X170180952Y-119826190D01*
X170252380Y-119850000D01*
X170276190Y-119873809D01*
X170371428Y-119610000D02*
X170752380Y-119610000D01*
X170419047Y-119826190D02*
X170704761Y-119826190D01*
X170561904Y-120326190D02*
X170561904Y-119826190D01*
X170752380Y-119610000D02*
X171228571Y-119610000D01*
X170847619Y-120302380D02*
X170919047Y-120326190D01*
X171038095Y-120326190D01*
X171085714Y-120302380D01*
X171109523Y-120278571D01*
X171133333Y-120230952D01*
X171133333Y-120183333D01*
X171109523Y-120135714D01*
X171085714Y-120111904D01*
X171038095Y-120088095D01*
X170942857Y-120064285D01*
X170895238Y-120040476D01*
X170871428Y-120016666D01*
X170847619Y-119969047D01*
X170847619Y-119921428D01*
X170871428Y-119873809D01*
X170895238Y-119850000D01*
X170942857Y-119826190D01*
X171061904Y-119826190D01*
X171133333Y-119850000D01*
X167619047Y-119826190D02*
X167904761Y-119826190D01*
X167761904Y-120326190D02*
X167761904Y-119826190D01*
X168023809Y-119826190D02*
X168357142Y-120326190D01*
X168357142Y-119826190D02*
X168023809Y-120326190D01*
X165366666Y-120326190D02*
X165200000Y-120088095D01*
X165080952Y-120326190D02*
X165080952Y-119826190D01*
X165271428Y-119826190D01*
X165319047Y-119850000D01*
X165342857Y-119873809D01*
X165366666Y-119921428D01*
X165366666Y-119992857D01*
X165342857Y-120040476D01*
X165319047Y-120064285D01*
X165271428Y-120088095D01*
X165080952Y-120088095D01*
X165533333Y-119826190D02*
X165866666Y-120326190D01*
X165866666Y-119826190D02*
X165533333Y-120326190D01*
X159671428Y-119610000D02*
X160171428Y-119610000D01*
X160076190Y-120326190D02*
X159909523Y-120088095D01*
X159790476Y-120326190D02*
X159790476Y-119826190D01*
X159980952Y-119826190D01*
X160028571Y-119850000D01*
X160052380Y-119873809D01*
X160076190Y-119921428D01*
X160076190Y-119992857D01*
X160052380Y-120040476D01*
X160028571Y-120064285D01*
X159980952Y-120088095D01*
X159790476Y-120088095D01*
X160171428Y-119610000D02*
X160552380Y-119610000D01*
X160219047Y-119826190D02*
X160504761Y-119826190D01*
X160361904Y-120326190D02*
X160361904Y-119826190D01*
X160552380Y-119610000D02*
X161028571Y-119610000D01*
X160647619Y-120302380D02*
X160719047Y-120326190D01*
X160838095Y-120326190D01*
X160885714Y-120302380D01*
X160909523Y-120278571D01*
X160933333Y-120230952D01*
X160933333Y-120183333D01*
X160909523Y-120135714D01*
X160885714Y-120111904D01*
X160838095Y-120088095D01*
X160742857Y-120064285D01*
X160695238Y-120040476D01*
X160671428Y-120016666D01*
X160647619Y-119969047D01*
X160647619Y-119921428D01*
X160671428Y-119873809D01*
X160695238Y-119850000D01*
X160742857Y-119826190D01*
X160861904Y-119826190D01*
X160933333Y-119850000D01*
X157469047Y-119850000D02*
X157421428Y-119826190D01*
X157350000Y-119826190D01*
X157278571Y-119850000D01*
X157230952Y-119897619D01*
X157207142Y-119945238D01*
X157183333Y-120040476D01*
X157183333Y-120111904D01*
X157207142Y-120207142D01*
X157230952Y-120254761D01*
X157278571Y-120302380D01*
X157350000Y-120326190D01*
X157397619Y-120326190D01*
X157469047Y-120302380D01*
X157492857Y-120278571D01*
X157492857Y-120111904D01*
X157397619Y-120111904D01*
X157707142Y-120326190D02*
X157707142Y-119826190D01*
X157992857Y-120326190D01*
X157992857Y-119826190D01*
X158230952Y-120326190D02*
X158230952Y-119826190D01*
X158350000Y-119826190D01*
X158421428Y-119850000D01*
X158469047Y-119897619D01*
X158492857Y-119945238D01*
X158516666Y-120040476D01*
X158516666Y-120111904D01*
X158492857Y-120207142D01*
X158469047Y-120254761D01*
X158421428Y-120302380D01*
X158350000Y-120326190D01*
X158230952Y-120326190D01*
D10*
X196575000Y-90389285D02*
X196575000Y-90996428D01*
X196610714Y-91067857D01*
X196646428Y-91103571D01*
X196717857Y-91139285D01*
X196860714Y-91139285D01*
X196932142Y-91103571D01*
X196967857Y-91067857D01*
X197003571Y-90996428D01*
X197003571Y-90389285D01*
X197325000Y-91103571D02*
X197432142Y-91139285D01*
X197610714Y-91139285D01*
X197682142Y-91103571D01*
X197717857Y-91067857D01*
X197753571Y-90996428D01*
X197753571Y-90925000D01*
X197717857Y-90853571D01*
X197682142Y-90817857D01*
X197610714Y-90782142D01*
X197467857Y-90746428D01*
X197396428Y-90710714D01*
X197360714Y-90675000D01*
X197325000Y-90603571D01*
X197325000Y-90532142D01*
X197360714Y-90460714D01*
X197396428Y-90425000D01*
X197467857Y-90389285D01*
X197646428Y-90389285D01*
X197753571Y-90425000D01*
X198325000Y-90746428D02*
X198432142Y-90782142D01*
X198467857Y-90817857D01*
X198503571Y-90889285D01*
X198503571Y-90996428D01*
X198467857Y-91067857D01*
X198432142Y-91103571D01*
X198360714Y-91139285D01*
X198075000Y-91139285D01*
X198075000Y-90389285D01*
X198325000Y-90389285D01*
X198396428Y-90425000D01*
X198432142Y-90460714D01*
X198467857Y-90532142D01*
X198467857Y-90603571D01*
X198432142Y-90675000D01*
X198396428Y-90710714D01*
X198325000Y-90746428D01*
X198075000Y-90746428D01*
X198789285Y-90460714D02*
X198825000Y-90425000D01*
X198896428Y-90389285D01*
X199075000Y-90389285D01*
X199146428Y-90425000D01*
X199182142Y-90460714D01*
X199217857Y-90532142D01*
X199217857Y-90603571D01*
X199182142Y-90710714D01*
X198753571Y-91139285D01*
X199217857Y-91139285D01*
X200325000Y-91425000D02*
X200289285Y-91389285D01*
X200217857Y-91282142D01*
X200182142Y-91210714D01*
X200146428Y-91103571D01*
X200110714Y-90925000D01*
X200110714Y-90782142D01*
X200146428Y-90603571D01*
X200182142Y-90496428D01*
X200217857Y-90425000D01*
X200289285Y-90317857D01*
X200325000Y-90282142D01*
X200610714Y-91139285D02*
X200610714Y-90389285D01*
X200610714Y-90746428D02*
X201039285Y-90746428D01*
X201039285Y-91139285D02*
X201039285Y-90389285D01*
X201360714Y-91103571D02*
X201467857Y-91139285D01*
X201646428Y-91139285D01*
X201717857Y-91103571D01*
X201753571Y-91067857D01*
X201789285Y-90996428D01*
X201789285Y-90925000D01*
X201753571Y-90853571D01*
X201717857Y-90817857D01*
X201646428Y-90782142D01*
X201503571Y-90746428D01*
X201432142Y-90710714D01*
X201396428Y-90675000D01*
X201360714Y-90603571D01*
X201360714Y-90532142D01*
X201396428Y-90460714D01*
X201432142Y-90425000D01*
X201503571Y-90389285D01*
X201682142Y-90389285D01*
X201789285Y-90425000D01*
X202646428Y-90353571D02*
X202003571Y-91317857D01*
X202896428Y-91139285D02*
X202896428Y-90389285D01*
X203075000Y-90389285D01*
X203182142Y-90425000D01*
X203253571Y-90496428D01*
X203289285Y-90567857D01*
X203325000Y-90710714D01*
X203325000Y-90817857D01*
X203289285Y-90960714D01*
X203253571Y-91032142D01*
X203182142Y-91103571D01*
X203075000Y-91139285D01*
X202896428Y-91139285D01*
X203646428Y-91139285D02*
X203646428Y-90389285D01*
X203932142Y-90389285D01*
X204003571Y-90425000D01*
X204039285Y-90460714D01*
X204075000Y-90532142D01*
X204075000Y-90639285D01*
X204039285Y-90710714D01*
X204003571Y-90746428D01*
X203932142Y-90782142D01*
X203646428Y-90782142D01*
X204932142Y-90353571D02*
X204289285Y-91317857D01*
X205182142Y-91139285D02*
X205182142Y-90389285D01*
X205467857Y-90389285D01*
X205539285Y-90425000D01*
X205575000Y-90460714D01*
X205610714Y-90532142D01*
X205610714Y-90639285D01*
X205575000Y-90710714D01*
X205539285Y-90746428D01*
X205467857Y-90782142D01*
X205182142Y-90782142D01*
X205932142Y-91139285D02*
X205932142Y-90389285D01*
X206110714Y-90389285D01*
X206217857Y-90425000D01*
X206289285Y-90496428D01*
X206325000Y-90567857D01*
X206360714Y-90710714D01*
X206360714Y-90817857D01*
X206325000Y-90960714D01*
X206289285Y-91032142D01*
X206217857Y-91103571D01*
X206110714Y-91139285D01*
X205932142Y-91139285D01*
X206610714Y-91425000D02*
X206646428Y-91389285D01*
X206717857Y-91282142D01*
X206753571Y-91210714D01*
X206789285Y-91103571D01*
X206825000Y-90925000D01*
X206825000Y-90782142D01*
X206789285Y-90603571D01*
X206753571Y-90496428D01*
X206717857Y-90425000D01*
X206646428Y-90317857D01*
X206610714Y-90282142D01*
X150121428Y-90389285D02*
X149764285Y-90389285D01*
X149728571Y-90746428D01*
X149764285Y-90710714D01*
X149835714Y-90675000D01*
X150014285Y-90675000D01*
X150085714Y-90710714D01*
X150121428Y-90746428D01*
X150157142Y-90817857D01*
X150157142Y-90996428D01*
X150121428Y-91067857D01*
X150085714Y-91103571D01*
X150014285Y-91139285D01*
X149835714Y-91139285D01*
X149764285Y-91103571D01*
X149728571Y-91067857D01*
X150371428Y-90389285D02*
X150621428Y-91139285D01*
X150871428Y-90389285D01*
X151121428Y-90853571D02*
X151692857Y-90853571D01*
X152014285Y-90460714D02*
X152050000Y-90425000D01*
X152121428Y-90389285D01*
X152300000Y-90389285D01*
X152371428Y-90425000D01*
X152407142Y-90460714D01*
X152442857Y-90532142D01*
X152442857Y-90603571D01*
X152407142Y-90710714D01*
X151978571Y-91139285D01*
X152442857Y-91139285D01*
X152907142Y-90389285D02*
X152978571Y-90389285D01*
X153050000Y-90425000D01*
X153085714Y-90460714D01*
X153121428Y-90532142D01*
X153157142Y-90675000D01*
X153157142Y-90853571D01*
X153121428Y-90996428D01*
X153085714Y-91067857D01*
X153050000Y-91103571D01*
X152978571Y-91139285D01*
X152907142Y-91139285D01*
X152835714Y-91103571D01*
X152800000Y-91067857D01*
X152764285Y-90996428D01*
X152728571Y-90853571D01*
X152728571Y-90675000D01*
X152764285Y-90532142D01*
X152800000Y-90460714D01*
X152835714Y-90425000D01*
X152907142Y-90389285D01*
X153371428Y-90389285D02*
X153621428Y-91139285D01*
X153871428Y-90389285D01*
X154692857Y-91139285D02*
X154692857Y-90389285D01*
X154871428Y-90389285D01*
X154978571Y-90425000D01*
X155050000Y-90496428D01*
X155085714Y-90567857D01*
X155121428Y-90710714D01*
X155121428Y-90817857D01*
X155085714Y-90960714D01*
X155050000Y-91032142D01*
X154978571Y-91103571D01*
X154871428Y-91139285D01*
X154692857Y-91139285D01*
X155871428Y-91067857D02*
X155835714Y-91103571D01*
X155728571Y-91139285D01*
X155657142Y-91139285D01*
X155550000Y-91103571D01*
X155478571Y-91032142D01*
X155442857Y-90960714D01*
X155407142Y-90817857D01*
X155407142Y-90710714D01*
X155442857Y-90567857D01*
X155478571Y-90496428D01*
X155550000Y-90425000D01*
X155657142Y-90389285D01*
X155728571Y-90389285D01*
X155835714Y-90425000D01*
X155871428Y-90460714D01*
X168653571Y-114867857D02*
X168617857Y-114903571D01*
X168510714Y-114939285D01*
X168439285Y-114939285D01*
X168332142Y-114903571D01*
X168260714Y-114832142D01*
X168225000Y-114760714D01*
X168189285Y-114617857D01*
X168189285Y-114510714D01*
X168225000Y-114367857D01*
X168260714Y-114296428D01*
X168332142Y-114225000D01*
X168439285Y-114189285D01*
X168510714Y-114189285D01*
X168617857Y-114225000D01*
X168653571Y-114260714D01*
X169117857Y-114189285D02*
X169260714Y-114189285D01*
X169332142Y-114225000D01*
X169403571Y-114296428D01*
X169439285Y-114439285D01*
X169439285Y-114689285D01*
X169403571Y-114832142D01*
X169332142Y-114903571D01*
X169260714Y-114939285D01*
X169117857Y-114939285D01*
X169046428Y-114903571D01*
X168975000Y-114832142D01*
X168939285Y-114689285D01*
X168939285Y-114439285D01*
X168975000Y-114296428D01*
X169046428Y-114225000D01*
X169117857Y-114189285D01*
X169760714Y-114939285D02*
X169760714Y-114189285D01*
X170189285Y-114939285D01*
X170189285Y-114189285D01*
X170510714Y-114903571D02*
X170617857Y-114939285D01*
X170796428Y-114939285D01*
X170867857Y-114903571D01*
X170903571Y-114867857D01*
X170939285Y-114796428D01*
X170939285Y-114725000D01*
X170903571Y-114653571D01*
X170867857Y-114617857D01*
X170796428Y-114582142D01*
X170653571Y-114546428D01*
X170582142Y-114510714D01*
X170546428Y-114475000D01*
X170510714Y-114403571D01*
X170510714Y-114332142D01*
X170546428Y-114260714D01*
X170582142Y-114225000D01*
X170653571Y-114189285D01*
X170832142Y-114189285D01*
X170939285Y-114225000D01*
X171403571Y-114189285D02*
X171546428Y-114189285D01*
X171617857Y-114225000D01*
X171689285Y-114296428D01*
X171725000Y-114439285D01*
X171725000Y-114689285D01*
X171689285Y-114832142D01*
X171617857Y-114903571D01*
X171546428Y-114939285D01*
X171403571Y-114939285D01*
X171332142Y-114903571D01*
X171260714Y-114832142D01*
X171225000Y-114689285D01*
X171225000Y-114439285D01*
X171260714Y-114296428D01*
X171332142Y-114225000D01*
X171403571Y-114189285D01*
X172403571Y-114939285D02*
X172046428Y-114939285D01*
X172046428Y-114189285D01*
X172653571Y-114546428D02*
X172903571Y-114546428D01*
X173010714Y-114939285D02*
X172653571Y-114939285D01*
X172653571Y-114189285D01*
X173010714Y-114189285D01*
X180446428Y-114189285D02*
X180446428Y-114796428D01*
X180482142Y-114867857D01*
X180517857Y-114903571D01*
X180589285Y-114939285D01*
X180732142Y-114939285D01*
X180803571Y-114903571D01*
X180839285Y-114867857D01*
X180875000Y-114796428D01*
X180875000Y-114189285D01*
X181196428Y-114725000D02*
X181553571Y-114725000D01*
X181125000Y-114939285D02*
X181375000Y-114189285D01*
X181625000Y-114939285D01*
X182303571Y-114939285D02*
X182053571Y-114582142D01*
X181875000Y-114939285D02*
X181875000Y-114189285D01*
X182160714Y-114189285D01*
X182232142Y-114225000D01*
X182267857Y-114260714D01*
X182303571Y-114332142D01*
X182303571Y-114439285D01*
X182267857Y-114510714D01*
X182232142Y-114546428D01*
X182160714Y-114582142D01*
X181875000Y-114582142D01*
X182517857Y-114189285D02*
X182946428Y-114189285D01*
X182732142Y-114939285D02*
X182732142Y-114189285D01*
X183589285Y-114939285D02*
X183160714Y-114939285D01*
X183375000Y-114939285D02*
X183375000Y-114189285D01*
X183303571Y-114296428D01*
X183232142Y-114367857D01*
X183160714Y-114403571D01*
X151246428Y-117067857D02*
X151215476Y-117160714D01*
X151184523Y-117191666D01*
X151122619Y-117222619D01*
X151029761Y-117222619D01*
X150967857Y-117191666D01*
X150936904Y-117160714D01*
X150905952Y-117098809D01*
X150905952Y-116851190D01*
X151555952Y-116851190D01*
X151555952Y-117067857D01*
X151525000Y-117129761D01*
X151494047Y-117160714D01*
X151432142Y-117191666D01*
X151370238Y-117191666D01*
X151308333Y-117160714D01*
X151277380Y-117129761D01*
X151246428Y-117067857D01*
X151246428Y-116851190D01*
X151555952Y-117625000D02*
X151555952Y-117748809D01*
X151525000Y-117810714D01*
X151463095Y-117872619D01*
X151339285Y-117903571D01*
X151122619Y-117903571D01*
X150998809Y-117872619D01*
X150936904Y-117810714D01*
X150905952Y-117748809D01*
X150905952Y-117625000D01*
X150936904Y-117563095D01*
X150998809Y-117501190D01*
X151122619Y-117470238D01*
X151339285Y-117470238D01*
X151463095Y-117501190D01*
X151525000Y-117563095D01*
X151555952Y-117625000D01*
X151555952Y-118305952D02*
X151555952Y-118429761D01*
X151525000Y-118491666D01*
X151463095Y-118553571D01*
X151339285Y-118584523D01*
X151122619Y-118584523D01*
X150998809Y-118553571D01*
X150936904Y-118491666D01*
X150905952Y-118429761D01*
X150905952Y-118305952D01*
X150936904Y-118244047D01*
X150998809Y-118182142D01*
X151122619Y-118151190D01*
X151339285Y-118151190D01*
X151463095Y-118182142D01*
X151525000Y-118244047D01*
X151555952Y-118305952D01*
X151555952Y-118770238D02*
X151555952Y-119141666D01*
X150905952Y-118955952D02*
X151555952Y-118955952D01*
D12*
G36*
X173075107Y-103718629D02*
G01*
X173115249Y-103719363D01*
X173147033Y-103720999D01*
X173173978Y-103723878D01*
X173199601Y-103728337D01*
X173227420Y-103734717D01*
X173249106Y-103740253D01*
X173369079Y-103778403D01*
X173479386Y-103827978D01*
X173580470Y-103889349D01*
X173672774Y-103962887D01*
X173756742Y-104048964D01*
X173832817Y-104147950D01*
X173901442Y-104260217D01*
X173925560Y-104306241D01*
X173946569Y-104348618D01*
X173960507Y-104379246D01*
X173967437Y-104400019D01*
X173967421Y-104412829D01*
X173960522Y-104419571D01*
X173946802Y-104422136D01*
X173929409Y-104422445D01*
X173889000Y-104422162D01*
X173844612Y-104332005D01*
X173784808Y-104226284D01*
X173713973Y-104130438D01*
X173637541Y-104048899D01*
X173578263Y-103995624D01*
X173520736Y-103952247D01*
X173459570Y-103915024D01*
X173405034Y-103887463D01*
X173308828Y-103847471D01*
X173215462Y-103820112D01*
X173120608Y-103804396D01*
X173019935Y-103799334D01*
X173019242Y-103799334D01*
X172903045Y-103806857D01*
X172790174Y-103829021D01*
X172681830Y-103865222D01*
X172579217Y-103914853D01*
X172483536Y-103977311D01*
X172395991Y-104051989D01*
X172317784Y-104138282D01*
X172300048Y-104161311D01*
X172237754Y-104257543D01*
X172188738Y-104360440D01*
X172153291Y-104468414D01*
X172131703Y-104579873D01*
X172124266Y-104693228D01*
X172131270Y-104806888D01*
X172153005Y-104919264D01*
X172158033Y-104937591D01*
X172171763Y-104981909D01*
X172187300Y-105023992D01*
X172205647Y-105065486D01*
X172227805Y-105108039D01*
X172254778Y-105153296D01*
X172287568Y-105202906D01*
X172327177Y-105258513D01*
X172374607Y-105321765D01*
X172430861Y-105394309D01*
X172453716Y-105423333D01*
X172497420Y-105480443D01*
X172532862Y-105531680D01*
X172561114Y-105579922D01*
X172583248Y-105628050D01*
X172600335Y-105678941D01*
X172613449Y-105735474D01*
X172623660Y-105800528D01*
X172632041Y-105876981D01*
X172635016Y-105910166D01*
X172639467Y-105962121D01*
X173019031Y-105962121D01*
X173105917Y-105962081D01*
X173178661Y-105961934D01*
X173238514Y-105961640D01*
X173286729Y-105961160D01*
X173324556Y-105960455D01*
X173353248Y-105959483D01*
X173374056Y-105958207D01*
X173388232Y-105956586D01*
X173397027Y-105954580D01*
X173401693Y-105952151D01*
X173403267Y-105949946D01*
X173405681Y-105936264D01*
X173407380Y-105912545D01*
X173407970Y-105886446D01*
X173411357Y-105826087D01*
X173420640Y-105760091D01*
X173434600Y-105695149D01*
X173452020Y-105637953D01*
X173454316Y-105631847D01*
X173466571Y-105602737D01*
X173481297Y-105573472D01*
X173499753Y-105542167D01*
X173523198Y-105506940D01*
X173552891Y-105465905D01*
X173590090Y-105417178D01*
X173636054Y-105358875D01*
X173639893Y-105354060D01*
X173685797Y-105295841D01*
X173723124Y-105246753D01*
X173753480Y-105204383D01*
X173778473Y-105166319D01*
X173799708Y-105130146D01*
X173818793Y-105093453D01*
X173832042Y-105065495D01*
X173865616Y-104992303D01*
X173954292Y-104992303D01*
X173936147Y-105040509D01*
X173915118Y-105092356D01*
X173891770Y-105141186D01*
X173864419Y-105189773D01*
X173831380Y-105240890D01*
X173790969Y-105297310D01*
X173741501Y-105361807D01*
X173739304Y-105364602D01*
X173709464Y-105402561D01*
X173677598Y-105443150D01*
X173647625Y-105481371D01*
X173624548Y-105510844D01*
X173582179Y-105569566D01*
X173550573Y-105624607D01*
X173527424Y-105680419D01*
X173515053Y-105722184D01*
X173508866Y-105752748D01*
X173502627Y-105794632D01*
X173496750Y-105843769D01*
X173491648Y-105896093D01*
X173487734Y-105947538D01*
X173485422Y-105994036D01*
X173484976Y-106017924D01*
X173484909Y-106046787D01*
X172556798Y-106046787D01*
X172547826Y-105910166D01*
X172542428Y-105840564D01*
X172535427Y-105781215D01*
X172525711Y-105729424D01*
X172512170Y-105682495D01*
X172493694Y-105637734D01*
X172469172Y-105592445D01*
X172437494Y-105543935D01*
X172397549Y-105489507D01*
X172348795Y-105427181D01*
X172288846Y-105350521D01*
X172238541Y-105282769D01*
X172196708Y-105221881D01*
X172162175Y-105165814D01*
X172133770Y-105112522D01*
X172110319Y-105059961D01*
X172090651Y-105006087D01*
X172073593Y-104948856D01*
X172072800Y-104945916D01*
X172048894Y-104828449D01*
X172039710Y-104711144D01*
X172044651Y-104595131D01*
X172063122Y-104481541D01*
X172094529Y-104371504D01*
X172138275Y-104266150D01*
X172193766Y-104166609D01*
X172260406Y-104074012D01*
X172337600Y-103989489D01*
X172424752Y-103914171D01*
X172521268Y-103849186D01*
X172626551Y-103795667D01*
X172692121Y-103770072D01*
X172745998Y-103752107D01*
X172792967Y-103738748D01*
X172837136Y-103729356D01*
X172882611Y-103723288D01*
X172933501Y-103719904D01*
X172993911Y-103718565D01*
X173023091Y-103718458D01*
X173075107Y-103718629D01*
X173075107Y-103718629D01*
G37*
X173075107Y-103718629D02*
X173115249Y-103719363D01*
X173147033Y-103720999D01*
X173173978Y-103723878D01*
X173199601Y-103728337D01*
X173227420Y-103734717D01*
X173249106Y-103740253D01*
X173369079Y-103778403D01*
X173479386Y-103827978D01*
X173580470Y-103889349D01*
X173672774Y-103962887D01*
X173756742Y-104048964D01*
X173832817Y-104147950D01*
X173901442Y-104260217D01*
X173925560Y-104306241D01*
X173946569Y-104348618D01*
X173960507Y-104379246D01*
X173967437Y-104400019D01*
X173967421Y-104412829D01*
X173960522Y-104419571D01*
X173946802Y-104422136D01*
X173929409Y-104422445D01*
X173889000Y-104422162D01*
X173844612Y-104332005D01*
X173784808Y-104226284D01*
X173713973Y-104130438D01*
X173637541Y-104048899D01*
X173578263Y-103995624D01*
X173520736Y-103952247D01*
X173459570Y-103915024D01*
X173405034Y-103887463D01*
X173308828Y-103847471D01*
X173215462Y-103820112D01*
X173120608Y-103804396D01*
X173019935Y-103799334D01*
X173019242Y-103799334D01*
X172903045Y-103806857D01*
X172790174Y-103829021D01*
X172681830Y-103865222D01*
X172579217Y-103914853D01*
X172483536Y-103977311D01*
X172395991Y-104051989D01*
X172317784Y-104138282D01*
X172300048Y-104161311D01*
X172237754Y-104257543D01*
X172188738Y-104360440D01*
X172153291Y-104468414D01*
X172131703Y-104579873D01*
X172124266Y-104693228D01*
X172131270Y-104806888D01*
X172153005Y-104919264D01*
X172158033Y-104937591D01*
X172171763Y-104981909D01*
X172187300Y-105023992D01*
X172205647Y-105065486D01*
X172227805Y-105108039D01*
X172254778Y-105153296D01*
X172287568Y-105202906D01*
X172327177Y-105258513D01*
X172374607Y-105321765D01*
X172430861Y-105394309D01*
X172453716Y-105423333D01*
X172497420Y-105480443D01*
X172532862Y-105531680D01*
X172561114Y-105579922D01*
X172583248Y-105628050D01*
X172600335Y-105678941D01*
X172613449Y-105735474D01*
X172623660Y-105800528D01*
X172632041Y-105876981D01*
X172635016Y-105910166D01*
X172639467Y-105962121D01*
X173019031Y-105962121D01*
X173105917Y-105962081D01*
X173178661Y-105961934D01*
X173238514Y-105961640D01*
X173286729Y-105961160D01*
X173324556Y-105960455D01*
X173353248Y-105959483D01*
X173374056Y-105958207D01*
X173388232Y-105956586D01*
X173397027Y-105954580D01*
X173401693Y-105952151D01*
X173403267Y-105949946D01*
X173405681Y-105936264D01*
X173407380Y-105912545D01*
X173407970Y-105886446D01*
X173411357Y-105826087D01*
X173420640Y-105760091D01*
X173434600Y-105695149D01*
X173452020Y-105637953D01*
X173454316Y-105631847D01*
X173466571Y-105602737D01*
X173481297Y-105573472D01*
X173499753Y-105542167D01*
X173523198Y-105506940D01*
X173552891Y-105465905D01*
X173590090Y-105417178D01*
X173636054Y-105358875D01*
X173639893Y-105354060D01*
X173685797Y-105295841D01*
X173723124Y-105246753D01*
X173753480Y-105204383D01*
X173778473Y-105166319D01*
X173799708Y-105130146D01*
X173818793Y-105093453D01*
X173832042Y-105065495D01*
X173865616Y-104992303D01*
X173954292Y-104992303D01*
X173936147Y-105040509D01*
X173915118Y-105092356D01*
X173891770Y-105141186D01*
X173864419Y-105189773D01*
X173831380Y-105240890D01*
X173790969Y-105297310D01*
X173741501Y-105361807D01*
X173739304Y-105364602D01*
X173709464Y-105402561D01*
X173677598Y-105443150D01*
X173647625Y-105481371D01*
X173624548Y-105510844D01*
X173582179Y-105569566D01*
X173550573Y-105624607D01*
X173527424Y-105680419D01*
X173515053Y-105722184D01*
X173508866Y-105752748D01*
X173502627Y-105794632D01*
X173496750Y-105843769D01*
X173491648Y-105896093D01*
X173487734Y-105947538D01*
X173485422Y-105994036D01*
X173484976Y-106017924D01*
X173484909Y-106046787D01*
X172556798Y-106046787D01*
X172547826Y-105910166D01*
X172542428Y-105840564D01*
X172535427Y-105781215D01*
X172525711Y-105729424D01*
X172512170Y-105682495D01*
X172493694Y-105637734D01*
X172469172Y-105592445D01*
X172437494Y-105543935D01*
X172397549Y-105489507D01*
X172348795Y-105427181D01*
X172288846Y-105350521D01*
X172238541Y-105282769D01*
X172196708Y-105221881D01*
X172162175Y-105165814D01*
X172133770Y-105112522D01*
X172110319Y-105059961D01*
X172090651Y-105006087D01*
X172073593Y-104948856D01*
X172072800Y-104945916D01*
X172048894Y-104828449D01*
X172039710Y-104711144D01*
X172044651Y-104595131D01*
X172063122Y-104481541D01*
X172094529Y-104371504D01*
X172138275Y-104266150D01*
X172193766Y-104166609D01*
X172260406Y-104074012D01*
X172337600Y-103989489D01*
X172424752Y-103914171D01*
X172521268Y-103849186D01*
X172626551Y-103795667D01*
X172692121Y-103770072D01*
X172745998Y-103752107D01*
X172792967Y-103738748D01*
X172837136Y-103729356D01*
X172882611Y-103723288D01*
X172933501Y-103719904D01*
X172993911Y-103718565D01*
X173023091Y-103718458D01*
X173075107Y-103718629D01*
G36*
X174661544Y-104509318D02*
G01*
X174677062Y-104576833D01*
X174684698Y-104652889D01*
X174684435Y-104732793D01*
X174676258Y-104811852D01*
X174662815Y-104875845D01*
X174654255Y-104907636D01*
X174525627Y-104907662D01*
X174397000Y-104907688D01*
X174383184Y-104978859D01*
X174374042Y-105019887D01*
X174361746Y-105067068D01*
X174348500Y-105112119D01*
X174344210Y-105125362D01*
X174319052Y-105200694D01*
X174436847Y-105267756D01*
X174475002Y-105289963D01*
X174508012Y-105310101D01*
X174533718Y-105326777D01*
X174549961Y-105338597D01*
X174554714Y-105343811D01*
X174551006Y-105357507D01*
X174540594Y-105381336D01*
X174524746Y-105413131D01*
X174504725Y-105450726D01*
X174481798Y-105491957D01*
X174457230Y-105534657D01*
X174432286Y-105576660D01*
X174408231Y-105615800D01*
X174386332Y-105649911D01*
X174367853Y-105676829D01*
X174354059Y-105694385D01*
X174346368Y-105700424D01*
X174338272Y-105696731D01*
X174319208Y-105686503D01*
X174291473Y-105671019D01*
X174257364Y-105651557D01*
X174228778Y-105635000D01*
X174191547Y-105613410D01*
X174159143Y-105594823D01*
X174133813Y-105580511D01*
X174117803Y-105571745D01*
X174113247Y-105569575D01*
X174107063Y-105574762D01*
X174091724Y-105589227D01*
X174068924Y-105611326D01*
X174040356Y-105639414D01*
X174007714Y-105671849D01*
X174001972Y-105677587D01*
X173893961Y-105785598D01*
X173947913Y-105879632D01*
X173968852Y-105916003D01*
X173988322Y-105949599D01*
X174004415Y-105977142D01*
X174015224Y-105995355D01*
X174016771Y-105997895D01*
X174031677Y-106022124D01*
X173944480Y-106080193D01*
X173916644Y-106097915D01*
X173882219Y-106118595D01*
X173843706Y-106140868D01*
X173803607Y-106163369D01*
X173764424Y-106184732D01*
X173728658Y-106203591D01*
X173698811Y-106218581D01*
X173677386Y-106228336D01*
X173667240Y-106231515D01*
X173661913Y-106225390D01*
X173650379Y-106208800D01*
X173634442Y-106184423D01*
X173619424Y-106160610D01*
X173575356Y-106089706D01*
X173579533Y-105943171D01*
X173581855Y-105877675D01*
X173585407Y-105822659D01*
X173591184Y-105775588D01*
X173600185Y-105733927D01*
X173613407Y-105695141D01*
X173631847Y-105656695D01*
X173656504Y-105616052D01*
X173688373Y-105570679D01*
X173728453Y-105518040D01*
X173765089Y-105471526D01*
X173799249Y-105428067D01*
X173832522Y-105385007D01*
X173862880Y-105345025D01*
X173888293Y-105310801D01*
X173906735Y-105285015D01*
X173910884Y-105278906D01*
X173941858Y-105227838D01*
X173972570Y-105169146D01*
X174001296Y-105106829D01*
X174026310Y-105044888D01*
X174045886Y-104987321D01*
X174058299Y-104938127D01*
X174058602Y-104936500D01*
X174063895Y-104907636D01*
X173023091Y-104907636D01*
X173023091Y-104484303D01*
X174653654Y-104484303D01*
X174661544Y-104509318D01*
X174661544Y-104509318D01*
G37*
X174661544Y-104509318D02*
X174677062Y-104576833D01*
X174684698Y-104652889D01*
X174684435Y-104732793D01*
X174676258Y-104811852D01*
X174662815Y-104875845D01*
X174654255Y-104907636D01*
X174525627Y-104907662D01*
X174397000Y-104907688D01*
X174383184Y-104978859D01*
X174374042Y-105019887D01*
X174361746Y-105067068D01*
X174348500Y-105112119D01*
X174344210Y-105125362D01*
X174319052Y-105200694D01*
X174436847Y-105267756D01*
X174475002Y-105289963D01*
X174508012Y-105310101D01*
X174533718Y-105326777D01*
X174549961Y-105338597D01*
X174554714Y-105343811D01*
X174551006Y-105357507D01*
X174540594Y-105381336D01*
X174524746Y-105413131D01*
X174504725Y-105450726D01*
X174481798Y-105491957D01*
X174457230Y-105534657D01*
X174432286Y-105576660D01*
X174408231Y-105615800D01*
X174386332Y-105649911D01*
X174367853Y-105676829D01*
X174354059Y-105694385D01*
X174346368Y-105700424D01*
X174338272Y-105696731D01*
X174319208Y-105686503D01*
X174291473Y-105671019D01*
X174257364Y-105651557D01*
X174228778Y-105635000D01*
X174191547Y-105613410D01*
X174159143Y-105594823D01*
X174133813Y-105580511D01*
X174117803Y-105571745D01*
X174113247Y-105569575D01*
X174107063Y-105574762D01*
X174091724Y-105589227D01*
X174068924Y-105611326D01*
X174040356Y-105639414D01*
X174007714Y-105671849D01*
X174001972Y-105677587D01*
X173893961Y-105785598D01*
X173947913Y-105879632D01*
X173968852Y-105916003D01*
X173988322Y-105949599D01*
X174004415Y-105977142D01*
X174015224Y-105995355D01*
X174016771Y-105997895D01*
X174031677Y-106022124D01*
X173944480Y-106080193D01*
X173916644Y-106097915D01*
X173882219Y-106118595D01*
X173843706Y-106140868D01*
X173803607Y-106163369D01*
X173764424Y-106184732D01*
X173728658Y-106203591D01*
X173698811Y-106218581D01*
X173677386Y-106228336D01*
X173667240Y-106231515D01*
X173661913Y-106225390D01*
X173650379Y-106208800D01*
X173634442Y-106184423D01*
X173619424Y-106160610D01*
X173575356Y-106089706D01*
X173579533Y-105943171D01*
X173581855Y-105877675D01*
X173585407Y-105822659D01*
X173591184Y-105775588D01*
X173600185Y-105733927D01*
X173613407Y-105695141D01*
X173631847Y-105656695D01*
X173656504Y-105616052D01*
X173688373Y-105570679D01*
X173728453Y-105518040D01*
X173765089Y-105471526D01*
X173799249Y-105428067D01*
X173832522Y-105385007D01*
X173862880Y-105345025D01*
X173888293Y-105310801D01*
X173906735Y-105285015D01*
X173910884Y-105278906D01*
X173941858Y-105227838D01*
X173972570Y-105169146D01*
X174001296Y-105106829D01*
X174026310Y-105044888D01*
X174045886Y-104987321D01*
X174058299Y-104938127D01*
X174058602Y-104936500D01*
X174063895Y-104907636D01*
X173023091Y-104907636D01*
X173023091Y-104484303D01*
X174653654Y-104484303D01*
X174661544Y-104509318D01*
G36*
X173087066Y-103028311D02*
G01*
X173133848Y-103029740D01*
X173171121Y-103031967D01*
X173182803Y-103033124D01*
X173230909Y-103038784D01*
X173230909Y-103176427D01*
X173230961Y-103225474D01*
X173231293Y-103261285D01*
X173232170Y-103286017D01*
X173233857Y-103301829D01*
X173236618Y-103310878D01*
X173240717Y-103315322D01*
X173246419Y-103317319D01*
X173248227Y-103317710D01*
X173264078Y-103321047D01*
X173289740Y-103326455D01*
X173319964Y-103332828D01*
X173323272Y-103333526D01*
X173357965Y-103341807D01*
X173399723Y-103353180D01*
X173441103Y-103365585D01*
X173453090Y-103369450D01*
X173487305Y-103380282D01*
X173509820Y-103386093D01*
X173523323Y-103387332D01*
X173530504Y-103384448D01*
X173531961Y-103382644D01*
X173537965Y-103372641D01*
X173550188Y-103351800D01*
X173567169Y-103322626D01*
X173587449Y-103287625D01*
X173601576Y-103263167D01*
X173664413Y-103154243D01*
X173722827Y-103180851D01*
X173762235Y-103199895D01*
X173805319Y-103222560D01*
X173849833Y-103247462D01*
X173893534Y-103273219D01*
X173934177Y-103298448D01*
X173969518Y-103321765D01*
X173997313Y-103341787D01*
X174015316Y-103357131D01*
X174020987Y-103364585D01*
X174018566Y-103374255D01*
X174009445Y-103394737D01*
X173994825Y-103423632D01*
X173975907Y-103458541D01*
X173959507Y-103487421D01*
X173894198Y-103600276D01*
X173998061Y-103703660D01*
X174030319Y-103736372D01*
X174058178Y-103765781D01*
X174079996Y-103790058D01*
X174094134Y-103807375D01*
X174098951Y-103815901D01*
X174098914Y-103816075D01*
X174091759Y-103822767D01*
X174073535Y-103836212D01*
X174046246Y-103855035D01*
X174011894Y-103877860D01*
X173972484Y-103903313D01*
X173963488Y-103909031D01*
X173831073Y-103992956D01*
X173761526Y-103927487D01*
X173660278Y-103842176D01*
X173552649Y-103770873D01*
X173438599Y-103713556D01*
X173318084Y-103670203D01*
X173193443Y-103641206D01*
X173146316Y-103635305D01*
X173088865Y-103631669D01*
X173025994Y-103630298D01*
X172962605Y-103631191D01*
X172903601Y-103634349D01*
X172853886Y-103639772D01*
X172845041Y-103641206D01*
X172718767Y-103670802D01*
X172598804Y-103714164D01*
X172485984Y-103770721D01*
X172381140Y-103839904D01*
X172285105Y-103921141D01*
X172198712Y-104013862D01*
X172122793Y-104117496D01*
X172102583Y-104149962D01*
X172045293Y-104260344D01*
X172001777Y-104376400D01*
X171972178Y-104496648D01*
X171956639Y-104619606D01*
X171955306Y-104743792D01*
X171968323Y-104867722D01*
X171995832Y-104989916D01*
X172015114Y-105050030D01*
X172033297Y-105098464D01*
X172052794Y-105143803D01*
X172074837Y-105188045D01*
X172100660Y-105233183D01*
X172131495Y-105281213D01*
X172168577Y-105334131D01*
X172213137Y-105393930D01*
X172266410Y-105462608D01*
X172283398Y-105484133D01*
X172329140Y-105542610D01*
X172365905Y-105592053D01*
X172394722Y-105635129D01*
X172416618Y-105674506D01*
X172432620Y-105712849D01*
X172443756Y-105752826D01*
X172451053Y-105797104D01*
X172455538Y-105848350D01*
X172458239Y-105909230D01*
X172459143Y-105940342D01*
X172463150Y-106091745D01*
X172418847Y-106161630D01*
X172400389Y-106190061D01*
X172384761Y-106212857D01*
X172373845Y-106227351D01*
X172369772Y-106231178D01*
X172361372Y-106227777D01*
X172342228Y-106218809D01*
X172315311Y-106205694D01*
X172288030Y-106192091D01*
X172206323Y-106148514D01*
X172129390Y-106102759D01*
X172062000Y-106057684D01*
X172054628Y-106052344D01*
X172030986Y-106033419D01*
X172019504Y-106019655D01*
X172018488Y-106009564D01*
X172023884Y-105998728D01*
X172035605Y-105977218D01*
X172052194Y-105947643D01*
X172072194Y-105912613D01*
X172084437Y-105891420D01*
X172145549Y-105786084D01*
X172037295Y-105677829D01*
X172004123Y-105644795D01*
X171974773Y-105615828D01*
X171950930Y-105592569D01*
X171934277Y-105576659D01*
X171926498Y-105569740D01*
X171926176Y-105569575D01*
X171918911Y-105573245D01*
X171900585Y-105583409D01*
X171873436Y-105598804D01*
X171839696Y-105618164D01*
X171810595Y-105635000D01*
X171773077Y-105656594D01*
X171740179Y-105675183D01*
X171714203Y-105689496D01*
X171697449Y-105698259D01*
X171692298Y-105700424D01*
X171684361Y-105693978D01*
X171670499Y-105676085D01*
X171651974Y-105648906D01*
X171630050Y-105614607D01*
X171605990Y-105575351D01*
X171581059Y-105533302D01*
X171556518Y-105490623D01*
X171533631Y-105449478D01*
X171513663Y-105412032D01*
X171497875Y-105380448D01*
X171487532Y-105356889D01*
X171483896Y-105343520D01*
X171483897Y-105343488D01*
X171490336Y-105337040D01*
X171508075Y-105324515D01*
X171534954Y-105307305D01*
X171568811Y-105286801D01*
X171601653Y-105267711D01*
X171719208Y-105200604D01*
X171693498Y-105121908D01*
X171680664Y-105079728D01*
X171668135Y-105033632D01*
X171657910Y-104991156D01*
X171654636Y-104975450D01*
X171641484Y-104907688D01*
X171505317Y-104907662D01*
X171454931Y-104907224D01*
X171414067Y-104905992D01*
X171384385Y-104904057D01*
X171367546Y-104901510D01*
X171364392Y-104899936D01*
X171361808Y-104888354D01*
X171359477Y-104864156D01*
X171357466Y-104830119D01*
X171355841Y-104789019D01*
X171354671Y-104743634D01*
X171354022Y-104696740D01*
X171353961Y-104651114D01*
X171354556Y-104609533D01*
X171355874Y-104574774D01*
X171356342Y-104567216D01*
X171362003Y-104484644D01*
X171640351Y-104480454D01*
X171657493Y-104399636D01*
X171667516Y-104356572D01*
X171679749Y-104310112D01*
X171692139Y-104267871D01*
X171697052Y-104252762D01*
X171719471Y-104186707D01*
X171601584Y-104118497D01*
X171563523Y-104096119D01*
X171530578Y-104076066D01*
X171504884Y-104059696D01*
X171488580Y-104048367D01*
X171483697Y-104043655D01*
X171487601Y-104029484D01*
X171498433Y-104004681D01*
X171514866Y-103971613D01*
X171535576Y-103932645D01*
X171559238Y-103890141D01*
X171584528Y-103846466D01*
X171610122Y-103803987D01*
X171634693Y-103765067D01*
X171656919Y-103732072D01*
X171662847Y-103723797D01*
X171692635Y-103682958D01*
X171720939Y-103699697D01*
X171757348Y-103721051D01*
X171795352Y-103743037D01*
X171832526Y-103764288D01*
X171866446Y-103783435D01*
X171894688Y-103799113D01*
X171914827Y-103809954D01*
X171924439Y-103814590D01*
X171924808Y-103814666D01*
X171931427Y-103809483D01*
X171947176Y-103795030D01*
X171970331Y-103772955D01*
X171999169Y-103744904D01*
X172031965Y-103712524D01*
X172037315Y-103707200D01*
X172145200Y-103599734D01*
X172079994Y-103487393D01*
X172058420Y-103449844D01*
X172039860Y-103416814D01*
X172025590Y-103390634D01*
X172016889Y-103373640D01*
X172014787Y-103368328D01*
X172021239Y-103359039D01*
X172039176Y-103343885D01*
X172066473Y-103324194D01*
X172101005Y-103301293D01*
X172140646Y-103276507D01*
X172183270Y-103251164D01*
X172226751Y-103226590D01*
X172268964Y-103204111D01*
X172307783Y-103185055D01*
X172310377Y-103183857D01*
X172374850Y-103154211D01*
X172437364Y-103263151D01*
X172458881Y-103300581D01*
X172478031Y-103333768D01*
X172493363Y-103360210D01*
X172503429Y-103377403D01*
X172506444Y-103382406D01*
X172512226Y-103386400D01*
X172523873Y-103386413D01*
X172543989Y-103382015D01*
X172575175Y-103372776D01*
X172586497Y-103369182D01*
X172623080Y-103357857D01*
X172658244Y-103347965D01*
X172696261Y-103338427D01*
X172741403Y-103328164D01*
X172790257Y-103317710D01*
X172796427Y-103315999D01*
X172800924Y-103312412D01*
X172804012Y-103304790D01*
X172805957Y-103290975D01*
X172807023Y-103268810D01*
X172807474Y-103236137D01*
X172807574Y-103190798D01*
X172807575Y-103176427D01*
X172807575Y-103038784D01*
X172855681Y-103033124D01*
X172887799Y-103030566D01*
X172931144Y-103028806D01*
X172981568Y-103027844D01*
X173034924Y-103027679D01*
X173087066Y-103028311D01*
X173087066Y-103028311D01*
G37*
X173087066Y-103028311D02*
X173133848Y-103029740D01*
X173171121Y-103031967D01*
X173182803Y-103033124D01*
X173230909Y-103038784D01*
X173230909Y-103176427D01*
X173230961Y-103225474D01*
X173231293Y-103261285D01*
X173232170Y-103286017D01*
X173233857Y-103301829D01*
X173236618Y-103310878D01*
X173240717Y-103315322D01*
X173246419Y-103317319D01*
X173248227Y-103317710D01*
X173264078Y-103321047D01*
X173289740Y-103326455D01*
X173319964Y-103332828D01*
X173323272Y-103333526D01*
X173357965Y-103341807D01*
X173399723Y-103353180D01*
X173441103Y-103365585D01*
X173453090Y-103369450D01*
X173487305Y-103380282D01*
X173509820Y-103386093D01*
X173523323Y-103387332D01*
X173530504Y-103384448D01*
X173531961Y-103382644D01*
X173537965Y-103372641D01*
X173550188Y-103351800D01*
X173567169Y-103322626D01*
X173587449Y-103287625D01*
X173601576Y-103263167D01*
X173664413Y-103154243D01*
X173722827Y-103180851D01*
X173762235Y-103199895D01*
X173805319Y-103222560D01*
X173849833Y-103247462D01*
X173893534Y-103273219D01*
X173934177Y-103298448D01*
X173969518Y-103321765D01*
X173997313Y-103341787D01*
X174015316Y-103357131D01*
X174020987Y-103364585D01*
X174018566Y-103374255D01*
X174009445Y-103394737D01*
X173994825Y-103423632D01*
X173975907Y-103458541D01*
X173959507Y-103487421D01*
X173894198Y-103600276D01*
X173998061Y-103703660D01*
X174030319Y-103736372D01*
X174058178Y-103765781D01*
X174079996Y-103790058D01*
X174094134Y-103807375D01*
X174098951Y-103815901D01*
X174098914Y-103816075D01*
X174091759Y-103822767D01*
X174073535Y-103836212D01*
X174046246Y-103855035D01*
X174011894Y-103877860D01*
X173972484Y-103903313D01*
X173963488Y-103909031D01*
X173831073Y-103992956D01*
X173761526Y-103927487D01*
X173660278Y-103842176D01*
X173552649Y-103770873D01*
X173438599Y-103713556D01*
X173318084Y-103670203D01*
X173193443Y-103641206D01*
X173146316Y-103635305D01*
X173088865Y-103631669D01*
X173025994Y-103630298D01*
X172962605Y-103631191D01*
X172903601Y-103634349D01*
X172853886Y-103639772D01*
X172845041Y-103641206D01*
X172718767Y-103670802D01*
X172598804Y-103714164D01*
X172485984Y-103770721D01*
X172381140Y-103839904D01*
X172285105Y-103921141D01*
X172198712Y-104013862D01*
X172122793Y-104117496D01*
X172102583Y-104149962D01*
X172045293Y-104260344D01*
X172001777Y-104376400D01*
X171972178Y-104496648D01*
X171956639Y-104619606D01*
X171955306Y-104743792D01*
X171968323Y-104867722D01*
X171995832Y-104989916D01*
X172015114Y-105050030D01*
X172033297Y-105098464D01*
X172052794Y-105143803D01*
X172074837Y-105188045D01*
X172100660Y-105233183D01*
X172131495Y-105281213D01*
X172168577Y-105334131D01*
X172213137Y-105393930D01*
X172266410Y-105462608D01*
X172283398Y-105484133D01*
X172329140Y-105542610D01*
X172365905Y-105592053D01*
X172394722Y-105635129D01*
X172416618Y-105674506D01*
X172432620Y-105712849D01*
X172443756Y-105752826D01*
X172451053Y-105797104D01*
X172455538Y-105848350D01*
X172458239Y-105909230D01*
X172459143Y-105940342D01*
X172463150Y-106091745D01*
X172418847Y-106161630D01*
X172400389Y-106190061D01*
X172384761Y-106212857D01*
X172373845Y-106227351D01*
X172369772Y-106231178D01*
X172361372Y-106227777D01*
X172342228Y-106218809D01*
X172315311Y-106205694D01*
X172288030Y-106192091D01*
X172206323Y-106148514D01*
X172129390Y-106102759D01*
X172062000Y-106057684D01*
X172054628Y-106052344D01*
X172030986Y-106033419D01*
X172019504Y-106019655D01*
X172018488Y-106009564D01*
X172023884Y-105998728D01*
X172035605Y-105977218D01*
X172052194Y-105947643D01*
X172072194Y-105912613D01*
X172084437Y-105891420D01*
X172145549Y-105786084D01*
X172037295Y-105677829D01*
X172004123Y-105644795D01*
X171974773Y-105615828D01*
X171950930Y-105592569D01*
X171934277Y-105576659D01*
X171926498Y-105569740D01*
X171926176Y-105569575D01*
X171918911Y-105573245D01*
X171900585Y-105583409D01*
X171873436Y-105598804D01*
X171839696Y-105618164D01*
X171810595Y-105635000D01*
X171773077Y-105656594D01*
X171740179Y-105675183D01*
X171714203Y-105689496D01*
X171697449Y-105698259D01*
X171692298Y-105700424D01*
X171684361Y-105693978D01*
X171670499Y-105676085D01*
X171651974Y-105648906D01*
X171630050Y-105614607D01*
X171605990Y-105575351D01*
X171581059Y-105533302D01*
X171556518Y-105490623D01*
X171533631Y-105449478D01*
X171513663Y-105412032D01*
X171497875Y-105380448D01*
X171487532Y-105356889D01*
X171483896Y-105343520D01*
X171483897Y-105343488D01*
X171490336Y-105337040D01*
X171508075Y-105324515D01*
X171534954Y-105307305D01*
X171568811Y-105286801D01*
X171601653Y-105267711D01*
X171719208Y-105200604D01*
X171693498Y-105121908D01*
X171680664Y-105079728D01*
X171668135Y-105033632D01*
X171657910Y-104991156D01*
X171654636Y-104975450D01*
X171641484Y-104907688D01*
X171505317Y-104907662D01*
X171454931Y-104907224D01*
X171414067Y-104905992D01*
X171384385Y-104904057D01*
X171367546Y-104901510D01*
X171364392Y-104899936D01*
X171361808Y-104888354D01*
X171359477Y-104864156D01*
X171357466Y-104830119D01*
X171355841Y-104789019D01*
X171354671Y-104743634D01*
X171354022Y-104696740D01*
X171353961Y-104651114D01*
X171354556Y-104609533D01*
X171355874Y-104574774D01*
X171356342Y-104567216D01*
X171362003Y-104484644D01*
X171640351Y-104480454D01*
X171657493Y-104399636D01*
X171667516Y-104356572D01*
X171679749Y-104310112D01*
X171692139Y-104267871D01*
X171697052Y-104252762D01*
X171719471Y-104186707D01*
X171601584Y-104118497D01*
X171563523Y-104096119D01*
X171530578Y-104076066D01*
X171504884Y-104059696D01*
X171488580Y-104048367D01*
X171483697Y-104043655D01*
X171487601Y-104029484D01*
X171498433Y-104004681D01*
X171514866Y-103971613D01*
X171535576Y-103932645D01*
X171559238Y-103890141D01*
X171584528Y-103846466D01*
X171610122Y-103803987D01*
X171634693Y-103765067D01*
X171656919Y-103732072D01*
X171662847Y-103723797D01*
X171692635Y-103682958D01*
X171720939Y-103699697D01*
X171757348Y-103721051D01*
X171795352Y-103743037D01*
X171832526Y-103764288D01*
X171866446Y-103783435D01*
X171894688Y-103799113D01*
X171914827Y-103809954D01*
X171924439Y-103814590D01*
X171924808Y-103814666D01*
X171931427Y-103809483D01*
X171947176Y-103795030D01*
X171970331Y-103772955D01*
X171999169Y-103744904D01*
X172031965Y-103712524D01*
X172037315Y-103707200D01*
X172145200Y-103599734D01*
X172079994Y-103487393D01*
X172058420Y-103449844D01*
X172039860Y-103416814D01*
X172025590Y-103390634D01*
X172016889Y-103373640D01*
X172014787Y-103368328D01*
X172021239Y-103359039D01*
X172039176Y-103343885D01*
X172066473Y-103324194D01*
X172101005Y-103301293D01*
X172140646Y-103276507D01*
X172183270Y-103251164D01*
X172226751Y-103226590D01*
X172268964Y-103204111D01*
X172307783Y-103185055D01*
X172310377Y-103183857D01*
X172374850Y-103154211D01*
X172437364Y-103263151D01*
X172458881Y-103300581D01*
X172478031Y-103333768D01*
X172493363Y-103360210D01*
X172503429Y-103377403D01*
X172506444Y-103382406D01*
X172512226Y-103386400D01*
X172523873Y-103386413D01*
X172543989Y-103382015D01*
X172575175Y-103372776D01*
X172586497Y-103369182D01*
X172623080Y-103357857D01*
X172658244Y-103347965D01*
X172696261Y-103338427D01*
X172741403Y-103328164D01*
X172790257Y-103317710D01*
X172796427Y-103315999D01*
X172800924Y-103312412D01*
X172804012Y-103304790D01*
X172805957Y-103290975D01*
X172807023Y-103268810D01*
X172807474Y-103236137D01*
X172807574Y-103190798D01*
X172807575Y-103176427D01*
X172807575Y-103038784D01*
X172855681Y-103033124D01*
X172887799Y-103030566D01*
X172931144Y-103028806D01*
X172981568Y-103027844D01*
X173034924Y-103027679D01*
X173087066Y-103028311D01*
G36*
X173119298Y-106135313D02*
G01*
X173205123Y-106135368D01*
X173277880Y-106135503D01*
X173338732Y-106135751D01*
X173388841Y-106136149D01*
X173429370Y-106136731D01*
X173461483Y-106137531D01*
X173486342Y-106138585D01*
X173505110Y-106139928D01*
X173518949Y-106141594D01*
X173529024Y-106143618D01*
X173536495Y-106146036D01*
X173542528Y-106148882D01*
X173546458Y-106151113D01*
X173578805Y-106177273D01*
X173598968Y-106208731D01*
X173606977Y-106242717D01*
X173602863Y-106276459D01*
X173586655Y-106307187D01*
X173558384Y-106332129D01*
X173544401Y-106339551D01*
X173537243Y-106342532D01*
X173529106Y-106345084D01*
X173518805Y-106347241D01*
X173505156Y-106349037D01*
X173486974Y-106350505D01*
X173463074Y-106351679D01*
X173432271Y-106352592D01*
X173393380Y-106353279D01*
X173345217Y-106353773D01*
X173286597Y-106354107D01*
X173216334Y-106354316D01*
X173133245Y-106354433D01*
X173036144Y-106354491D01*
X173018528Y-106354497D01*
X172525209Y-106354666D01*
X172492097Y-106337156D01*
X172459242Y-106312557D01*
X172439166Y-106282047D01*
X172431869Y-106248303D01*
X172437353Y-106213998D01*
X172455620Y-106181808D01*
X172486669Y-106154408D01*
X172492026Y-106151113D01*
X172497743Y-106147951D01*
X172504097Y-106145242D01*
X172512252Y-106142950D01*
X172523369Y-106141041D01*
X172538612Y-106139479D01*
X172559145Y-106138229D01*
X172586128Y-106137257D01*
X172620726Y-106136528D01*
X172664102Y-106136008D01*
X172717418Y-106135660D01*
X172781836Y-106135450D01*
X172858521Y-106135344D01*
X172948634Y-106135307D01*
X173019242Y-106135303D01*
X173119298Y-106135313D01*
X173119298Y-106135313D01*
G37*
X173119298Y-106135313D02*
X173205123Y-106135368D01*
X173277880Y-106135503D01*
X173338732Y-106135751D01*
X173388841Y-106136149D01*
X173429370Y-106136731D01*
X173461483Y-106137531D01*
X173486342Y-106138585D01*
X173505110Y-106139928D01*
X173518949Y-106141594D01*
X173529024Y-106143618D01*
X173536495Y-106146036D01*
X173542528Y-106148882D01*
X173546458Y-106151113D01*
X173578805Y-106177273D01*
X173598968Y-106208731D01*
X173606977Y-106242717D01*
X173602863Y-106276459D01*
X173586655Y-106307187D01*
X173558384Y-106332129D01*
X173544401Y-106339551D01*
X173537243Y-106342532D01*
X173529106Y-106345084D01*
X173518805Y-106347241D01*
X173505156Y-106349037D01*
X173486974Y-106350505D01*
X173463074Y-106351679D01*
X173432271Y-106352592D01*
X173393380Y-106353279D01*
X173345217Y-106353773D01*
X173286597Y-106354107D01*
X173216334Y-106354316D01*
X173133245Y-106354433D01*
X173036144Y-106354491D01*
X173018528Y-106354497D01*
X172525209Y-106354666D01*
X172492097Y-106337156D01*
X172459242Y-106312557D01*
X172439166Y-106282047D01*
X172431869Y-106248303D01*
X172437353Y-106213998D01*
X172455620Y-106181808D01*
X172486669Y-106154408D01*
X172492026Y-106151113D01*
X172497743Y-106147951D01*
X172504097Y-106145242D01*
X172512252Y-106142950D01*
X172523369Y-106141041D01*
X172538612Y-106139479D01*
X172559145Y-106138229D01*
X172586128Y-106137257D01*
X172620726Y-106136528D01*
X172664102Y-106136008D01*
X172717418Y-106135660D01*
X172781836Y-106135450D01*
X172858521Y-106135344D01*
X172948634Y-106135307D01*
X173019242Y-106135303D01*
X173119298Y-106135313D01*
G36*
X173084794Y-106423643D02*
G01*
X173161340Y-106423912D01*
X173234781Y-106424393D01*
X173303436Y-106425086D01*
X173365624Y-106425993D01*
X173419663Y-106427113D01*
X173463871Y-106428447D01*
X173496568Y-106429994D01*
X173516071Y-106431756D01*
X173519159Y-106432342D01*
X173556714Y-106448293D01*
X173583993Y-106472838D01*
X173600609Y-106503166D01*
X173606173Y-106536466D01*
X173600299Y-106569929D01*
X173582597Y-106600742D01*
X173552680Y-106626095D01*
X173546387Y-106629641D01*
X173513275Y-106647151D01*
X173019956Y-106646850D01*
X172916640Y-106646731D01*
X172827680Y-106646495D01*
X172752034Y-106646120D01*
X172688664Y-106645585D01*
X172636531Y-106644869D01*
X172594596Y-106643949D01*
X172561818Y-106642804D01*
X172537160Y-106641413D01*
X172519582Y-106639755D01*
X172508044Y-106637807D01*
X172502696Y-106636128D01*
X172469566Y-106614768D01*
X172445575Y-106585264D01*
X172432675Y-106551101D01*
X172432818Y-106515761D01*
X172433536Y-106512646D01*
X172447642Y-106483626D01*
X172472323Y-106457271D01*
X172502863Y-106438027D01*
X172518493Y-106432551D01*
X172533607Y-106430717D01*
X172562430Y-106429091D01*
X172603282Y-106427675D01*
X172654481Y-106426468D01*
X172714345Y-106425470D01*
X172781192Y-106424683D01*
X172853343Y-106424107D01*
X172929114Y-106423741D01*
X173006825Y-106423586D01*
X173084794Y-106423643D01*
X173084794Y-106423643D01*
G37*
X173084794Y-106423643D02*
X173161340Y-106423912D01*
X173234781Y-106424393D01*
X173303436Y-106425086D01*
X173365624Y-106425993D01*
X173419663Y-106427113D01*
X173463871Y-106428447D01*
X173496568Y-106429994D01*
X173516071Y-106431756D01*
X173519159Y-106432342D01*
X173556714Y-106448293D01*
X173583993Y-106472838D01*
X173600609Y-106503166D01*
X173606173Y-106536466D01*
X173600299Y-106569929D01*
X173582597Y-106600742D01*
X173552680Y-106626095D01*
X173546387Y-106629641D01*
X173513275Y-106647151D01*
X173019956Y-106646850D01*
X172916640Y-106646731D01*
X172827680Y-106646495D01*
X172752034Y-106646120D01*
X172688664Y-106645585D01*
X172636531Y-106644869D01*
X172594596Y-106643949D01*
X172561818Y-106642804D01*
X172537160Y-106641413D01*
X172519582Y-106639755D01*
X172508044Y-106637807D01*
X172502696Y-106636128D01*
X172469566Y-106614768D01*
X172445575Y-106585264D01*
X172432675Y-106551101D01*
X172432818Y-106515761D01*
X172433536Y-106512646D01*
X172447642Y-106483626D01*
X172472323Y-106457271D01*
X172502863Y-106438027D01*
X172518493Y-106432551D01*
X172533607Y-106430717D01*
X172562430Y-106429091D01*
X172603282Y-106427675D01*
X172654481Y-106426468D01*
X172714345Y-106425470D01*
X172781192Y-106424683D01*
X172853343Y-106424107D01*
X172929114Y-106423741D01*
X173006825Y-106423586D01*
X173084794Y-106423643D01*
G36*
X173023211Y-106718015D02*
G01*
X173033682Y-106718088D01*
X173340012Y-106720272D01*
X173358581Y-106741868D01*
X173372555Y-106765106D01*
X173377120Y-106794305D01*
X173377151Y-106797649D01*
X173369676Y-106833267D01*
X173347861Y-106866128D01*
X173312624Y-106895528D01*
X173264882Y-106920765D01*
X173205553Y-106941133D01*
X173182748Y-106946860D01*
X173110492Y-106959460D01*
X173034253Y-106965710D01*
X172961295Y-106965141D01*
X172934575Y-106962890D01*
X172860494Y-106951032D01*
X172796752Y-106933301D01*
X172744226Y-106910227D01*
X172703793Y-106882340D01*
X172676330Y-106850169D01*
X172662713Y-106814243D01*
X172661333Y-106797800D01*
X172666843Y-106763004D01*
X172683780Y-106738155D01*
X172705582Y-106724921D01*
X172716841Y-106722447D01*
X172737967Y-106720499D01*
X172769863Y-106719060D01*
X172813432Y-106718111D01*
X172869578Y-106717633D01*
X172939203Y-106717608D01*
X173023211Y-106718015D01*
X173023211Y-106718015D01*
G37*
X173023211Y-106718015D02*
X173033682Y-106718088D01*
X173340012Y-106720272D01*
X173358581Y-106741868D01*
X173372555Y-106765106D01*
X173377120Y-106794305D01*
X173377151Y-106797649D01*
X173369676Y-106833267D01*
X173347861Y-106866128D01*
X173312624Y-106895528D01*
X173264882Y-106920765D01*
X173205553Y-106941133D01*
X173182748Y-106946860D01*
X173110492Y-106959460D01*
X173034253Y-106965710D01*
X172961295Y-106965141D01*
X172934575Y-106962890D01*
X172860494Y-106951032D01*
X172796752Y-106933301D01*
X172744226Y-106910227D01*
X172703793Y-106882340D01*
X172676330Y-106850169D01*
X172662713Y-106814243D01*
X172661333Y-106797800D01*
X172666843Y-106763004D01*
X172683780Y-106738155D01*
X172705582Y-106724921D01*
X172716841Y-106722447D01*
X172737967Y-106720499D01*
X172769863Y-106719060D01*
X172813432Y-106718111D01*
X172869578Y-106717633D01*
X172939203Y-106717608D01*
X173023211Y-106718015D01*
D11*
X190150000Y-99610000D02*
G75*
G03X190150000Y-99610000I-50000J0D01*
G01*
D13*
X153058578Y-97990000D02*
X152541422Y-97990000D01*
X153058578Y-99410000D02*
X152541422Y-99410000D01*
X142350000Y-101950000D02*
X144900000Y-101950000D01*
X142350000Y-103650000D02*
X144900000Y-103650000D01*
X142350000Y-101950000D02*
X142350000Y-103650000D01*
D14*
X175550024Y-97996144D02*
G75*
G03X175550024Y-97996144I-100000J0D01*
G01*
D10*
X176450024Y-97846144D02*
X178800024Y-97846144D01*
X175300024Y-101346144D02*
X175300024Y-98996144D01*
X189600024Y-97846144D02*
X186100024Y-97846144D01*
X189600024Y-101346144D02*
X189600024Y-97846144D01*
X189600024Y-112146144D02*
X186100024Y-112146144D01*
X189600024Y-108646144D02*
X189600024Y-112146144D01*
X175300024Y-112146144D02*
X178800024Y-112146144D01*
X175300024Y-108646144D02*
X175300024Y-112146144D01*
D13*
X147440000Y-111812000D02*
X147440000Y-112562000D01*
X154740000Y-112462000D02*
X154090000Y-112462000D01*
X154740000Y-111812000D02*
X154740000Y-112462000D01*
X154740000Y-105162000D02*
X154090000Y-105162000D01*
X154740000Y-105812000D02*
X154740000Y-105162000D01*
X147440000Y-105162000D02*
X148090000Y-105162000D01*
X147440000Y-105812000D02*
X147440000Y-105162000D01*
X161615000Y-117740000D02*
X161615000Y-116290000D01*
X161615000Y-116290000D02*
X163415000Y-116290000D01*
X163415000Y-116290000D02*
X163415000Y-115300000D01*
X172585000Y-117740000D02*
X172585000Y-116290000D01*
X172585000Y-116290000D02*
X170785000Y-116290000D01*
X162885000Y-120560000D02*
X171315000Y-120560000D01*
X173000000Y-120750000D02*
X175900000Y-120750000D01*
X173000000Y-118450000D02*
X175900000Y-118450000D01*
X173000000Y-119050000D02*
X173000000Y-118450000D01*
D10*
X166400000Y-94600000D02*
X168575000Y-94600000D01*
X167125000Y-96800000D02*
X168575000Y-96800000D01*
X171000000Y-94930000D02*
X173980000Y-94930000D01*
X171820000Y-97170000D02*
X173980000Y-97170000D01*
D11*
X202855000Y-101455000D02*
G75*
G03X202855000Y-101455000I-100000J0D01*
G01*
D13*
X202875000Y-98425000D02*
X202875000Y-99152500D01*
X202247500Y-98425000D02*
X202875000Y-98425000D01*
X200125000Y-101575000D02*
X200125000Y-100847500D01*
X200752500Y-101575000D02*
X200125000Y-101575000D01*
X200125000Y-98425000D02*
X200125000Y-99152500D01*
X200752500Y-98425000D02*
X200125000Y-98425000D01*
X200125000Y-101575000D02*
X200125000Y-100847500D01*
X200752500Y-101575000D02*
X200125000Y-101575000D01*
X200125000Y-101575000D02*
X200125000Y-100847500D01*
X200752500Y-101575000D02*
X200125000Y-101575000D01*
X199297936Y-95260000D02*
X200502064Y-95260000D01*
X199297936Y-93440000D02*
X200502064Y-93440000D01*
X201637221Y-106122500D02*
X201962779Y-106122500D01*
X201637221Y-105102500D02*
X201962779Y-105102500D01*
X203797936Y-98260000D02*
X205002064Y-98260000D01*
X203797936Y-95540000D02*
X205002064Y-95540000D01*
X200502064Y-95540000D02*
X199297936Y-95540000D01*
X200502064Y-98260000D02*
X199297936Y-98260000D01*
X200047936Y-104560000D02*
X201252064Y-104560000D01*
X200047936Y-101840000D02*
X201252064Y-101840000D01*
D14*
X171348000Y-111895000D02*
G75*
G03X171348000Y-111895000I-100000J0D01*
G01*
D15*
X159590000Y-97695000D02*
X170690000Y-97695000D01*
X159590000Y-112295000D02*
X159590000Y-97695000D01*
X170690000Y-112295000D02*
X159590000Y-112295000D01*
X170690000Y-97695000D02*
X170690000Y-112295000D01*
X206550000Y-119500000D02*
X206550000Y-106500000D01*
X195050000Y-119500000D02*
X195050000Y-106500000D01*
X206550000Y-106500000D02*
X195050000Y-106500000D01*
X206550000Y-119500000D02*
X195050000Y-119500000D01*
D11*
X194700000Y-109700000D02*
G75*
G03X194700000Y-109700000I-200000J0D01*
G01*
D14*
X191800000Y-113650000D02*
G75*
G03X191800000Y-113650000I-100000J0D01*
G01*
D13*
X205160000Y-104908578D02*
X205160000Y-104391422D01*
X203740000Y-104908578D02*
X203740000Y-104391422D01*
X193190000Y-118341422D02*
X193190000Y-118858578D01*
X194610000Y-118341422D02*
X194610000Y-118858578D01*
X206710000Y-104908578D02*
X206710000Y-104391422D01*
X205290000Y-104908578D02*
X205290000Y-104391422D01*
X155500000Y-102970000D02*
X158500000Y-102970000D01*
X157000000Y-99750000D02*
X158500000Y-99750000D01*
X149720000Y-102010000D02*
X151130000Y-102010000D01*
X151130000Y-99690000D02*
X149100000Y-99690000D01*
X151130000Y-99690000D02*
X151130000Y-100350000D01*
X151130000Y-101350000D02*
X151130000Y-102010000D01*
X156802064Y-95090000D02*
X155597936Y-95090000D01*
X156802064Y-97810000D02*
X155597936Y-97810000D01*
X144902064Y-96290000D02*
X143697936Y-96290000D01*
X144902064Y-99010000D02*
X143697936Y-99010000D01*
X158140000Y-95145563D02*
X159204437Y-96210000D01*
X158140000Y-90454437D02*
X159204437Y-89390000D01*
X158140000Y-90454437D02*
X158140000Y-91740000D01*
X158140000Y-95145563D02*
X158140000Y-93860000D01*
X159204437Y-96210000D02*
X164960000Y-96210000D01*
X159204437Y-89390000D02*
X164960000Y-89390000D01*
X164960000Y-89390000D02*
X164960000Y-91740000D01*
X164960000Y-96210000D02*
X164960000Y-93860000D01*
X147815000Y-89490000D02*
X144385000Y-89490000D01*
X143115000Y-93760000D02*
X144915000Y-93760000D01*
X143115000Y-92310000D02*
X143115000Y-93760000D01*
X147285000Y-93760000D02*
X147285000Y-94750000D01*
X149085000Y-93760000D02*
X147285000Y-93760000D01*
X149085000Y-92310000D02*
X149085000Y-93760000D01*
X190830000Y-98300000D02*
X190830000Y-99280000D01*
X191350000Y-97780000D02*
X190830000Y-98300000D01*
X192330000Y-97780000D02*
X191350000Y-97780000D01*
X190830000Y-104020000D02*
X190830000Y-102520000D01*
X192330000Y-104020000D02*
X190830000Y-104020000D01*
X197070000Y-97780000D02*
X197070000Y-99280000D01*
X195570000Y-97780000D02*
X197070000Y-97780000D01*
X197070000Y-104020000D02*
X197070000Y-102520000D01*
X195570000Y-104020000D02*
X197070000Y-104020000D01*
X197070000Y-97780000D02*
X197070000Y-99280000D01*
X195570000Y-97780000D02*
X197070000Y-97780000D01*
X197070000Y-97780000D02*
X197070000Y-99280000D01*
X195570000Y-97780000D02*
X197070000Y-97780000D01*
X173900000Y-89100000D02*
X173900000Y-89360000D01*
X173900000Y-91640000D02*
X173900000Y-93410000D01*
X173900000Y-93410000D02*
X173520000Y-93410000D01*
X166280000Y-93410000D02*
X166280000Y-91640000D01*
X166280000Y-89360000D02*
X166280000Y-89100000D01*
X166280000Y-93410000D02*
X166660000Y-93410000D01*
X157975000Y-115100000D02*
X159325000Y-115100000D01*
X157975000Y-116850000D02*
X159325000Y-116850000D01*
X149746078Y-102240000D02*
X149228922Y-102240000D01*
X149746078Y-103660000D02*
X149228922Y-103660000D01*
X144280000Y-110253422D02*
X144280000Y-110770578D01*
X145700000Y-110253422D02*
X145700000Y-110770578D01*
X145700000Y-107420578D02*
X145700000Y-106903422D01*
X144280000Y-107420578D02*
X144280000Y-106903422D01*
X152541422Y-103672000D02*
X153058578Y-103672000D01*
X152541422Y-102252000D02*
X153058578Y-102252000D01*
X157700000Y-107420578D02*
X157700000Y-106903422D01*
X156280000Y-107420578D02*
X156280000Y-106903422D01*
X156280000Y-110253422D02*
X156280000Y-110770578D01*
X157700000Y-110253422D02*
X157700000Y-110770578D01*
X182085000Y-120610000D02*
X190515000Y-120610000D01*
X191785000Y-116340000D02*
X189985000Y-116340000D01*
X191785000Y-117790000D02*
X191785000Y-116340000D01*
X182615000Y-116340000D02*
X182615000Y-115350000D01*
X180815000Y-116340000D02*
X182615000Y-116340000D01*
X180815000Y-117790000D02*
X180815000Y-116340000D01*
X145700000Y-120200000D02*
X145700000Y-115800000D01*
X145700000Y-115800000D02*
X145580000Y-115800000D01*
X144570000Y-115800000D02*
X143430000Y-115800000D01*
X142420000Y-115800000D02*
X142300000Y-115800000D01*
X142300000Y-115800000D02*
X142300000Y-120200000D01*
X142300000Y-120200000D02*
X142420000Y-120200000D01*
X143430000Y-120200000D02*
X144570000Y-120200000D01*
X145580000Y-120200000D02*
X145700000Y-120200000D01*
X150500000Y-120200000D02*
X150500000Y-115800000D01*
X150500000Y-115800000D02*
X150380000Y-115800000D01*
X149370000Y-115800000D02*
X148230000Y-115800000D01*
X147220000Y-115800000D02*
X147100000Y-115800000D01*
X147100000Y-115800000D02*
X147100000Y-120200000D01*
X147100000Y-120200000D02*
X147220000Y-120200000D01*
X148230000Y-120200000D02*
X149370000Y-120200000D01*
X150380000Y-120200000D02*
X150500000Y-120200000D01*
D11*
X190326190Y-98019047D02*
X189826190Y-98019047D01*
X189826190Y-97900000D01*
X189850000Y-97828571D01*
X189897619Y-97780952D01*
X189945238Y-97757142D01*
X190040476Y-97733333D01*
X190111904Y-97733333D01*
X190207142Y-97757142D01*
X190254761Y-97780952D01*
X190302380Y-97828571D01*
X190326190Y-97900000D01*
X190326190Y-98019047D01*
X189826190Y-97280952D02*
X189826190Y-97519047D01*
X190064285Y-97542857D01*
X190040476Y-97519047D01*
X190016666Y-97471428D01*
X190016666Y-97352380D01*
X190040476Y-97304761D01*
X190064285Y-97280952D01*
X190111904Y-97257142D01*
X190230952Y-97257142D01*
X190278571Y-97280952D01*
X190302380Y-97304761D01*
X190326190Y-97352380D01*
X190326190Y-97471428D01*
X190302380Y-97519047D01*
X190278571Y-97542857D01*
X150278571Y-98926190D02*
X150111904Y-98688095D01*
X149992857Y-98926190D02*
X149992857Y-98426190D01*
X150183333Y-98426190D01*
X150230952Y-98450000D01*
X150254761Y-98473809D01*
X150278571Y-98521428D01*
X150278571Y-98592857D01*
X150254761Y-98640476D01*
X150230952Y-98664285D01*
X150183333Y-98688095D01*
X149992857Y-98688095D01*
X150469047Y-98473809D02*
X150492857Y-98450000D01*
X150540476Y-98426190D01*
X150659523Y-98426190D01*
X150707142Y-98450000D01*
X150730952Y-98473809D01*
X150754761Y-98521428D01*
X150754761Y-98569047D01*
X150730952Y-98640476D01*
X150445238Y-98926190D01*
X150754761Y-98926190D01*
X150921428Y-98426190D02*
X151230952Y-98426190D01*
X151064285Y-98616666D01*
X151135714Y-98616666D01*
X151183333Y-98640476D01*
X151207142Y-98664285D01*
X151230952Y-98711904D01*
X151230952Y-98830952D01*
X151207142Y-98878571D01*
X151183333Y-98902380D01*
X151135714Y-98926190D01*
X150992857Y-98926190D01*
X150945238Y-98902380D01*
X150921428Y-98878571D01*
X143076190Y-99921428D02*
X142838095Y-100088095D01*
X143076190Y-100207142D02*
X142576190Y-100207142D01*
X142576190Y-100016666D01*
X142600000Y-99969047D01*
X142623809Y-99945238D01*
X142671428Y-99921428D01*
X142742857Y-99921428D01*
X142790476Y-99945238D01*
X142814285Y-99969047D01*
X142838095Y-100016666D01*
X142838095Y-100207142D01*
X143076190Y-99445238D02*
X143076190Y-99730952D01*
X143076190Y-99588095D02*
X142576190Y-99588095D01*
X142647619Y-99635714D01*
X142695238Y-99683333D01*
X142719047Y-99730952D01*
X143076190Y-99207142D02*
X143076190Y-99111904D01*
X143052380Y-99064285D01*
X143028571Y-99040476D01*
X142957142Y-98992857D01*
X142861904Y-98969047D01*
X142671428Y-98969047D01*
X142623809Y-98992857D01*
X142600000Y-99016666D01*
X142576190Y-99064285D01*
X142576190Y-99159523D01*
X142600000Y-99207142D01*
X142623809Y-99230952D01*
X142671428Y-99254761D01*
X142790476Y-99254761D01*
X142838095Y-99230952D01*
X142861904Y-99207142D01*
X142885714Y-99159523D01*
X142885714Y-99064285D01*
X142861904Y-99016666D01*
X142838095Y-98992857D01*
X142790476Y-98969047D01*
X144630952Y-104376190D02*
X144630952Y-103876190D01*
X144750000Y-103876190D01*
X144821428Y-103900000D01*
X144869047Y-103947619D01*
X144892857Y-103995238D01*
X144916666Y-104090476D01*
X144916666Y-104161904D01*
X144892857Y-104257142D01*
X144869047Y-104304761D01*
X144821428Y-104352380D01*
X144750000Y-104376190D01*
X144630952Y-104376190D01*
X145107142Y-103923809D02*
X145130952Y-103900000D01*
X145178571Y-103876190D01*
X145297619Y-103876190D01*
X145345238Y-103900000D01*
X145369047Y-103923809D01*
X145392857Y-103971428D01*
X145392857Y-104019047D01*
X145369047Y-104090476D01*
X145083333Y-104376190D01*
X145392857Y-104376190D01*
D10*
X181323095Y-96552380D02*
X181323095Y-97361904D01*
X181370714Y-97457142D01*
X181418333Y-97504761D01*
X181513571Y-97552380D01*
X181704047Y-97552380D01*
X181799285Y-97504761D01*
X181846904Y-97457142D01*
X181894523Y-97361904D01*
X181894523Y-96552380D01*
X182894523Y-97552380D02*
X182323095Y-97552380D01*
X182608809Y-97552380D02*
X182608809Y-96552380D01*
X182513571Y-96695238D01*
X182418333Y-96790476D01*
X182323095Y-96838095D01*
D11*
X146719047Y-112826190D02*
X146719047Y-113230952D01*
X146742857Y-113278571D01*
X146766666Y-113302380D01*
X146814285Y-113326190D01*
X146909523Y-113326190D01*
X146957142Y-113302380D01*
X146980952Y-113278571D01*
X147004761Y-113230952D01*
X147004761Y-112826190D01*
X147195238Y-112826190D02*
X147504761Y-112826190D01*
X147338095Y-113016666D01*
X147409523Y-113016666D01*
X147457142Y-113040476D01*
X147480952Y-113064285D01*
X147504761Y-113111904D01*
X147504761Y-113230952D01*
X147480952Y-113278571D01*
X147457142Y-113302380D01*
X147409523Y-113326190D01*
X147266666Y-113326190D01*
X147219047Y-113302380D01*
X147195238Y-113278571D01*
X194703571Y-104651190D02*
X194536904Y-104413095D01*
X194417857Y-104651190D02*
X194417857Y-104151190D01*
X194608333Y-104151190D01*
X194655952Y-104175000D01*
X194679761Y-104198809D01*
X194703571Y-104246428D01*
X194703571Y-104317857D01*
X194679761Y-104365476D01*
X194655952Y-104389285D01*
X194608333Y-104413095D01*
X194417857Y-104413095D01*
X195132142Y-104151190D02*
X195036904Y-104151190D01*
X194989285Y-104175000D01*
X194965476Y-104198809D01*
X194917857Y-104270238D01*
X194894047Y-104365476D01*
X194894047Y-104555952D01*
X194917857Y-104603571D01*
X194941666Y-104627380D01*
X194989285Y-104651190D01*
X195084523Y-104651190D01*
X195132142Y-104627380D01*
X195155952Y-104603571D01*
X195179761Y-104555952D01*
X195179761Y-104436904D01*
X195155952Y-104389285D01*
X195132142Y-104365476D01*
X195084523Y-104341666D01*
X194989285Y-104341666D01*
X194941666Y-104365476D01*
X194917857Y-104389285D01*
X194894047Y-104436904D01*
X195655952Y-104651190D02*
X195370238Y-104651190D01*
X195513095Y-104651190D02*
X195513095Y-104151190D01*
X195465476Y-104222619D01*
X195417857Y-104270238D01*
X195370238Y-104294047D01*
X205178571Y-102876190D02*
X205011904Y-102638095D01*
X204892857Y-102876190D02*
X204892857Y-102376190D01*
X205083333Y-102376190D01*
X205130952Y-102400000D01*
X205154761Y-102423809D01*
X205178571Y-102471428D01*
X205178571Y-102542857D01*
X205154761Y-102590476D01*
X205130952Y-102614285D01*
X205083333Y-102638095D01*
X204892857Y-102638095D01*
X205607142Y-102376190D02*
X205511904Y-102376190D01*
X205464285Y-102400000D01*
X205440476Y-102423809D01*
X205392857Y-102495238D01*
X205369047Y-102590476D01*
X205369047Y-102780952D01*
X205392857Y-102828571D01*
X205416666Y-102852380D01*
X205464285Y-102876190D01*
X205559523Y-102876190D01*
X205607142Y-102852380D01*
X205630952Y-102828571D01*
X205654761Y-102780952D01*
X205654761Y-102661904D01*
X205630952Y-102614285D01*
X205607142Y-102590476D01*
X205559523Y-102566666D01*
X205464285Y-102566666D01*
X205416666Y-102590476D01*
X205392857Y-102614285D01*
X205369047Y-102661904D01*
X205964285Y-102376190D02*
X206011904Y-102376190D01*
X206059523Y-102400000D01*
X206083333Y-102423809D01*
X206107142Y-102471428D01*
X206130952Y-102566666D01*
X206130952Y-102685714D01*
X206107142Y-102780952D01*
X206083333Y-102828571D01*
X206059523Y-102852380D01*
X206011904Y-102876190D01*
X205964285Y-102876190D01*
X205916666Y-102852380D01*
X205892857Y-102828571D01*
X205869047Y-102780952D01*
X205845238Y-102685714D01*
X205845238Y-102566666D01*
X205869047Y-102471428D01*
X205892857Y-102423809D01*
X205916666Y-102400000D01*
X205964285Y-102376190D01*
X171033333Y-115526190D02*
X171033333Y-115883333D01*
X171009523Y-115954761D01*
X170961904Y-116002380D01*
X170890476Y-116026190D01*
X170842857Y-116026190D01*
X171485714Y-115692857D02*
X171485714Y-116026190D01*
X171366666Y-115502380D02*
X171247619Y-115859523D01*
X171557142Y-115859523D01*
X177253571Y-120876190D02*
X177086904Y-120638095D01*
X176967857Y-120876190D02*
X176967857Y-120376190D01*
X177158333Y-120376190D01*
X177205952Y-120400000D01*
X177229761Y-120423809D01*
X177253571Y-120471428D01*
X177253571Y-120542857D01*
X177229761Y-120590476D01*
X177205952Y-120614285D01*
X177158333Y-120638095D01*
X176967857Y-120638095D01*
X177705952Y-120376190D02*
X177467857Y-120376190D01*
X177444047Y-120614285D01*
X177467857Y-120590476D01*
X177515476Y-120566666D01*
X177634523Y-120566666D01*
X177682142Y-120590476D01*
X177705952Y-120614285D01*
X177729761Y-120661904D01*
X177729761Y-120780952D01*
X177705952Y-120828571D01*
X177682142Y-120852380D01*
X177634523Y-120876190D01*
X177515476Y-120876190D01*
X177467857Y-120852380D01*
X177444047Y-120828571D01*
X177896428Y-120376190D02*
X178229761Y-120376190D01*
X178015476Y-120876190D01*
X177253571Y-120276190D02*
X177086904Y-120038095D01*
X176967857Y-120276190D02*
X176967857Y-119776190D01*
X177158333Y-119776190D01*
X177205952Y-119800000D01*
X177229761Y-119823809D01*
X177253571Y-119871428D01*
X177253571Y-119942857D01*
X177229761Y-119990476D01*
X177205952Y-120014285D01*
X177158333Y-120038095D01*
X176967857Y-120038095D01*
X177705952Y-119776190D02*
X177467857Y-119776190D01*
X177444047Y-120014285D01*
X177467857Y-119990476D01*
X177515476Y-119966666D01*
X177634523Y-119966666D01*
X177682142Y-119990476D01*
X177705952Y-120014285D01*
X177729761Y-120061904D01*
X177729761Y-120180952D01*
X177705952Y-120228571D01*
X177682142Y-120252380D01*
X177634523Y-120276190D01*
X177515476Y-120276190D01*
X177467857Y-120252380D01*
X177444047Y-120228571D01*
X178158333Y-119776190D02*
X178063095Y-119776190D01*
X178015476Y-119800000D01*
X177991666Y-119823809D01*
X177944047Y-119895238D01*
X177920238Y-119990476D01*
X177920238Y-120180952D01*
X177944047Y-120228571D01*
X177967857Y-120252380D01*
X178015476Y-120276190D01*
X178110714Y-120276190D01*
X178158333Y-120252380D01*
X178182142Y-120228571D01*
X178205952Y-120180952D01*
X178205952Y-120061904D01*
X178182142Y-120014285D01*
X178158333Y-119990476D01*
X178110714Y-119966666D01*
X178015476Y-119966666D01*
X177967857Y-119990476D01*
X177944047Y-120014285D01*
X177920238Y-120061904D01*
X177253571Y-119676190D02*
X177086904Y-119438095D01*
X176967857Y-119676190D02*
X176967857Y-119176190D01*
X177158333Y-119176190D01*
X177205952Y-119200000D01*
X177229761Y-119223809D01*
X177253571Y-119271428D01*
X177253571Y-119342857D01*
X177229761Y-119390476D01*
X177205952Y-119414285D01*
X177158333Y-119438095D01*
X176967857Y-119438095D01*
X177705952Y-119176190D02*
X177467857Y-119176190D01*
X177444047Y-119414285D01*
X177467857Y-119390476D01*
X177515476Y-119366666D01*
X177634523Y-119366666D01*
X177682142Y-119390476D01*
X177705952Y-119414285D01*
X177729761Y-119461904D01*
X177729761Y-119580952D01*
X177705952Y-119628571D01*
X177682142Y-119652380D01*
X177634523Y-119676190D01*
X177515476Y-119676190D01*
X177467857Y-119652380D01*
X177444047Y-119628571D01*
X178182142Y-119176190D02*
X177944047Y-119176190D01*
X177920238Y-119414285D01*
X177944047Y-119390476D01*
X177991666Y-119366666D01*
X178110714Y-119366666D01*
X178158333Y-119390476D01*
X178182142Y-119414285D01*
X178205952Y-119461904D01*
X178205952Y-119580952D01*
X178182142Y-119628571D01*
X178158333Y-119652380D01*
X178110714Y-119676190D01*
X177991666Y-119676190D01*
X177944047Y-119652380D01*
X177920238Y-119628571D01*
X174155952Y-118051190D02*
X174155952Y-117551190D01*
X174275000Y-117551190D01*
X174346428Y-117575000D01*
X174394047Y-117622619D01*
X174417857Y-117670238D01*
X174441666Y-117765476D01*
X174441666Y-117836904D01*
X174417857Y-117932142D01*
X174394047Y-117979761D01*
X174346428Y-118027380D01*
X174275000Y-118051190D01*
X174155952Y-118051190D01*
X174917857Y-118051190D02*
X174632142Y-118051190D01*
X174775000Y-118051190D02*
X174775000Y-117551190D01*
X174727380Y-117622619D01*
X174679761Y-117670238D01*
X174632142Y-117694047D01*
X180228571Y-113426190D02*
X180061904Y-113188095D01*
X179942857Y-113426190D02*
X179942857Y-112926190D01*
X180133333Y-112926190D01*
X180180952Y-112950000D01*
X180204761Y-112973809D01*
X180228571Y-113021428D01*
X180228571Y-113092857D01*
X180204761Y-113140476D01*
X180180952Y-113164285D01*
X180133333Y-113188095D01*
X179942857Y-113188095D01*
X180680952Y-112926190D02*
X180442857Y-112926190D01*
X180419047Y-113164285D01*
X180442857Y-113140476D01*
X180490476Y-113116666D01*
X180609523Y-113116666D01*
X180657142Y-113140476D01*
X180680952Y-113164285D01*
X180704761Y-113211904D01*
X180704761Y-113330952D01*
X180680952Y-113378571D01*
X180657142Y-113402380D01*
X180609523Y-113426190D01*
X180490476Y-113426190D01*
X180442857Y-113402380D01*
X180419047Y-113378571D01*
X181133333Y-113092857D02*
X181133333Y-113426190D01*
X181014285Y-112902380D02*
X180895238Y-113259523D01*
X181204761Y-113259523D01*
X180228571Y-112826190D02*
X180061904Y-112588095D01*
X179942857Y-112826190D02*
X179942857Y-112326190D01*
X180133333Y-112326190D01*
X180180952Y-112350000D01*
X180204761Y-112373809D01*
X180228571Y-112421428D01*
X180228571Y-112492857D01*
X180204761Y-112540476D01*
X180180952Y-112564285D01*
X180133333Y-112588095D01*
X179942857Y-112588095D01*
X180680952Y-112326190D02*
X180442857Y-112326190D01*
X180419047Y-112564285D01*
X180442857Y-112540476D01*
X180490476Y-112516666D01*
X180609523Y-112516666D01*
X180657142Y-112540476D01*
X180680952Y-112564285D01*
X180704761Y-112611904D01*
X180704761Y-112730952D01*
X180680952Y-112778571D01*
X180657142Y-112802380D01*
X180609523Y-112826190D01*
X180490476Y-112826190D01*
X180442857Y-112802380D01*
X180419047Y-112778571D01*
X180895238Y-112373809D02*
X180919047Y-112350000D01*
X180966666Y-112326190D01*
X181085714Y-112326190D01*
X181133333Y-112350000D01*
X181157142Y-112373809D01*
X181180952Y-112421428D01*
X181180952Y-112469047D01*
X181157142Y-112540476D01*
X180871428Y-112826190D01*
X181180952Y-112826190D01*
X182378571Y-95359523D02*
X182402380Y-95383333D01*
X182426190Y-95454761D01*
X182426190Y-95502380D01*
X182402380Y-95573809D01*
X182354761Y-95621428D01*
X182307142Y-95645238D01*
X182211904Y-95669047D01*
X182140476Y-95669047D01*
X182045238Y-95645238D01*
X181997619Y-95621428D01*
X181950000Y-95573809D01*
X181926190Y-95502380D01*
X181926190Y-95454761D01*
X181950000Y-95383333D01*
X181973809Y-95359523D01*
X182426190Y-94883333D02*
X182426190Y-95169047D01*
X182426190Y-95026190D02*
X181926190Y-95026190D01*
X181997619Y-95073809D01*
X182045238Y-95121428D01*
X182069047Y-95169047D01*
X182426190Y-94645238D02*
X182426190Y-94550000D01*
X182402380Y-94502380D01*
X182378571Y-94478571D01*
X182307142Y-94430952D01*
X182211904Y-94407142D01*
X182021428Y-94407142D01*
X181973809Y-94430952D01*
X181950000Y-94454761D01*
X181926190Y-94502380D01*
X181926190Y-94597619D01*
X181950000Y-94645238D01*
X181973809Y-94669047D01*
X182021428Y-94692857D01*
X182140476Y-94692857D01*
X182188095Y-94669047D01*
X182211904Y-94645238D01*
X182235714Y-94597619D01*
X182235714Y-94502380D01*
X182211904Y-94454761D01*
X182188095Y-94430952D01*
X182140476Y-94407142D01*
X181926190Y-94240476D02*
X181926190Y-93930952D01*
X182116666Y-94097619D01*
X182116666Y-94026190D01*
X182140476Y-93978571D01*
X182164285Y-93954761D01*
X182211904Y-93930952D01*
X182330952Y-93930952D01*
X182378571Y-93954761D01*
X182402380Y-93978571D01*
X182426190Y-94026190D01*
X182426190Y-94169047D01*
X182402380Y-94216666D01*
X182378571Y-94240476D01*
X187178571Y-93359523D02*
X187202380Y-93383333D01*
X187226190Y-93454761D01*
X187226190Y-93502380D01*
X187202380Y-93573809D01*
X187154761Y-93621428D01*
X187107142Y-93645238D01*
X187011904Y-93669047D01*
X186940476Y-93669047D01*
X186845238Y-93645238D01*
X186797619Y-93621428D01*
X186750000Y-93573809D01*
X186726190Y-93502380D01*
X186726190Y-93454761D01*
X186750000Y-93383333D01*
X186773809Y-93359523D01*
X187226190Y-92883333D02*
X187226190Y-93169047D01*
X187226190Y-93026190D02*
X186726190Y-93026190D01*
X186797619Y-93073809D01*
X186845238Y-93121428D01*
X186869047Y-93169047D01*
X187226190Y-92645238D02*
X187226190Y-92550000D01*
X187202380Y-92502380D01*
X187178571Y-92478571D01*
X187107142Y-92430952D01*
X187011904Y-92407142D01*
X186821428Y-92407142D01*
X186773809Y-92430952D01*
X186750000Y-92454761D01*
X186726190Y-92502380D01*
X186726190Y-92597619D01*
X186750000Y-92645238D01*
X186773809Y-92669047D01*
X186821428Y-92692857D01*
X186940476Y-92692857D01*
X186988095Y-92669047D01*
X187011904Y-92645238D01*
X187035714Y-92597619D01*
X187035714Y-92502380D01*
X187011904Y-92454761D01*
X186988095Y-92430952D01*
X186940476Y-92407142D01*
X186773809Y-92216666D02*
X186750000Y-92192857D01*
X186726190Y-92145238D01*
X186726190Y-92026190D01*
X186750000Y-91978571D01*
X186773809Y-91954761D01*
X186821428Y-91930952D01*
X186869047Y-91930952D01*
X186940476Y-91954761D01*
X187226190Y-92240476D01*
X187226190Y-91930952D01*
X183578571Y-95559523D02*
X183602380Y-95583333D01*
X183626190Y-95654761D01*
X183626190Y-95702380D01*
X183602380Y-95773809D01*
X183554761Y-95821428D01*
X183507142Y-95845238D01*
X183411904Y-95869047D01*
X183340476Y-95869047D01*
X183245238Y-95845238D01*
X183197619Y-95821428D01*
X183150000Y-95773809D01*
X183126190Y-95702380D01*
X183126190Y-95654761D01*
X183150000Y-95583333D01*
X183173809Y-95559523D01*
X183626190Y-95083333D02*
X183626190Y-95369047D01*
X183626190Y-95226190D02*
X183126190Y-95226190D01*
X183197619Y-95273809D01*
X183245238Y-95321428D01*
X183269047Y-95369047D01*
X183626190Y-94845238D02*
X183626190Y-94750000D01*
X183602380Y-94702380D01*
X183578571Y-94678571D01*
X183507142Y-94630952D01*
X183411904Y-94607142D01*
X183221428Y-94607142D01*
X183173809Y-94630952D01*
X183150000Y-94654761D01*
X183126190Y-94702380D01*
X183126190Y-94797619D01*
X183150000Y-94845238D01*
X183173809Y-94869047D01*
X183221428Y-94892857D01*
X183340476Y-94892857D01*
X183388095Y-94869047D01*
X183411904Y-94845238D01*
X183435714Y-94797619D01*
X183435714Y-94702380D01*
X183411904Y-94654761D01*
X183388095Y-94630952D01*
X183340476Y-94607142D01*
X183626190Y-94130952D02*
X183626190Y-94416666D01*
X183626190Y-94273809D02*
X183126190Y-94273809D01*
X183197619Y-94321428D01*
X183245238Y-94369047D01*
X183269047Y-94416666D01*
X185588006Y-94980340D02*
X185611815Y-95004150D01*
X185635625Y-95075578D01*
X185635625Y-95123197D01*
X185611815Y-95194626D01*
X185564196Y-95242245D01*
X185516577Y-95266055D01*
X185421339Y-95289864D01*
X185349911Y-95289864D01*
X185254673Y-95266055D01*
X185207054Y-95242245D01*
X185159435Y-95194626D01*
X185135625Y-95123197D01*
X185135625Y-95075578D01*
X185159435Y-95004150D01*
X185183244Y-94980340D01*
X185635625Y-94504150D02*
X185635625Y-94789864D01*
X185635625Y-94647007D02*
X185135625Y-94647007D01*
X185207054Y-94694626D01*
X185254673Y-94742245D01*
X185278482Y-94789864D01*
X185635625Y-94266055D02*
X185635625Y-94170817D01*
X185611815Y-94123197D01*
X185588006Y-94099388D01*
X185516577Y-94051769D01*
X185421339Y-94027959D01*
X185230863Y-94027959D01*
X185183244Y-94051769D01*
X185159435Y-94075578D01*
X185135625Y-94123197D01*
X185135625Y-94218436D01*
X185159435Y-94266055D01*
X185183244Y-94289864D01*
X185230863Y-94313674D01*
X185349911Y-94313674D01*
X185397530Y-94289864D01*
X185421339Y-94266055D01*
X185445149Y-94218436D01*
X185445149Y-94123197D01*
X185421339Y-94075578D01*
X185397530Y-94051769D01*
X185349911Y-94027959D01*
X185135625Y-93718436D02*
X185135625Y-93670817D01*
X185159435Y-93623197D01*
X185183244Y-93599388D01*
X185230863Y-93575578D01*
X185326101Y-93551769D01*
X185445149Y-93551769D01*
X185540387Y-93575578D01*
X185588006Y-93599388D01*
X185611815Y-93623197D01*
X185635625Y-93670817D01*
X185635625Y-93718436D01*
X185611815Y-93766055D01*
X185588006Y-93789864D01*
X185540387Y-93813674D01*
X185445149Y-93837483D01*
X185326101Y-93837483D01*
X185230863Y-93813674D01*
X185183244Y-93789864D01*
X185159435Y-93766055D01*
X185135625Y-93718436D01*
X185608006Y-92744292D02*
X185631815Y-92768102D01*
X185655625Y-92839530D01*
X185655625Y-92887149D01*
X185631815Y-92958578D01*
X185584196Y-93006197D01*
X185536577Y-93030007D01*
X185441339Y-93053816D01*
X185369911Y-93053816D01*
X185274673Y-93030007D01*
X185227054Y-93006197D01*
X185179435Y-92958578D01*
X185155625Y-92887149D01*
X185155625Y-92839530D01*
X185179435Y-92768102D01*
X185203244Y-92744292D01*
X185655625Y-92268102D02*
X185655625Y-92553816D01*
X185655625Y-92410959D02*
X185155625Y-92410959D01*
X185227054Y-92458578D01*
X185274673Y-92506197D01*
X185298482Y-92553816D01*
X185369911Y-91982388D02*
X185346101Y-92030007D01*
X185322292Y-92053816D01*
X185274673Y-92077626D01*
X185250863Y-92077626D01*
X185203244Y-92053816D01*
X185179435Y-92030007D01*
X185155625Y-91982388D01*
X185155625Y-91887149D01*
X185179435Y-91839530D01*
X185203244Y-91815721D01*
X185250863Y-91791911D01*
X185274673Y-91791911D01*
X185322292Y-91815721D01*
X185346101Y-91839530D01*
X185369911Y-91887149D01*
X185369911Y-91982388D01*
X185393720Y-92030007D01*
X185417530Y-92053816D01*
X185465149Y-92077626D01*
X185560387Y-92077626D01*
X185608006Y-92053816D01*
X185631815Y-92030007D01*
X185655625Y-91982388D01*
X185655625Y-91887149D01*
X185631815Y-91839530D01*
X185608006Y-91815721D01*
X185560387Y-91791911D01*
X185465149Y-91791911D01*
X185417530Y-91815721D01*
X185393720Y-91839530D01*
X185369911Y-91887149D01*
X185369911Y-91506197D02*
X185346101Y-91553816D01*
X185322292Y-91577626D01*
X185274673Y-91601435D01*
X185250863Y-91601435D01*
X185203244Y-91577626D01*
X185179435Y-91553816D01*
X185155625Y-91506197D01*
X185155625Y-91410959D01*
X185179435Y-91363340D01*
X185203244Y-91339530D01*
X185250863Y-91315721D01*
X185274673Y-91315721D01*
X185322292Y-91339530D01*
X185346101Y-91363340D01*
X185369911Y-91410959D01*
X185369911Y-91506197D01*
X185393720Y-91553816D01*
X185417530Y-91577626D01*
X185465149Y-91601435D01*
X185560387Y-91601435D01*
X185608006Y-91577626D01*
X185631815Y-91553816D01*
X185655625Y-91506197D01*
X185655625Y-91410959D01*
X185631815Y-91363340D01*
X185608006Y-91339530D01*
X185560387Y-91315721D01*
X185465149Y-91315721D01*
X185417530Y-91339530D01*
X185393720Y-91363340D01*
X185369911Y-91410959D01*
X184211537Y-96914561D02*
X184235346Y-96938371D01*
X184259156Y-97009799D01*
X184259156Y-97057418D01*
X184235346Y-97128847D01*
X184187727Y-97176466D01*
X184140108Y-97200276D01*
X184044870Y-97224085D01*
X183973442Y-97224085D01*
X183878204Y-97200276D01*
X183830585Y-97176466D01*
X183782966Y-97128847D01*
X183759156Y-97057418D01*
X183759156Y-97009799D01*
X183782966Y-96938371D01*
X183806775Y-96914561D01*
X184259156Y-96438371D02*
X184259156Y-96724085D01*
X184259156Y-96581228D02*
X183759156Y-96581228D01*
X183830585Y-96628847D01*
X183878204Y-96676466D01*
X183902013Y-96724085D01*
X183973442Y-96152657D02*
X183949632Y-96200276D01*
X183925823Y-96224085D01*
X183878204Y-96247895D01*
X183854394Y-96247895D01*
X183806775Y-96224085D01*
X183782966Y-96200276D01*
X183759156Y-96152657D01*
X183759156Y-96057418D01*
X183782966Y-96009799D01*
X183806775Y-95985990D01*
X183854394Y-95962180D01*
X183878204Y-95962180D01*
X183925823Y-95985990D01*
X183949632Y-96009799D01*
X183973442Y-96057418D01*
X183973442Y-96152657D01*
X183997251Y-96200276D01*
X184021061Y-96224085D01*
X184068680Y-96247895D01*
X184163918Y-96247895D01*
X184211537Y-96224085D01*
X184235346Y-96200276D01*
X184259156Y-96152657D01*
X184259156Y-96057418D01*
X184235346Y-96009799D01*
X184211537Y-95985990D01*
X184163918Y-95962180D01*
X184068680Y-95962180D01*
X184021061Y-95985990D01*
X183997251Y-96009799D01*
X183973442Y-96057418D01*
X183759156Y-95795514D02*
X183759156Y-95462180D01*
X184259156Y-95676466D01*
X177690476Y-89828571D02*
X177666666Y-89852380D01*
X177595238Y-89876190D01*
X177547619Y-89876190D01*
X177476190Y-89852380D01*
X177428571Y-89804761D01*
X177404761Y-89757142D01*
X177380952Y-89661904D01*
X177380952Y-89590476D01*
X177404761Y-89495238D01*
X177428571Y-89447619D01*
X177476190Y-89400000D01*
X177547619Y-89376190D01*
X177595238Y-89376190D01*
X177666666Y-89400000D01*
X177690476Y-89423809D01*
X178166666Y-89876190D02*
X177880952Y-89876190D01*
X178023809Y-89876190D02*
X178023809Y-89376190D01*
X177976190Y-89447619D01*
X177928571Y-89495238D01*
X177880952Y-89519047D01*
X178452380Y-89590476D02*
X178404761Y-89566666D01*
X178380952Y-89542857D01*
X178357142Y-89495238D01*
X178357142Y-89471428D01*
X178380952Y-89423809D01*
X178404761Y-89400000D01*
X178452380Y-89376190D01*
X178547619Y-89376190D01*
X178595238Y-89400000D01*
X178619047Y-89423809D01*
X178642857Y-89471428D01*
X178642857Y-89495238D01*
X178619047Y-89542857D01*
X178595238Y-89566666D01*
X178547619Y-89590476D01*
X178452380Y-89590476D01*
X178404761Y-89614285D01*
X178380952Y-89638095D01*
X178357142Y-89685714D01*
X178357142Y-89780952D01*
X178380952Y-89828571D01*
X178404761Y-89852380D01*
X178452380Y-89876190D01*
X178547619Y-89876190D01*
X178595238Y-89852380D01*
X178619047Y-89828571D01*
X178642857Y-89780952D01*
X178642857Y-89685714D01*
X178619047Y-89638095D01*
X178595238Y-89614285D01*
X178547619Y-89590476D01*
X179071428Y-89376190D02*
X178976190Y-89376190D01*
X178928571Y-89400000D01*
X178904761Y-89423809D01*
X178857142Y-89495238D01*
X178833333Y-89590476D01*
X178833333Y-89780952D01*
X178857142Y-89828571D01*
X178880952Y-89852380D01*
X178928571Y-89876190D01*
X179023809Y-89876190D01*
X179071428Y-89852380D01*
X179095238Y-89828571D01*
X179119047Y-89780952D01*
X179119047Y-89661904D01*
X179095238Y-89614285D01*
X179071428Y-89590476D01*
X179023809Y-89566666D01*
X178928571Y-89566666D01*
X178880952Y-89590476D01*
X178857142Y-89614285D01*
X178833333Y-89661904D01*
X182457191Y-90970665D02*
X182481000Y-90994475D01*
X182504810Y-91065903D01*
X182504810Y-91113522D01*
X182481000Y-91184951D01*
X182433381Y-91232570D01*
X182385762Y-91256380D01*
X182290524Y-91280189D01*
X182219096Y-91280189D01*
X182123858Y-91256380D01*
X182076239Y-91232570D01*
X182028620Y-91184951D01*
X182004810Y-91113522D01*
X182004810Y-91065903D01*
X182028620Y-90994475D01*
X182052429Y-90970665D01*
X182504810Y-90494475D02*
X182504810Y-90780189D01*
X182504810Y-90637332D02*
X182004810Y-90637332D01*
X182076239Y-90684951D01*
X182123858Y-90732570D01*
X182147667Y-90780189D01*
X182219096Y-90208761D02*
X182195286Y-90256380D01*
X182171477Y-90280189D01*
X182123858Y-90303999D01*
X182100048Y-90303999D01*
X182052429Y-90280189D01*
X182028620Y-90256380D01*
X182004810Y-90208761D01*
X182004810Y-90113522D01*
X182028620Y-90065903D01*
X182052429Y-90042094D01*
X182100048Y-90018284D01*
X182123858Y-90018284D01*
X182171477Y-90042094D01*
X182195286Y-90065903D01*
X182219096Y-90113522D01*
X182219096Y-90208761D01*
X182242905Y-90256380D01*
X182266715Y-90280189D01*
X182314334Y-90303999D01*
X182409572Y-90303999D01*
X182457191Y-90280189D01*
X182481000Y-90256380D01*
X182504810Y-90208761D01*
X182504810Y-90113522D01*
X182481000Y-90065903D01*
X182457191Y-90042094D01*
X182409572Y-90018284D01*
X182314334Y-90018284D01*
X182266715Y-90042094D01*
X182242905Y-90065903D01*
X182219096Y-90113522D01*
X182004810Y-89565903D02*
X182004810Y-89803999D01*
X182242905Y-89827808D01*
X182219096Y-89803999D01*
X182195286Y-89756380D01*
X182195286Y-89637332D01*
X182219096Y-89589713D01*
X182242905Y-89565903D01*
X182290524Y-89542094D01*
X182409572Y-89542094D01*
X182457191Y-89565903D01*
X182481000Y-89589713D01*
X182504810Y-89637332D01*
X182504810Y-89756380D01*
X182481000Y-89803999D01*
X182457191Y-89827808D01*
X184428571Y-90899523D02*
X184452380Y-90923333D01*
X184476190Y-90994761D01*
X184476190Y-91042380D01*
X184452380Y-91113809D01*
X184404761Y-91161428D01*
X184357142Y-91185238D01*
X184261904Y-91209047D01*
X184190476Y-91209047D01*
X184095238Y-91185238D01*
X184047619Y-91161428D01*
X184000000Y-91113809D01*
X183976190Y-91042380D01*
X183976190Y-90994761D01*
X184000000Y-90923333D01*
X184023809Y-90899523D01*
X184476190Y-90423333D02*
X184476190Y-90709047D01*
X184476190Y-90566190D02*
X183976190Y-90566190D01*
X184047619Y-90613809D01*
X184095238Y-90661428D01*
X184119047Y-90709047D01*
X184190476Y-90137619D02*
X184166666Y-90185238D01*
X184142857Y-90209047D01*
X184095238Y-90232857D01*
X184071428Y-90232857D01*
X184023809Y-90209047D01*
X184000000Y-90185238D01*
X183976190Y-90137619D01*
X183976190Y-90042380D01*
X184000000Y-89994761D01*
X184023809Y-89970952D01*
X184071428Y-89947142D01*
X184095238Y-89947142D01*
X184142857Y-89970952D01*
X184166666Y-89994761D01*
X184190476Y-90042380D01*
X184190476Y-90137619D01*
X184214285Y-90185238D01*
X184238095Y-90209047D01*
X184285714Y-90232857D01*
X184380952Y-90232857D01*
X184428571Y-90209047D01*
X184452380Y-90185238D01*
X184476190Y-90137619D01*
X184476190Y-90042380D01*
X184452380Y-89994761D01*
X184428571Y-89970952D01*
X184380952Y-89947142D01*
X184285714Y-89947142D01*
X184238095Y-89970952D01*
X184214285Y-89994761D01*
X184190476Y-90042380D01*
X184142857Y-89518571D02*
X184476190Y-89518571D01*
X183952380Y-89637619D02*
X184309523Y-89756666D01*
X184309523Y-89447142D01*
X185588571Y-91059523D02*
X185612380Y-91083333D01*
X185636190Y-91154761D01*
X185636190Y-91202380D01*
X185612380Y-91273809D01*
X185564761Y-91321428D01*
X185517142Y-91345238D01*
X185421904Y-91369047D01*
X185350476Y-91369047D01*
X185255238Y-91345238D01*
X185207619Y-91321428D01*
X185160000Y-91273809D01*
X185136190Y-91202380D01*
X185136190Y-91154761D01*
X185160000Y-91083333D01*
X185183809Y-91059523D01*
X185636190Y-90583333D02*
X185636190Y-90869047D01*
X185636190Y-90726190D02*
X185136190Y-90726190D01*
X185207619Y-90773809D01*
X185255238Y-90821428D01*
X185279047Y-90869047D01*
X185350476Y-90297619D02*
X185326666Y-90345238D01*
X185302857Y-90369047D01*
X185255238Y-90392857D01*
X185231428Y-90392857D01*
X185183809Y-90369047D01*
X185160000Y-90345238D01*
X185136190Y-90297619D01*
X185136190Y-90202380D01*
X185160000Y-90154761D01*
X185183809Y-90130952D01*
X185231428Y-90107142D01*
X185255238Y-90107142D01*
X185302857Y-90130952D01*
X185326666Y-90154761D01*
X185350476Y-90202380D01*
X185350476Y-90297619D01*
X185374285Y-90345238D01*
X185398095Y-90369047D01*
X185445714Y-90392857D01*
X185540952Y-90392857D01*
X185588571Y-90369047D01*
X185612380Y-90345238D01*
X185636190Y-90297619D01*
X185636190Y-90202380D01*
X185612380Y-90154761D01*
X185588571Y-90130952D01*
X185540952Y-90107142D01*
X185445714Y-90107142D01*
X185398095Y-90130952D01*
X185374285Y-90154761D01*
X185350476Y-90202380D01*
X185136190Y-89940476D02*
X185136190Y-89630952D01*
X185326666Y-89797619D01*
X185326666Y-89726190D01*
X185350476Y-89678571D01*
X185374285Y-89654761D01*
X185421904Y-89630952D01*
X185540952Y-89630952D01*
X185588571Y-89654761D01*
X185612380Y-89678571D01*
X185636190Y-89726190D01*
X185636190Y-89869047D01*
X185612380Y-89916666D01*
X185588571Y-89940476D01*
X183278694Y-91559523D02*
X183302503Y-91583333D01*
X183326313Y-91654761D01*
X183326313Y-91702380D01*
X183302503Y-91773809D01*
X183254884Y-91821428D01*
X183207265Y-91845238D01*
X183112027Y-91869047D01*
X183040599Y-91869047D01*
X182945361Y-91845238D01*
X182897742Y-91821428D01*
X182850123Y-91773809D01*
X182826313Y-91702380D01*
X182826313Y-91654761D01*
X182850123Y-91583333D01*
X182873932Y-91559523D01*
X183326313Y-91083333D02*
X183326313Y-91369047D01*
X183326313Y-91226190D02*
X182826313Y-91226190D01*
X182897742Y-91273809D01*
X182945361Y-91321428D01*
X182969170Y-91369047D01*
X183040599Y-90797619D02*
X183016789Y-90845238D01*
X182992980Y-90869047D01*
X182945361Y-90892857D01*
X182921551Y-90892857D01*
X182873932Y-90869047D01*
X182850123Y-90845238D01*
X182826313Y-90797619D01*
X182826313Y-90702380D01*
X182850123Y-90654761D01*
X182873932Y-90630952D01*
X182921551Y-90607142D01*
X182945361Y-90607142D01*
X182992980Y-90630952D01*
X183016789Y-90654761D01*
X183040599Y-90702380D01*
X183040599Y-90797619D01*
X183064408Y-90845238D01*
X183088218Y-90869047D01*
X183135837Y-90892857D01*
X183231075Y-90892857D01*
X183278694Y-90869047D01*
X183302503Y-90845238D01*
X183326313Y-90797619D01*
X183326313Y-90702380D01*
X183302503Y-90654761D01*
X183278694Y-90630952D01*
X183231075Y-90607142D01*
X183135837Y-90607142D01*
X183088218Y-90630952D01*
X183064408Y-90654761D01*
X183040599Y-90702380D01*
X182873932Y-90416666D02*
X182850123Y-90392857D01*
X182826313Y-90345238D01*
X182826313Y-90226190D01*
X182850123Y-90178571D01*
X182873932Y-90154761D01*
X182921551Y-90130952D01*
X182969170Y-90130952D01*
X183040599Y-90154761D01*
X183326313Y-90440476D01*
X183326313Y-90130952D01*
X183955553Y-93041838D02*
X183979362Y-93065648D01*
X184003172Y-93137076D01*
X184003172Y-93184695D01*
X183979362Y-93256124D01*
X183931743Y-93303743D01*
X183884124Y-93327553D01*
X183788886Y-93351362D01*
X183717458Y-93351362D01*
X183622220Y-93327553D01*
X183574601Y-93303743D01*
X183526982Y-93256124D01*
X183503172Y-93184695D01*
X183503172Y-93137076D01*
X183526982Y-93065648D01*
X183550791Y-93041838D01*
X184003172Y-92565648D02*
X184003172Y-92851362D01*
X184003172Y-92708505D02*
X183503172Y-92708505D01*
X183574601Y-92756124D01*
X183622220Y-92803743D01*
X183646029Y-92851362D01*
X183717458Y-92279934D02*
X183693648Y-92327553D01*
X183669839Y-92351362D01*
X183622220Y-92375172D01*
X183598410Y-92375172D01*
X183550791Y-92351362D01*
X183526982Y-92327553D01*
X183503172Y-92279934D01*
X183503172Y-92184695D01*
X183526982Y-92137076D01*
X183550791Y-92113267D01*
X183598410Y-92089457D01*
X183622220Y-92089457D01*
X183669839Y-92113267D01*
X183693648Y-92137076D01*
X183717458Y-92184695D01*
X183717458Y-92279934D01*
X183741267Y-92327553D01*
X183765077Y-92351362D01*
X183812696Y-92375172D01*
X183907934Y-92375172D01*
X183955553Y-92351362D01*
X183979362Y-92327553D01*
X184003172Y-92279934D01*
X184003172Y-92184695D01*
X183979362Y-92137076D01*
X183955553Y-92113267D01*
X183907934Y-92089457D01*
X183812696Y-92089457D01*
X183765077Y-92113267D01*
X183741267Y-92137076D01*
X183717458Y-92184695D01*
X184003172Y-91613267D02*
X184003172Y-91898981D01*
X184003172Y-91756124D02*
X183503172Y-91756124D01*
X183574601Y-91803743D01*
X183622220Y-91851362D01*
X183646029Y-91898981D01*
X181578571Y-95359523D02*
X181602380Y-95383333D01*
X181626190Y-95454761D01*
X181626190Y-95502380D01*
X181602380Y-95573809D01*
X181554761Y-95621428D01*
X181507142Y-95645238D01*
X181411904Y-95669047D01*
X181340476Y-95669047D01*
X181245238Y-95645238D01*
X181197619Y-95621428D01*
X181150000Y-95573809D01*
X181126190Y-95502380D01*
X181126190Y-95454761D01*
X181150000Y-95383333D01*
X181173809Y-95359523D01*
X181626190Y-94883333D02*
X181626190Y-95169047D01*
X181626190Y-95026190D02*
X181126190Y-95026190D01*
X181197619Y-95073809D01*
X181245238Y-95121428D01*
X181269047Y-95169047D01*
X181340476Y-94597619D02*
X181316666Y-94645238D01*
X181292857Y-94669047D01*
X181245238Y-94692857D01*
X181221428Y-94692857D01*
X181173809Y-94669047D01*
X181150000Y-94645238D01*
X181126190Y-94597619D01*
X181126190Y-94502380D01*
X181150000Y-94454761D01*
X181173809Y-94430952D01*
X181221428Y-94407142D01*
X181245238Y-94407142D01*
X181292857Y-94430952D01*
X181316666Y-94454761D01*
X181340476Y-94502380D01*
X181340476Y-94597619D01*
X181364285Y-94645238D01*
X181388095Y-94669047D01*
X181435714Y-94692857D01*
X181530952Y-94692857D01*
X181578571Y-94669047D01*
X181602380Y-94645238D01*
X181626190Y-94597619D01*
X181626190Y-94502380D01*
X181602380Y-94454761D01*
X181578571Y-94430952D01*
X181530952Y-94407142D01*
X181435714Y-94407142D01*
X181388095Y-94430952D01*
X181364285Y-94454761D01*
X181340476Y-94502380D01*
X181126190Y-94097619D02*
X181126190Y-94050000D01*
X181150000Y-94002380D01*
X181173809Y-93978571D01*
X181221428Y-93954761D01*
X181316666Y-93930952D01*
X181435714Y-93930952D01*
X181530952Y-93954761D01*
X181578571Y-93978571D01*
X181602380Y-94002380D01*
X181626190Y-94050000D01*
X181626190Y-94097619D01*
X181602380Y-94145238D01*
X181578571Y-94169047D01*
X181530952Y-94192857D01*
X181435714Y-94216666D01*
X181316666Y-94216666D01*
X181221428Y-94192857D01*
X181173809Y-94169047D01*
X181150000Y-94145238D01*
X181126190Y-94097619D01*
X181603691Y-91060939D02*
X181627500Y-91084749D01*
X181651310Y-91156177D01*
X181651310Y-91203796D01*
X181627500Y-91275225D01*
X181579881Y-91322844D01*
X181532262Y-91346654D01*
X181437024Y-91370463D01*
X181365596Y-91370463D01*
X181270358Y-91346654D01*
X181222739Y-91322844D01*
X181175120Y-91275225D01*
X181151310Y-91203796D01*
X181151310Y-91156177D01*
X181175120Y-91084749D01*
X181198929Y-91060939D01*
X181651310Y-90584749D02*
X181651310Y-90870463D01*
X181651310Y-90727606D02*
X181151310Y-90727606D01*
X181222739Y-90775225D01*
X181270358Y-90822844D01*
X181294167Y-90870463D01*
X181151310Y-90418082D02*
X181151310Y-90084749D01*
X181651310Y-90299035D01*
X181651310Y-89870463D02*
X181651310Y-89775225D01*
X181627500Y-89727606D01*
X181603691Y-89703796D01*
X181532262Y-89656177D01*
X181437024Y-89632368D01*
X181246548Y-89632368D01*
X181198929Y-89656177D01*
X181175120Y-89679987D01*
X181151310Y-89727606D01*
X181151310Y-89822844D01*
X181175120Y-89870463D01*
X181198929Y-89894273D01*
X181246548Y-89918082D01*
X181365596Y-89918082D01*
X181413215Y-89894273D01*
X181437024Y-89870463D01*
X181460834Y-89822844D01*
X181460834Y-89727606D01*
X181437024Y-89679987D01*
X181413215Y-89656177D01*
X181365596Y-89632368D01*
X165080952Y-96576190D02*
X165080952Y-96980952D01*
X165104761Y-97028571D01*
X165128571Y-97052380D01*
X165176190Y-97076190D01*
X165271428Y-97076190D01*
X165319047Y-97052380D01*
X165342857Y-97028571D01*
X165366666Y-96980952D01*
X165366666Y-96576190D01*
X165866666Y-97076190D02*
X165580952Y-97076190D01*
X165723809Y-97076190D02*
X165723809Y-96576190D01*
X165676190Y-96647619D01*
X165628571Y-96695238D01*
X165580952Y-96719047D01*
X166342857Y-97076190D02*
X166057142Y-97076190D01*
X166200000Y-97076190D02*
X166200000Y-96576190D01*
X166152380Y-96647619D01*
X166104761Y-96695238D01*
X166057142Y-96719047D01*
X169430952Y-96626190D02*
X169430952Y-97030952D01*
X169454761Y-97078571D01*
X169478571Y-97102380D01*
X169526190Y-97126190D01*
X169621428Y-97126190D01*
X169669047Y-97102380D01*
X169692857Y-97078571D01*
X169716666Y-97030952D01*
X169716666Y-96626190D01*
X170216666Y-97126190D02*
X169930952Y-97126190D01*
X170073809Y-97126190D02*
X170073809Y-96626190D01*
X170026190Y-96697619D01*
X169978571Y-96745238D01*
X169930952Y-96769047D01*
X170526190Y-96626190D02*
X170573809Y-96626190D01*
X170621428Y-96650000D01*
X170645238Y-96673809D01*
X170669047Y-96721428D01*
X170692857Y-96816666D01*
X170692857Y-96935714D01*
X170669047Y-97030952D01*
X170645238Y-97078571D01*
X170621428Y-97102380D01*
X170573809Y-97126190D01*
X170526190Y-97126190D01*
X170478571Y-97102380D01*
X170454761Y-97078571D01*
X170430952Y-97030952D01*
X170407142Y-96935714D01*
X170407142Y-96816666D01*
X170430952Y-96721428D01*
X170454761Y-96673809D01*
X170478571Y-96650000D01*
X170526190Y-96626190D01*
X203069047Y-100376190D02*
X203069047Y-100780952D01*
X203092857Y-100828571D01*
X203116666Y-100852380D01*
X203164285Y-100876190D01*
X203259523Y-100876190D01*
X203307142Y-100852380D01*
X203330952Y-100828571D01*
X203354761Y-100780952D01*
X203354761Y-100376190D01*
X203616666Y-100876190D02*
X203711904Y-100876190D01*
X203759523Y-100852380D01*
X203783333Y-100828571D01*
X203830952Y-100757142D01*
X203854761Y-100661904D01*
X203854761Y-100471428D01*
X203830952Y-100423809D01*
X203807142Y-100400000D01*
X203759523Y-100376190D01*
X203664285Y-100376190D01*
X203616666Y-100400000D01*
X203592857Y-100423809D01*
X203569047Y-100471428D01*
X203569047Y-100590476D01*
X203592857Y-100638095D01*
X203616666Y-100661904D01*
X203664285Y-100685714D01*
X203759523Y-100685714D01*
X203807142Y-100661904D01*
X203830952Y-100638095D01*
X203854761Y-100590476D01*
X197970476Y-99078571D02*
X197946666Y-99102380D01*
X197875238Y-99126190D01*
X197827619Y-99126190D01*
X197756190Y-99102380D01*
X197708571Y-99054761D01*
X197684761Y-99007142D01*
X197660952Y-98911904D01*
X197660952Y-98840476D01*
X197684761Y-98745238D01*
X197708571Y-98697619D01*
X197756190Y-98650000D01*
X197827619Y-98626190D01*
X197875238Y-98626190D01*
X197946666Y-98650000D01*
X197970476Y-98673809D01*
X198446666Y-99126190D02*
X198160952Y-99126190D01*
X198303809Y-99126190D02*
X198303809Y-98626190D01*
X198256190Y-98697619D01*
X198208571Y-98745238D01*
X198160952Y-98769047D01*
X198613333Y-98626190D02*
X198946666Y-98626190D01*
X198732380Y-99126190D01*
X199089523Y-98626190D02*
X199422857Y-98626190D01*
X199208571Y-99126190D01*
X205140476Y-102178571D02*
X205116666Y-102202380D01*
X205045238Y-102226190D01*
X204997619Y-102226190D01*
X204926190Y-102202380D01*
X204878571Y-102154761D01*
X204854761Y-102107142D01*
X204830952Y-102011904D01*
X204830952Y-101940476D01*
X204854761Y-101845238D01*
X204878571Y-101797619D01*
X204926190Y-101750000D01*
X204997619Y-101726190D01*
X205045238Y-101726190D01*
X205116666Y-101750000D01*
X205140476Y-101773809D01*
X205616666Y-102226190D02*
X205330952Y-102226190D01*
X205473809Y-102226190D02*
X205473809Y-101726190D01*
X205426190Y-101797619D01*
X205378571Y-101845238D01*
X205330952Y-101869047D01*
X205783333Y-101726190D02*
X206116666Y-101726190D01*
X205902380Y-102226190D01*
X206521428Y-101726190D02*
X206426190Y-101726190D01*
X206378571Y-101750000D01*
X206354761Y-101773809D01*
X206307142Y-101845238D01*
X206283333Y-101940476D01*
X206283333Y-102130952D01*
X206307142Y-102178571D01*
X206330952Y-102202380D01*
X206378571Y-102226190D01*
X206473809Y-102226190D01*
X206521428Y-102202380D01*
X206545238Y-102178571D01*
X206569047Y-102130952D01*
X206569047Y-102011904D01*
X206545238Y-101964285D01*
X206521428Y-101940476D01*
X206473809Y-101916666D01*
X206378571Y-101916666D01*
X206330952Y-101940476D01*
X206307142Y-101964285D01*
X206283333Y-102011904D01*
X203703571Y-99176190D02*
X203536904Y-98938095D01*
X203417857Y-99176190D02*
X203417857Y-98676190D01*
X203608333Y-98676190D01*
X203655952Y-98700000D01*
X203679761Y-98723809D01*
X203703571Y-98771428D01*
X203703571Y-98842857D01*
X203679761Y-98890476D01*
X203655952Y-98914285D01*
X203608333Y-98938095D01*
X203417857Y-98938095D01*
X204132142Y-98842857D02*
X204132142Y-99176190D01*
X204013095Y-98652380D02*
X203894047Y-99009523D01*
X204203571Y-99009523D01*
X204489285Y-98676190D02*
X204536904Y-98676190D01*
X204584523Y-98700000D01*
X204608333Y-98723809D01*
X204632142Y-98771428D01*
X204655952Y-98866666D01*
X204655952Y-98985714D01*
X204632142Y-99080952D01*
X204608333Y-99128571D01*
X204584523Y-99152380D01*
X204536904Y-99176190D01*
X204489285Y-99176190D01*
X204441666Y-99152380D01*
X204417857Y-99128571D01*
X204394047Y-99080952D01*
X204370238Y-98985714D01*
X204370238Y-98866666D01*
X204394047Y-98771428D01*
X204417857Y-98723809D01*
X204441666Y-98700000D01*
X204489285Y-98676190D01*
X205153571Y-101601190D02*
X204986904Y-101363095D01*
X204867857Y-101601190D02*
X204867857Y-101101190D01*
X205058333Y-101101190D01*
X205105952Y-101125000D01*
X205129761Y-101148809D01*
X205153571Y-101196428D01*
X205153571Y-101267857D01*
X205129761Y-101315476D01*
X205105952Y-101339285D01*
X205058333Y-101363095D01*
X204867857Y-101363095D01*
X205320238Y-101101190D02*
X205629761Y-101101190D01*
X205463095Y-101291666D01*
X205534523Y-101291666D01*
X205582142Y-101315476D01*
X205605952Y-101339285D01*
X205629761Y-101386904D01*
X205629761Y-101505952D01*
X205605952Y-101553571D01*
X205582142Y-101577380D01*
X205534523Y-101601190D01*
X205391666Y-101601190D01*
X205344047Y-101577380D01*
X205320238Y-101553571D01*
X205867857Y-101601190D02*
X205963095Y-101601190D01*
X206010714Y-101577380D01*
X206034523Y-101553571D01*
X206082142Y-101482142D01*
X206105952Y-101386904D01*
X206105952Y-101196428D01*
X206082142Y-101148809D01*
X206058333Y-101125000D01*
X206010714Y-101101190D01*
X205915476Y-101101190D01*
X205867857Y-101125000D01*
X205844047Y-101148809D01*
X205820238Y-101196428D01*
X205820238Y-101315476D01*
X205844047Y-101363095D01*
X205867857Y-101386904D01*
X205915476Y-101410714D01*
X206010714Y-101410714D01*
X206058333Y-101386904D01*
X206082142Y-101363095D01*
X206105952Y-101315476D01*
X199914285Y-94516666D02*
X199914285Y-94683333D01*
X200176190Y-94683333D02*
X199676190Y-94683333D01*
X199676190Y-94445238D01*
X200176190Y-93992857D02*
X200176190Y-94278571D01*
X200176190Y-94135714D02*
X199676190Y-94135714D01*
X199747619Y-94183333D01*
X199795238Y-94230952D01*
X199819047Y-94278571D01*
X199290476Y-105128571D02*
X199266666Y-105152380D01*
X199195238Y-105176190D01*
X199147619Y-105176190D01*
X199076190Y-105152380D01*
X199028571Y-105104761D01*
X199004761Y-105057142D01*
X198980952Y-104961904D01*
X198980952Y-104890476D01*
X199004761Y-104795238D01*
X199028571Y-104747619D01*
X199076190Y-104700000D01*
X199147619Y-104676190D01*
X199195238Y-104676190D01*
X199266666Y-104700000D01*
X199290476Y-104723809D01*
X199766666Y-105176190D02*
X199480952Y-105176190D01*
X199623809Y-105176190D02*
X199623809Y-104676190D01*
X199576190Y-104747619D01*
X199528571Y-104795238D01*
X199480952Y-104819047D01*
X199933333Y-104676190D02*
X200266666Y-104676190D01*
X200052380Y-105176190D01*
X200695238Y-104676190D02*
X200457142Y-104676190D01*
X200433333Y-104914285D01*
X200457142Y-104890476D01*
X200504761Y-104866666D01*
X200623809Y-104866666D01*
X200671428Y-104890476D01*
X200695238Y-104914285D01*
X200719047Y-104961904D01*
X200719047Y-105080952D01*
X200695238Y-105128571D01*
X200671428Y-105152380D01*
X200623809Y-105176190D01*
X200504761Y-105176190D01*
X200457142Y-105152380D01*
X200433333Y-105128571D01*
X205340476Y-99903571D02*
X205316666Y-99927380D01*
X205245238Y-99951190D01*
X205197619Y-99951190D01*
X205126190Y-99927380D01*
X205078571Y-99879761D01*
X205054761Y-99832142D01*
X205030952Y-99736904D01*
X205030952Y-99665476D01*
X205054761Y-99570238D01*
X205078571Y-99522619D01*
X205126190Y-99475000D01*
X205197619Y-99451190D01*
X205245238Y-99451190D01*
X205316666Y-99475000D01*
X205340476Y-99498809D01*
X205816666Y-99951190D02*
X205530952Y-99951190D01*
X205673809Y-99951190D02*
X205673809Y-99451190D01*
X205626190Y-99522619D01*
X205578571Y-99570238D01*
X205530952Y-99594047D01*
X205983333Y-99451190D02*
X206316666Y-99451190D01*
X206102380Y-99951190D01*
X206721428Y-99617857D02*
X206721428Y-99951190D01*
X206602380Y-99427380D02*
X206483333Y-99784523D01*
X206792857Y-99784523D01*
X203778571Y-93009523D02*
X203802380Y-93033333D01*
X203826190Y-93104761D01*
X203826190Y-93152380D01*
X203802380Y-93223809D01*
X203754761Y-93271428D01*
X203707142Y-93295238D01*
X203611904Y-93319047D01*
X203540476Y-93319047D01*
X203445238Y-93295238D01*
X203397619Y-93271428D01*
X203350000Y-93223809D01*
X203326190Y-93152380D01*
X203326190Y-93104761D01*
X203350000Y-93033333D01*
X203373809Y-93009523D01*
X203826190Y-92533333D02*
X203826190Y-92819047D01*
X203826190Y-92676190D02*
X203326190Y-92676190D01*
X203397619Y-92723809D01*
X203445238Y-92771428D01*
X203469047Y-92819047D01*
X203326190Y-92366666D02*
X203326190Y-92033333D01*
X203826190Y-92247619D01*
X203326190Y-91890476D02*
X203326190Y-91580952D01*
X203516666Y-91747619D01*
X203516666Y-91676190D01*
X203540476Y-91628571D01*
X203564285Y-91604761D01*
X203611904Y-91580952D01*
X203730952Y-91580952D01*
X203778571Y-91604761D01*
X203802380Y-91628571D01*
X203826190Y-91676190D01*
X203826190Y-91819047D01*
X203802380Y-91866666D01*
X203778571Y-91890476D01*
X204628571Y-97459523D02*
X204652380Y-97483333D01*
X204676190Y-97554761D01*
X204676190Y-97602380D01*
X204652380Y-97673809D01*
X204604761Y-97721428D01*
X204557142Y-97745238D01*
X204461904Y-97769047D01*
X204390476Y-97769047D01*
X204295238Y-97745238D01*
X204247619Y-97721428D01*
X204200000Y-97673809D01*
X204176190Y-97602380D01*
X204176190Y-97554761D01*
X204200000Y-97483333D01*
X204223809Y-97459523D01*
X204676190Y-96983333D02*
X204676190Y-97269047D01*
X204676190Y-97126190D02*
X204176190Y-97126190D01*
X204247619Y-97173809D01*
X204295238Y-97221428D01*
X204319047Y-97269047D01*
X204176190Y-96816666D02*
X204176190Y-96483333D01*
X204676190Y-96697619D01*
X204223809Y-96316666D02*
X204200000Y-96292857D01*
X204176190Y-96245238D01*
X204176190Y-96126190D01*
X204200000Y-96078571D01*
X204223809Y-96054761D01*
X204271428Y-96030952D01*
X204319047Y-96030952D01*
X204390476Y-96054761D01*
X204676190Y-96340476D01*
X204676190Y-96030952D01*
X202828571Y-93009523D02*
X202852380Y-93033333D01*
X202876190Y-93104761D01*
X202876190Y-93152380D01*
X202852380Y-93223809D01*
X202804761Y-93271428D01*
X202757142Y-93295238D01*
X202661904Y-93319047D01*
X202590476Y-93319047D01*
X202495238Y-93295238D01*
X202447619Y-93271428D01*
X202400000Y-93223809D01*
X202376190Y-93152380D01*
X202376190Y-93104761D01*
X202400000Y-93033333D01*
X202423809Y-93009523D01*
X202876190Y-92533333D02*
X202876190Y-92819047D01*
X202876190Y-92676190D02*
X202376190Y-92676190D01*
X202447619Y-92723809D01*
X202495238Y-92771428D01*
X202519047Y-92819047D01*
X202376190Y-92366666D02*
X202376190Y-92033333D01*
X202876190Y-92247619D01*
X202876190Y-91580952D02*
X202876190Y-91866666D01*
X202876190Y-91723809D02*
X202376190Y-91723809D01*
X202447619Y-91771428D01*
X202495238Y-91819047D01*
X202519047Y-91866666D01*
X200128571Y-97509523D02*
X200152380Y-97533333D01*
X200176190Y-97604761D01*
X200176190Y-97652380D01*
X200152380Y-97723809D01*
X200104761Y-97771428D01*
X200057142Y-97795238D01*
X199961904Y-97819047D01*
X199890476Y-97819047D01*
X199795238Y-97795238D01*
X199747619Y-97771428D01*
X199700000Y-97723809D01*
X199676190Y-97652380D01*
X199676190Y-97604761D01*
X199700000Y-97533333D01*
X199723809Y-97509523D01*
X200176190Y-97033333D02*
X200176190Y-97319047D01*
X200176190Y-97176190D02*
X199676190Y-97176190D01*
X199747619Y-97223809D01*
X199795238Y-97271428D01*
X199819047Y-97319047D01*
X199676190Y-96866666D02*
X199676190Y-96533333D01*
X200176190Y-96747619D01*
X199676190Y-96247619D02*
X199676190Y-96200000D01*
X199700000Y-96152380D01*
X199723809Y-96128571D01*
X199771428Y-96104761D01*
X199866666Y-96080952D01*
X199985714Y-96080952D01*
X200080952Y-96104761D01*
X200128571Y-96128571D01*
X200152380Y-96152380D01*
X200176190Y-96200000D01*
X200176190Y-96247619D01*
X200152380Y-96295238D01*
X200128571Y-96319047D01*
X200080952Y-96342857D01*
X199985714Y-96366666D01*
X199866666Y-96366666D01*
X199771428Y-96342857D01*
X199723809Y-96319047D01*
X199700000Y-96295238D01*
X199676190Y-96247619D01*
X198540476Y-101278571D02*
X198516666Y-101302380D01*
X198445238Y-101326190D01*
X198397619Y-101326190D01*
X198326190Y-101302380D01*
X198278571Y-101254761D01*
X198254761Y-101207142D01*
X198230952Y-101111904D01*
X198230952Y-101040476D01*
X198254761Y-100945238D01*
X198278571Y-100897619D01*
X198326190Y-100850000D01*
X198397619Y-100826190D01*
X198445238Y-100826190D01*
X198516666Y-100850000D01*
X198540476Y-100873809D01*
X199016666Y-101326190D02*
X198730952Y-101326190D01*
X198873809Y-101326190D02*
X198873809Y-100826190D01*
X198826190Y-100897619D01*
X198778571Y-100945238D01*
X198730952Y-100969047D01*
X199445238Y-100826190D02*
X199350000Y-100826190D01*
X199302380Y-100850000D01*
X199278571Y-100873809D01*
X199230952Y-100945238D01*
X199207142Y-101040476D01*
X199207142Y-101230952D01*
X199230952Y-101278571D01*
X199254761Y-101302380D01*
X199302380Y-101326190D01*
X199397619Y-101326190D01*
X199445238Y-101302380D01*
X199469047Y-101278571D01*
X199492857Y-101230952D01*
X199492857Y-101111904D01*
X199469047Y-101064285D01*
X199445238Y-101040476D01*
X199397619Y-101016666D01*
X199302380Y-101016666D01*
X199254761Y-101040476D01*
X199230952Y-101064285D01*
X199207142Y-101111904D01*
X199730952Y-101326190D02*
X199826190Y-101326190D01*
X199873809Y-101302380D01*
X199897619Y-101278571D01*
X199945238Y-101207142D01*
X199969047Y-101111904D01*
X199969047Y-100921428D01*
X199945238Y-100873809D01*
X199921428Y-100850000D01*
X199873809Y-100826190D01*
X199778571Y-100826190D01*
X199730952Y-100850000D01*
X199707142Y-100873809D01*
X199683333Y-100921428D01*
X199683333Y-101040476D01*
X199707142Y-101088095D01*
X199730952Y-101111904D01*
X199778571Y-101135714D01*
X199873809Y-101135714D01*
X199921428Y-101111904D01*
X199945238Y-101088095D01*
X199969047Y-101040476D01*
X200878571Y-103809523D02*
X200902380Y-103833333D01*
X200926190Y-103904761D01*
X200926190Y-103952380D01*
X200902380Y-104023809D01*
X200854761Y-104071428D01*
X200807142Y-104095238D01*
X200711904Y-104119047D01*
X200640476Y-104119047D01*
X200545238Y-104095238D01*
X200497619Y-104071428D01*
X200450000Y-104023809D01*
X200426190Y-103952380D01*
X200426190Y-103904761D01*
X200450000Y-103833333D01*
X200473809Y-103809523D01*
X200926190Y-103333333D02*
X200926190Y-103619047D01*
X200926190Y-103476190D02*
X200426190Y-103476190D01*
X200497619Y-103523809D01*
X200545238Y-103571428D01*
X200569047Y-103619047D01*
X200426190Y-102904761D02*
X200426190Y-103000000D01*
X200450000Y-103047619D01*
X200473809Y-103071428D01*
X200545238Y-103119047D01*
X200640476Y-103142857D01*
X200830952Y-103142857D01*
X200878571Y-103119047D01*
X200902380Y-103095238D01*
X200926190Y-103047619D01*
X200926190Y-102952380D01*
X200902380Y-102904761D01*
X200878571Y-102880952D01*
X200830952Y-102857142D01*
X200711904Y-102857142D01*
X200664285Y-102880952D01*
X200640476Y-102904761D01*
X200616666Y-102952380D01*
X200616666Y-103047619D01*
X200640476Y-103095238D01*
X200664285Y-103119047D01*
X200711904Y-103142857D01*
X200640476Y-102571428D02*
X200616666Y-102619047D01*
X200592857Y-102642857D01*
X200545238Y-102666666D01*
X200521428Y-102666666D01*
X200473809Y-102642857D01*
X200450000Y-102619047D01*
X200426190Y-102571428D01*
X200426190Y-102476190D01*
X200450000Y-102428571D01*
X200473809Y-102404761D01*
X200521428Y-102380952D01*
X200545238Y-102380952D01*
X200592857Y-102404761D01*
X200616666Y-102428571D01*
X200640476Y-102476190D01*
X200640476Y-102571428D01*
X200664285Y-102619047D01*
X200688095Y-102642857D01*
X200735714Y-102666666D01*
X200830952Y-102666666D01*
X200878571Y-102642857D01*
X200902380Y-102619047D01*
X200926190Y-102571428D01*
X200926190Y-102476190D01*
X200902380Y-102428571D01*
X200878571Y-102404761D01*
X200830952Y-102380952D01*
X200735714Y-102380952D01*
X200688095Y-102404761D01*
X200664285Y-102428571D01*
X200640476Y-102476190D01*
X158569047Y-112126190D02*
X158569047Y-112530952D01*
X158592857Y-112578571D01*
X158616666Y-112602380D01*
X158664285Y-112626190D01*
X158759523Y-112626190D01*
X158807142Y-112602380D01*
X158830952Y-112578571D01*
X158854761Y-112530952D01*
X158854761Y-112126190D01*
X159307142Y-112292857D02*
X159307142Y-112626190D01*
X159188095Y-112102380D02*
X159069047Y-112459523D01*
X159378571Y-112459523D01*
X195619047Y-119826190D02*
X195619047Y-120230952D01*
X195642857Y-120278571D01*
X195666666Y-120302380D01*
X195714285Y-120326190D01*
X195809523Y-120326190D01*
X195857142Y-120302380D01*
X195880952Y-120278571D01*
X195904761Y-120230952D01*
X195904761Y-119826190D01*
X196380952Y-119826190D02*
X196142857Y-119826190D01*
X196119047Y-120064285D01*
X196142857Y-120040476D01*
X196190476Y-120016666D01*
X196309523Y-120016666D01*
X196357142Y-120040476D01*
X196380952Y-120064285D01*
X196404761Y-120111904D01*
X196404761Y-120230952D01*
X196380952Y-120278571D01*
X196357142Y-120302380D01*
X196309523Y-120326190D01*
X196190476Y-120326190D01*
X196142857Y-120302380D01*
X196119047Y-120278571D01*
X192238095Y-109538095D02*
X192476190Y-109538095D01*
X191976190Y-109704761D02*
X192238095Y-109538095D01*
X191976190Y-109371428D01*
X192023809Y-109228571D02*
X192000000Y-109204761D01*
X191976190Y-109157142D01*
X191976190Y-109038095D01*
X192000000Y-108990476D01*
X192023809Y-108966666D01*
X192071428Y-108942857D01*
X192119047Y-108942857D01*
X192190476Y-108966666D01*
X192476190Y-109252380D01*
X192476190Y-108942857D01*
X190726190Y-106971428D02*
X190488095Y-107138095D01*
X190726190Y-107257142D02*
X190226190Y-107257142D01*
X190226190Y-107066666D01*
X190250000Y-107019047D01*
X190273809Y-106995238D01*
X190321428Y-106971428D01*
X190392857Y-106971428D01*
X190440476Y-106995238D01*
X190464285Y-107019047D01*
X190488095Y-107066666D01*
X190488095Y-107257142D01*
X190226190Y-106804761D02*
X190226190Y-106495238D01*
X190416666Y-106661904D01*
X190416666Y-106590476D01*
X190440476Y-106542857D01*
X190464285Y-106519047D01*
X190511904Y-106495238D01*
X190630952Y-106495238D01*
X190678571Y-106519047D01*
X190702380Y-106542857D01*
X190726190Y-106590476D01*
X190726190Y-106733333D01*
X190702380Y-106780952D01*
X190678571Y-106804761D01*
X190226190Y-106042857D02*
X190226190Y-106280952D01*
X190464285Y-106304761D01*
X190440476Y-106280952D01*
X190416666Y-106233333D01*
X190416666Y-106114285D01*
X190440476Y-106066666D01*
X190464285Y-106042857D01*
X190511904Y-106019047D01*
X190630952Y-106019047D01*
X190678571Y-106042857D01*
X190702380Y-106066666D01*
X190726190Y-106114285D01*
X190726190Y-106233333D01*
X190702380Y-106280952D01*
X190678571Y-106304761D01*
X190678571Y-109059523D02*
X190702380Y-109083333D01*
X190726190Y-109154761D01*
X190726190Y-109202380D01*
X190702380Y-109273809D01*
X190654761Y-109321428D01*
X190607142Y-109345238D01*
X190511904Y-109369047D01*
X190440476Y-109369047D01*
X190345238Y-109345238D01*
X190297619Y-109321428D01*
X190250000Y-109273809D01*
X190226190Y-109202380D01*
X190226190Y-109154761D01*
X190250000Y-109083333D01*
X190273809Y-109059523D01*
X190726190Y-108583333D02*
X190726190Y-108869047D01*
X190726190Y-108726190D02*
X190226190Y-108726190D01*
X190297619Y-108773809D01*
X190345238Y-108821428D01*
X190369047Y-108869047D01*
X190226190Y-108154761D02*
X190226190Y-108250000D01*
X190250000Y-108297619D01*
X190273809Y-108321428D01*
X190345238Y-108369047D01*
X190440476Y-108392857D01*
X190630952Y-108392857D01*
X190678571Y-108369047D01*
X190702380Y-108345238D01*
X190726190Y-108297619D01*
X190726190Y-108202380D01*
X190702380Y-108154761D01*
X190678571Y-108130952D01*
X190630952Y-108107142D01*
X190511904Y-108107142D01*
X190464285Y-108130952D01*
X190440476Y-108154761D01*
X190416666Y-108202380D01*
X190416666Y-108297619D01*
X190440476Y-108345238D01*
X190464285Y-108369047D01*
X190511904Y-108392857D01*
X190226190Y-107940476D02*
X190226190Y-107607142D01*
X190726190Y-107821428D01*
X191490476Y-105758571D02*
X191466666Y-105782380D01*
X191395238Y-105806190D01*
X191347619Y-105806190D01*
X191276190Y-105782380D01*
X191228571Y-105734761D01*
X191204761Y-105687142D01*
X191180952Y-105591904D01*
X191180952Y-105520476D01*
X191204761Y-105425238D01*
X191228571Y-105377619D01*
X191276190Y-105330000D01*
X191347619Y-105306190D01*
X191395238Y-105306190D01*
X191466666Y-105330000D01*
X191490476Y-105353809D01*
X191966666Y-105806190D02*
X191680952Y-105806190D01*
X191823809Y-105806190D02*
X191823809Y-105306190D01*
X191776190Y-105377619D01*
X191728571Y-105425238D01*
X191680952Y-105449047D01*
X192395238Y-105306190D02*
X192300000Y-105306190D01*
X192252380Y-105330000D01*
X192228571Y-105353809D01*
X192180952Y-105425238D01*
X192157142Y-105520476D01*
X192157142Y-105710952D01*
X192180952Y-105758571D01*
X192204761Y-105782380D01*
X192252380Y-105806190D01*
X192347619Y-105806190D01*
X192395238Y-105782380D01*
X192419047Y-105758571D01*
X192442857Y-105710952D01*
X192442857Y-105591904D01*
X192419047Y-105544285D01*
X192395238Y-105520476D01*
X192347619Y-105496666D01*
X192252380Y-105496666D01*
X192204761Y-105520476D01*
X192180952Y-105544285D01*
X192157142Y-105591904D01*
X192871428Y-105306190D02*
X192776190Y-105306190D01*
X192728571Y-105330000D01*
X192704761Y-105353809D01*
X192657142Y-105425238D01*
X192633333Y-105520476D01*
X192633333Y-105710952D01*
X192657142Y-105758571D01*
X192680952Y-105782380D01*
X192728571Y-105806190D01*
X192823809Y-105806190D01*
X192871428Y-105782380D01*
X192895238Y-105758571D01*
X192919047Y-105710952D01*
X192919047Y-105591904D01*
X192895238Y-105544285D01*
X192871428Y-105520476D01*
X192823809Y-105496666D01*
X192728571Y-105496666D01*
X192680952Y-105520476D01*
X192657142Y-105544285D01*
X192633333Y-105591904D01*
X191869047Y-112226190D02*
X191869047Y-112630952D01*
X191892857Y-112678571D01*
X191916666Y-112702380D01*
X191964285Y-112726190D01*
X192059523Y-112726190D01*
X192107142Y-112702380D01*
X192130952Y-112678571D01*
X192154761Y-112630952D01*
X192154761Y-112226190D01*
X192464285Y-112440476D02*
X192416666Y-112416666D01*
X192392857Y-112392857D01*
X192369047Y-112345238D01*
X192369047Y-112321428D01*
X192392857Y-112273809D01*
X192416666Y-112250000D01*
X192464285Y-112226190D01*
X192559523Y-112226190D01*
X192607142Y-112250000D01*
X192630952Y-112273809D01*
X192654761Y-112321428D01*
X192654761Y-112345238D01*
X192630952Y-112392857D01*
X192607142Y-112416666D01*
X192559523Y-112440476D01*
X192464285Y-112440476D01*
X192416666Y-112464285D01*
X192392857Y-112488095D01*
X192369047Y-112535714D01*
X192369047Y-112630952D01*
X192392857Y-112678571D01*
X192416666Y-112702380D01*
X192464285Y-112726190D01*
X192559523Y-112726190D01*
X192607142Y-112702380D01*
X192630952Y-112678571D01*
X192654761Y-112630952D01*
X192654761Y-112535714D01*
X192630952Y-112488095D01*
X192607142Y-112464285D01*
X192559523Y-112440476D01*
X189128571Y-113609523D02*
X189152380Y-113633333D01*
X189176190Y-113704761D01*
X189176190Y-113752380D01*
X189152380Y-113823809D01*
X189104761Y-113871428D01*
X189057142Y-113895238D01*
X188961904Y-113919047D01*
X188890476Y-113919047D01*
X188795238Y-113895238D01*
X188747619Y-113871428D01*
X188700000Y-113823809D01*
X188676190Y-113752380D01*
X188676190Y-113704761D01*
X188700000Y-113633333D01*
X188723809Y-113609523D01*
X189176190Y-113133333D02*
X189176190Y-113419047D01*
X189176190Y-113276190D02*
X188676190Y-113276190D01*
X188747619Y-113323809D01*
X188795238Y-113371428D01*
X188819047Y-113419047D01*
X188676190Y-112823809D02*
X188676190Y-112776190D01*
X188700000Y-112728571D01*
X188723809Y-112704761D01*
X188771428Y-112680952D01*
X188866666Y-112657142D01*
X188985714Y-112657142D01*
X189080952Y-112680952D01*
X189128571Y-112704761D01*
X189152380Y-112728571D01*
X189176190Y-112776190D01*
X189176190Y-112823809D01*
X189152380Y-112871428D01*
X189128571Y-112895238D01*
X189080952Y-112919047D01*
X188985714Y-112942857D01*
X188866666Y-112942857D01*
X188771428Y-112919047D01*
X188723809Y-112895238D01*
X188700000Y-112871428D01*
X188676190Y-112823809D01*
X188890476Y-112371428D02*
X188866666Y-112419047D01*
X188842857Y-112442857D01*
X188795238Y-112466666D01*
X188771428Y-112466666D01*
X188723809Y-112442857D01*
X188700000Y-112419047D01*
X188676190Y-112371428D01*
X188676190Y-112276190D01*
X188700000Y-112228571D01*
X188723809Y-112204761D01*
X188771428Y-112180952D01*
X188795238Y-112180952D01*
X188842857Y-112204761D01*
X188866666Y-112228571D01*
X188890476Y-112276190D01*
X188890476Y-112371428D01*
X188914285Y-112419047D01*
X188938095Y-112442857D01*
X188985714Y-112466666D01*
X189080952Y-112466666D01*
X189128571Y-112442857D01*
X189152380Y-112419047D01*
X189176190Y-112371428D01*
X189176190Y-112276190D01*
X189152380Y-112228571D01*
X189128571Y-112204761D01*
X189080952Y-112180952D01*
X188985714Y-112180952D01*
X188938095Y-112204761D01*
X188914285Y-112228571D01*
X188890476Y-112276190D01*
X196828571Y-105478571D02*
X196804761Y-105502380D01*
X196733333Y-105526190D01*
X196685714Y-105526190D01*
X196614285Y-105502380D01*
X196566666Y-105454761D01*
X196542857Y-105407142D01*
X196519047Y-105311904D01*
X196519047Y-105240476D01*
X196542857Y-105145238D01*
X196566666Y-105097619D01*
X196614285Y-105050000D01*
X196685714Y-105026190D01*
X196733333Y-105026190D01*
X196804761Y-105050000D01*
X196828571Y-105073809D01*
X197114285Y-105240476D02*
X197066666Y-105216666D01*
X197042857Y-105192857D01*
X197019047Y-105145238D01*
X197019047Y-105121428D01*
X197042857Y-105073809D01*
X197066666Y-105050000D01*
X197114285Y-105026190D01*
X197209523Y-105026190D01*
X197257142Y-105050000D01*
X197280952Y-105073809D01*
X197304761Y-105121428D01*
X197304761Y-105145238D01*
X197280952Y-105192857D01*
X197257142Y-105216666D01*
X197209523Y-105240476D01*
X197114285Y-105240476D01*
X197066666Y-105264285D01*
X197042857Y-105288095D01*
X197019047Y-105335714D01*
X197019047Y-105430952D01*
X197042857Y-105478571D01*
X197066666Y-105502380D01*
X197114285Y-105526190D01*
X197209523Y-105526190D01*
X197257142Y-105502380D01*
X197280952Y-105478571D01*
X197304761Y-105430952D01*
X197304761Y-105335714D01*
X197280952Y-105288095D01*
X197257142Y-105264285D01*
X197209523Y-105240476D01*
X197780952Y-105526190D02*
X197495238Y-105526190D01*
X197638095Y-105526190D02*
X197638095Y-105026190D01*
X197590476Y-105097619D01*
X197542857Y-105145238D01*
X197495238Y-105169047D01*
X196828571Y-106078571D02*
X196804761Y-106102380D01*
X196733333Y-106126190D01*
X196685714Y-106126190D01*
X196614285Y-106102380D01*
X196566666Y-106054761D01*
X196542857Y-106007142D01*
X196519047Y-105911904D01*
X196519047Y-105840476D01*
X196542857Y-105745238D01*
X196566666Y-105697619D01*
X196614285Y-105650000D01*
X196685714Y-105626190D01*
X196733333Y-105626190D01*
X196804761Y-105650000D01*
X196828571Y-105673809D01*
X197114285Y-105840476D02*
X197066666Y-105816666D01*
X197042857Y-105792857D01*
X197019047Y-105745238D01*
X197019047Y-105721428D01*
X197042857Y-105673809D01*
X197066666Y-105650000D01*
X197114285Y-105626190D01*
X197209523Y-105626190D01*
X197257142Y-105650000D01*
X197280952Y-105673809D01*
X197304761Y-105721428D01*
X197304761Y-105745238D01*
X197280952Y-105792857D01*
X197257142Y-105816666D01*
X197209523Y-105840476D01*
X197114285Y-105840476D01*
X197066666Y-105864285D01*
X197042857Y-105888095D01*
X197019047Y-105935714D01*
X197019047Y-106030952D01*
X197042857Y-106078571D01*
X197066666Y-106102380D01*
X197114285Y-106126190D01*
X197209523Y-106126190D01*
X197257142Y-106102380D01*
X197280952Y-106078571D01*
X197304761Y-106030952D01*
X197304761Y-105935714D01*
X197280952Y-105888095D01*
X197257142Y-105864285D01*
X197209523Y-105840476D01*
X197495238Y-105673809D02*
X197519047Y-105650000D01*
X197566666Y-105626190D01*
X197685714Y-105626190D01*
X197733333Y-105650000D01*
X197757142Y-105673809D01*
X197780952Y-105721428D01*
X197780952Y-105769047D01*
X197757142Y-105840476D01*
X197471428Y-106126190D01*
X197780952Y-106126190D01*
X188490476Y-114478571D02*
X188466666Y-114502380D01*
X188395238Y-114526190D01*
X188347619Y-114526190D01*
X188276190Y-114502380D01*
X188228571Y-114454761D01*
X188204761Y-114407142D01*
X188180952Y-114311904D01*
X188180952Y-114240476D01*
X188204761Y-114145238D01*
X188228571Y-114097619D01*
X188276190Y-114050000D01*
X188347619Y-114026190D01*
X188395238Y-114026190D01*
X188466666Y-114050000D01*
X188490476Y-114073809D01*
X188966666Y-114526190D02*
X188680952Y-114526190D01*
X188823809Y-114526190D02*
X188823809Y-114026190D01*
X188776190Y-114097619D01*
X188728571Y-114145238D01*
X188680952Y-114169047D01*
X189419047Y-114026190D02*
X189180952Y-114026190D01*
X189157142Y-114264285D01*
X189180952Y-114240476D01*
X189228571Y-114216666D01*
X189347619Y-114216666D01*
X189395238Y-114240476D01*
X189419047Y-114264285D01*
X189442857Y-114311904D01*
X189442857Y-114430952D01*
X189419047Y-114478571D01*
X189395238Y-114502380D01*
X189347619Y-114526190D01*
X189228571Y-114526190D01*
X189180952Y-114502380D01*
X189157142Y-114478571D01*
X189728571Y-114240476D02*
X189680952Y-114216666D01*
X189657142Y-114192857D01*
X189633333Y-114145238D01*
X189633333Y-114121428D01*
X189657142Y-114073809D01*
X189680952Y-114050000D01*
X189728571Y-114026190D01*
X189823809Y-114026190D01*
X189871428Y-114050000D01*
X189895238Y-114073809D01*
X189919047Y-114121428D01*
X189919047Y-114145238D01*
X189895238Y-114192857D01*
X189871428Y-114216666D01*
X189823809Y-114240476D01*
X189728571Y-114240476D01*
X189680952Y-114264285D01*
X189657142Y-114288095D01*
X189633333Y-114335714D01*
X189633333Y-114430952D01*
X189657142Y-114478571D01*
X189680952Y-114502380D01*
X189728571Y-114526190D01*
X189823809Y-114526190D01*
X189871428Y-114502380D01*
X189895238Y-114478571D01*
X189919047Y-114430952D01*
X189919047Y-114335714D01*
X189895238Y-114288095D01*
X189871428Y-114264285D01*
X189823809Y-114240476D01*
X192628571Y-116109523D02*
X192652380Y-116133333D01*
X192676190Y-116204761D01*
X192676190Y-116252380D01*
X192652380Y-116323809D01*
X192604761Y-116371428D01*
X192557142Y-116395238D01*
X192461904Y-116419047D01*
X192390476Y-116419047D01*
X192295238Y-116395238D01*
X192247619Y-116371428D01*
X192200000Y-116323809D01*
X192176190Y-116252380D01*
X192176190Y-116204761D01*
X192200000Y-116133333D01*
X192223809Y-116109523D01*
X192676190Y-115633333D02*
X192676190Y-115919047D01*
X192676190Y-115776190D02*
X192176190Y-115776190D01*
X192247619Y-115823809D01*
X192295238Y-115871428D01*
X192319047Y-115919047D01*
X192176190Y-115323809D02*
X192176190Y-115276190D01*
X192200000Y-115228571D01*
X192223809Y-115204761D01*
X192271428Y-115180952D01*
X192366666Y-115157142D01*
X192485714Y-115157142D01*
X192580952Y-115180952D01*
X192628571Y-115204761D01*
X192652380Y-115228571D01*
X192676190Y-115276190D01*
X192676190Y-115323809D01*
X192652380Y-115371428D01*
X192628571Y-115395238D01*
X192580952Y-115419047D01*
X192485714Y-115442857D01*
X192366666Y-115442857D01*
X192271428Y-115419047D01*
X192223809Y-115395238D01*
X192200000Y-115371428D01*
X192176190Y-115323809D01*
X192176190Y-114990476D02*
X192176190Y-114657142D01*
X192676190Y-114871428D01*
X197328571Y-94609523D02*
X197352380Y-94633333D01*
X197376190Y-94704761D01*
X197376190Y-94752380D01*
X197352380Y-94823809D01*
X197304761Y-94871428D01*
X197257142Y-94895238D01*
X197161904Y-94919047D01*
X197090476Y-94919047D01*
X196995238Y-94895238D01*
X196947619Y-94871428D01*
X196900000Y-94823809D01*
X196876190Y-94752380D01*
X196876190Y-94704761D01*
X196900000Y-94633333D01*
X196923809Y-94609523D01*
X197376190Y-94133333D02*
X197376190Y-94419047D01*
X197376190Y-94276190D02*
X196876190Y-94276190D01*
X196947619Y-94323809D01*
X196995238Y-94371428D01*
X197019047Y-94419047D01*
X196876190Y-93680952D02*
X196876190Y-93919047D01*
X197114285Y-93942857D01*
X197090476Y-93919047D01*
X197066666Y-93871428D01*
X197066666Y-93752380D01*
X197090476Y-93704761D01*
X197114285Y-93680952D01*
X197161904Y-93657142D01*
X197280952Y-93657142D01*
X197328571Y-93680952D01*
X197352380Y-93704761D01*
X197376190Y-93752380D01*
X197376190Y-93871428D01*
X197352380Y-93919047D01*
X197328571Y-93942857D01*
X196876190Y-93228571D02*
X196876190Y-93323809D01*
X196900000Y-93371428D01*
X196923809Y-93395238D01*
X196995238Y-93442857D01*
X197090476Y-93466666D01*
X197280952Y-93466666D01*
X197328571Y-93442857D01*
X197352380Y-93419047D01*
X197376190Y-93371428D01*
X197376190Y-93276190D01*
X197352380Y-93228571D01*
X197328571Y-93204761D01*
X197280952Y-93180952D01*
X197161904Y-93180952D01*
X197114285Y-93204761D01*
X197090476Y-93228571D01*
X197066666Y-93276190D01*
X197066666Y-93371428D01*
X197090476Y-93419047D01*
X197114285Y-93442857D01*
X197161904Y-93466666D01*
X203415476Y-104853571D02*
X203391666Y-104877380D01*
X203320238Y-104901190D01*
X203272619Y-104901190D01*
X203201190Y-104877380D01*
X203153571Y-104829761D01*
X203129761Y-104782142D01*
X203105952Y-104686904D01*
X203105952Y-104615476D01*
X203129761Y-104520238D01*
X203153571Y-104472619D01*
X203201190Y-104425000D01*
X203272619Y-104401190D01*
X203320238Y-104401190D01*
X203391666Y-104425000D01*
X203415476Y-104448809D01*
X203891666Y-104901190D02*
X203605952Y-104901190D01*
X203748809Y-104901190D02*
X203748809Y-104401190D01*
X203701190Y-104472619D01*
X203653571Y-104520238D01*
X203605952Y-104544047D01*
X204344047Y-104401190D02*
X204105952Y-104401190D01*
X204082142Y-104639285D01*
X204105952Y-104615476D01*
X204153571Y-104591666D01*
X204272619Y-104591666D01*
X204320238Y-104615476D01*
X204344047Y-104639285D01*
X204367857Y-104686904D01*
X204367857Y-104805952D01*
X204344047Y-104853571D01*
X204320238Y-104877380D01*
X204272619Y-104901190D01*
X204153571Y-104901190D01*
X204105952Y-104877380D01*
X204082142Y-104853571D01*
X204820238Y-104401190D02*
X204582142Y-104401190D01*
X204558333Y-104639285D01*
X204582142Y-104615476D01*
X204629761Y-104591666D01*
X204748809Y-104591666D01*
X204796428Y-104615476D01*
X204820238Y-104639285D01*
X204844047Y-104686904D01*
X204844047Y-104805952D01*
X204820238Y-104853571D01*
X204796428Y-104877380D01*
X204748809Y-104901190D01*
X204629761Y-104901190D01*
X204582142Y-104877380D01*
X204558333Y-104853571D01*
X192978571Y-120259523D02*
X193002380Y-120283333D01*
X193026190Y-120354761D01*
X193026190Y-120402380D01*
X193002380Y-120473809D01*
X192954761Y-120521428D01*
X192907142Y-120545238D01*
X192811904Y-120569047D01*
X192740476Y-120569047D01*
X192645238Y-120545238D01*
X192597619Y-120521428D01*
X192550000Y-120473809D01*
X192526190Y-120402380D01*
X192526190Y-120354761D01*
X192550000Y-120283333D01*
X192573809Y-120259523D01*
X193026190Y-119783333D02*
X193026190Y-120069047D01*
X193026190Y-119926190D02*
X192526190Y-119926190D01*
X192597619Y-119973809D01*
X192645238Y-120021428D01*
X192669047Y-120069047D01*
X192526190Y-119330952D02*
X192526190Y-119569047D01*
X192764285Y-119592857D01*
X192740476Y-119569047D01*
X192716666Y-119521428D01*
X192716666Y-119402380D01*
X192740476Y-119354761D01*
X192764285Y-119330952D01*
X192811904Y-119307142D01*
X192930952Y-119307142D01*
X192978571Y-119330952D01*
X193002380Y-119354761D01*
X193026190Y-119402380D01*
X193026190Y-119521428D01*
X193002380Y-119569047D01*
X192978571Y-119592857D01*
X192692857Y-118878571D02*
X193026190Y-118878571D01*
X192502380Y-118997619D02*
X192859523Y-119116666D01*
X192859523Y-118807142D01*
X205315476Y-104828571D02*
X205291666Y-104852380D01*
X205220238Y-104876190D01*
X205172619Y-104876190D01*
X205101190Y-104852380D01*
X205053571Y-104804761D01*
X205029761Y-104757142D01*
X205005952Y-104661904D01*
X205005952Y-104590476D01*
X205029761Y-104495238D01*
X205053571Y-104447619D01*
X205101190Y-104400000D01*
X205172619Y-104376190D01*
X205220238Y-104376190D01*
X205291666Y-104400000D01*
X205315476Y-104423809D01*
X205791666Y-104876190D02*
X205505952Y-104876190D01*
X205648809Y-104876190D02*
X205648809Y-104376190D01*
X205601190Y-104447619D01*
X205553571Y-104495238D01*
X205505952Y-104519047D01*
X206244047Y-104376190D02*
X206005952Y-104376190D01*
X205982142Y-104614285D01*
X206005952Y-104590476D01*
X206053571Y-104566666D01*
X206172619Y-104566666D01*
X206220238Y-104590476D01*
X206244047Y-104614285D01*
X206267857Y-104661904D01*
X206267857Y-104780952D01*
X206244047Y-104828571D01*
X206220238Y-104852380D01*
X206172619Y-104876190D01*
X206053571Y-104876190D01*
X206005952Y-104852380D01*
X205982142Y-104828571D01*
X206458333Y-104423809D02*
X206482142Y-104400000D01*
X206529761Y-104376190D01*
X206648809Y-104376190D01*
X206696428Y-104400000D01*
X206720238Y-104423809D01*
X206744047Y-104471428D01*
X206744047Y-104519047D01*
X206720238Y-104590476D01*
X206434523Y-104876190D01*
X206744047Y-104876190D01*
X193528571Y-105728571D02*
X193504761Y-105752380D01*
X193433333Y-105776190D01*
X193385714Y-105776190D01*
X193314285Y-105752380D01*
X193266666Y-105704761D01*
X193242857Y-105657142D01*
X193219047Y-105561904D01*
X193219047Y-105490476D01*
X193242857Y-105395238D01*
X193266666Y-105347619D01*
X193314285Y-105300000D01*
X193385714Y-105276190D01*
X193433333Y-105276190D01*
X193504761Y-105300000D01*
X193528571Y-105323809D01*
X193814285Y-105490476D02*
X193766666Y-105466666D01*
X193742857Y-105442857D01*
X193719047Y-105395238D01*
X193719047Y-105371428D01*
X193742857Y-105323809D01*
X193766666Y-105300000D01*
X193814285Y-105276190D01*
X193909523Y-105276190D01*
X193957142Y-105300000D01*
X193980952Y-105323809D01*
X194004761Y-105371428D01*
X194004761Y-105395238D01*
X193980952Y-105442857D01*
X193957142Y-105466666D01*
X193909523Y-105490476D01*
X193814285Y-105490476D01*
X193766666Y-105514285D01*
X193742857Y-105538095D01*
X193719047Y-105585714D01*
X193719047Y-105680952D01*
X193742857Y-105728571D01*
X193766666Y-105752380D01*
X193814285Y-105776190D01*
X193909523Y-105776190D01*
X193957142Y-105752380D01*
X193980952Y-105728571D01*
X194004761Y-105680952D01*
X194004761Y-105585714D01*
X193980952Y-105538095D01*
X193957142Y-105514285D01*
X193909523Y-105490476D01*
X194314285Y-105276190D02*
X194361904Y-105276190D01*
X194409523Y-105300000D01*
X194433333Y-105323809D01*
X194457142Y-105371428D01*
X194480952Y-105466666D01*
X194480952Y-105585714D01*
X194457142Y-105680952D01*
X194433333Y-105728571D01*
X194409523Y-105752380D01*
X194361904Y-105776190D01*
X194314285Y-105776190D01*
X194266666Y-105752380D01*
X194242857Y-105728571D01*
X194219047Y-105680952D01*
X194195238Y-105585714D01*
X194195238Y-105466666D01*
X194219047Y-105371428D01*
X194242857Y-105323809D01*
X194266666Y-105300000D01*
X194314285Y-105276190D01*
X193528571Y-106328571D02*
X193504761Y-106352380D01*
X193433333Y-106376190D01*
X193385714Y-106376190D01*
X193314285Y-106352380D01*
X193266666Y-106304761D01*
X193242857Y-106257142D01*
X193219047Y-106161904D01*
X193219047Y-106090476D01*
X193242857Y-105995238D01*
X193266666Y-105947619D01*
X193314285Y-105900000D01*
X193385714Y-105876190D01*
X193433333Y-105876190D01*
X193504761Y-105900000D01*
X193528571Y-105923809D01*
X193695238Y-105876190D02*
X194028571Y-105876190D01*
X193814285Y-106376190D01*
X194433333Y-105876190D02*
X194338095Y-105876190D01*
X194290476Y-105900000D01*
X194266666Y-105923809D01*
X194219047Y-105995238D01*
X194195238Y-106090476D01*
X194195238Y-106280952D01*
X194219047Y-106328571D01*
X194242857Y-106352380D01*
X194290476Y-106376190D01*
X194385714Y-106376190D01*
X194433333Y-106352380D01*
X194457142Y-106328571D01*
X194480952Y-106280952D01*
X194480952Y-106161904D01*
X194457142Y-106114285D01*
X194433333Y-106090476D01*
X194385714Y-106066666D01*
X194290476Y-106066666D01*
X194242857Y-106090476D01*
X194219047Y-106114285D01*
X194195238Y-106161904D01*
X193528571Y-106903571D02*
X193504761Y-106927380D01*
X193433333Y-106951190D01*
X193385714Y-106951190D01*
X193314285Y-106927380D01*
X193266666Y-106879761D01*
X193242857Y-106832142D01*
X193219047Y-106736904D01*
X193219047Y-106665476D01*
X193242857Y-106570238D01*
X193266666Y-106522619D01*
X193314285Y-106475000D01*
X193385714Y-106451190D01*
X193433333Y-106451190D01*
X193504761Y-106475000D01*
X193528571Y-106498809D01*
X193695238Y-106451190D02*
X194028571Y-106451190D01*
X193814285Y-106951190D01*
X194457142Y-106451190D02*
X194219047Y-106451190D01*
X194195238Y-106689285D01*
X194219047Y-106665476D01*
X194266666Y-106641666D01*
X194385714Y-106641666D01*
X194433333Y-106665476D01*
X194457142Y-106689285D01*
X194480952Y-106736904D01*
X194480952Y-106855952D01*
X194457142Y-106903571D01*
X194433333Y-106927380D01*
X194385714Y-106951190D01*
X194266666Y-106951190D01*
X194219047Y-106927380D01*
X194195238Y-106903571D01*
X193528571Y-109203571D02*
X193504761Y-109227380D01*
X193433333Y-109251190D01*
X193385714Y-109251190D01*
X193314285Y-109227380D01*
X193266666Y-109179761D01*
X193242857Y-109132142D01*
X193219047Y-109036904D01*
X193219047Y-108965476D01*
X193242857Y-108870238D01*
X193266666Y-108822619D01*
X193314285Y-108775000D01*
X193385714Y-108751190D01*
X193433333Y-108751190D01*
X193504761Y-108775000D01*
X193528571Y-108798809D01*
X193695238Y-108751190D02*
X194028571Y-108751190D01*
X193814285Y-109251190D01*
X194433333Y-108917857D02*
X194433333Y-109251190D01*
X194314285Y-108727380D02*
X194195238Y-109084523D01*
X194504761Y-109084523D01*
X193528571Y-108628571D02*
X193504761Y-108652380D01*
X193433333Y-108676190D01*
X193385714Y-108676190D01*
X193314285Y-108652380D01*
X193266666Y-108604761D01*
X193242857Y-108557142D01*
X193219047Y-108461904D01*
X193219047Y-108390476D01*
X193242857Y-108295238D01*
X193266666Y-108247619D01*
X193314285Y-108200000D01*
X193385714Y-108176190D01*
X193433333Y-108176190D01*
X193504761Y-108200000D01*
X193528571Y-108223809D01*
X193695238Y-108176190D02*
X194028571Y-108176190D01*
X193814285Y-108676190D01*
X194171428Y-108176190D02*
X194480952Y-108176190D01*
X194314285Y-108366666D01*
X194385714Y-108366666D01*
X194433333Y-108390476D01*
X194457142Y-108414285D01*
X194480952Y-108461904D01*
X194480952Y-108580952D01*
X194457142Y-108628571D01*
X194433333Y-108652380D01*
X194385714Y-108676190D01*
X194242857Y-108676190D01*
X194195238Y-108652380D01*
X194171428Y-108628571D01*
X193528571Y-107478571D02*
X193504761Y-107502380D01*
X193433333Y-107526190D01*
X193385714Y-107526190D01*
X193314285Y-107502380D01*
X193266666Y-107454761D01*
X193242857Y-107407142D01*
X193219047Y-107311904D01*
X193219047Y-107240476D01*
X193242857Y-107145238D01*
X193266666Y-107097619D01*
X193314285Y-107050000D01*
X193385714Y-107026190D01*
X193433333Y-107026190D01*
X193504761Y-107050000D01*
X193528571Y-107073809D01*
X193695238Y-107026190D02*
X194028571Y-107026190D01*
X193814285Y-107526190D01*
X194195238Y-107073809D02*
X194219047Y-107050000D01*
X194266666Y-107026190D01*
X194385714Y-107026190D01*
X194433333Y-107050000D01*
X194457142Y-107073809D01*
X194480952Y-107121428D01*
X194480952Y-107169047D01*
X194457142Y-107240476D01*
X194171428Y-107526190D01*
X194480952Y-107526190D01*
X158902380Y-103873809D02*
X158854761Y-103850000D01*
X158807142Y-103802380D01*
X158735714Y-103730952D01*
X158688095Y-103707142D01*
X158640476Y-103707142D01*
X158664285Y-103826190D02*
X158616666Y-103802380D01*
X158569047Y-103754761D01*
X158545238Y-103659523D01*
X158545238Y-103492857D01*
X158569047Y-103397619D01*
X158616666Y-103350000D01*
X158664285Y-103326190D01*
X158759523Y-103326190D01*
X158807142Y-103350000D01*
X158854761Y-103397619D01*
X158878571Y-103492857D01*
X158878571Y-103659523D01*
X158854761Y-103754761D01*
X158807142Y-103802380D01*
X158759523Y-103826190D01*
X158664285Y-103826190D01*
X159069047Y-103373809D02*
X159092857Y-103350000D01*
X159140476Y-103326190D01*
X159259523Y-103326190D01*
X159307142Y-103350000D01*
X159330952Y-103373809D01*
X159354761Y-103421428D01*
X159354761Y-103469047D01*
X159330952Y-103540476D01*
X159045238Y-103826190D01*
X159354761Y-103826190D01*
X147026190Y-99921428D02*
X146788095Y-100088095D01*
X147026190Y-100207142D02*
X146526190Y-100207142D01*
X146526190Y-100016666D01*
X146550000Y-99969047D01*
X146573809Y-99945238D01*
X146621428Y-99921428D01*
X146692857Y-99921428D01*
X146740476Y-99945238D01*
X146764285Y-99969047D01*
X146788095Y-100016666D01*
X146788095Y-100207142D01*
X146526190Y-99754761D02*
X146526190Y-99445238D01*
X146716666Y-99611904D01*
X146716666Y-99540476D01*
X146740476Y-99492857D01*
X146764285Y-99469047D01*
X146811904Y-99445238D01*
X146930952Y-99445238D01*
X146978571Y-99469047D01*
X147002380Y-99492857D01*
X147026190Y-99540476D01*
X147026190Y-99683333D01*
X147002380Y-99730952D01*
X146978571Y-99754761D01*
X146573809Y-99254761D02*
X146550000Y-99230952D01*
X146526190Y-99183333D01*
X146526190Y-99064285D01*
X146550000Y-99016666D01*
X146573809Y-98992857D01*
X146621428Y-98969047D01*
X146669047Y-98969047D01*
X146740476Y-98992857D01*
X147026190Y-99278571D01*
X147026190Y-98969047D01*
X146076190Y-99921428D02*
X145838095Y-100088095D01*
X146076190Y-100207142D02*
X145576190Y-100207142D01*
X145576190Y-100016666D01*
X145600000Y-99969047D01*
X145623809Y-99945238D01*
X145671428Y-99921428D01*
X145742857Y-99921428D01*
X145790476Y-99945238D01*
X145814285Y-99969047D01*
X145838095Y-100016666D01*
X145838095Y-100207142D01*
X145576190Y-99754761D02*
X145576190Y-99445238D01*
X145766666Y-99611904D01*
X145766666Y-99540476D01*
X145790476Y-99492857D01*
X145814285Y-99469047D01*
X145861904Y-99445238D01*
X145980952Y-99445238D01*
X146028571Y-99469047D01*
X146052380Y-99492857D01*
X146076190Y-99540476D01*
X146076190Y-99683333D01*
X146052380Y-99730952D01*
X146028571Y-99754761D01*
X146076190Y-98969047D02*
X146076190Y-99254761D01*
X146076190Y-99111904D02*
X145576190Y-99111904D01*
X145647619Y-99159523D01*
X145695238Y-99207142D01*
X145719047Y-99254761D01*
X154028571Y-101926190D02*
X153861904Y-101688095D01*
X153742857Y-101926190D02*
X153742857Y-101426190D01*
X153933333Y-101426190D01*
X153980952Y-101450000D01*
X154004761Y-101473809D01*
X154028571Y-101521428D01*
X154028571Y-101592857D01*
X154004761Y-101640476D01*
X153980952Y-101664285D01*
X153933333Y-101688095D01*
X153742857Y-101688095D01*
X154195238Y-101426190D02*
X154504761Y-101426190D01*
X154338095Y-101616666D01*
X154409523Y-101616666D01*
X154457142Y-101640476D01*
X154480952Y-101664285D01*
X154504761Y-101711904D01*
X154504761Y-101830952D01*
X154480952Y-101878571D01*
X154457142Y-101902380D01*
X154409523Y-101926190D01*
X154266666Y-101926190D01*
X154219047Y-101902380D01*
X154195238Y-101878571D01*
X154814285Y-101426190D02*
X154861904Y-101426190D01*
X154909523Y-101450000D01*
X154933333Y-101473809D01*
X154957142Y-101521428D01*
X154980952Y-101616666D01*
X154980952Y-101735714D01*
X154957142Y-101830952D01*
X154933333Y-101878571D01*
X154909523Y-101902380D01*
X154861904Y-101926190D01*
X154814285Y-101926190D01*
X154766666Y-101902380D01*
X154742857Y-101878571D01*
X154719047Y-101830952D01*
X154695238Y-101735714D01*
X154695238Y-101616666D01*
X154719047Y-101521428D01*
X154742857Y-101473809D01*
X154766666Y-101450000D01*
X154814285Y-101426190D01*
X154028571Y-100376190D02*
X153861904Y-100138095D01*
X153742857Y-100376190D02*
X153742857Y-99876190D01*
X153933333Y-99876190D01*
X153980952Y-99900000D01*
X154004761Y-99923809D01*
X154028571Y-99971428D01*
X154028571Y-100042857D01*
X154004761Y-100090476D01*
X153980952Y-100114285D01*
X153933333Y-100138095D01*
X153742857Y-100138095D01*
X154219047Y-99923809D02*
X154242857Y-99900000D01*
X154290476Y-99876190D01*
X154409523Y-99876190D01*
X154457142Y-99900000D01*
X154480952Y-99923809D01*
X154504761Y-99971428D01*
X154504761Y-100019047D01*
X154480952Y-100090476D01*
X154195238Y-100376190D01*
X154504761Y-100376190D01*
X154790476Y-100090476D02*
X154742857Y-100066666D01*
X154719047Y-100042857D01*
X154695238Y-99995238D01*
X154695238Y-99971428D01*
X154719047Y-99923809D01*
X154742857Y-99900000D01*
X154790476Y-99876190D01*
X154885714Y-99876190D01*
X154933333Y-99900000D01*
X154957142Y-99923809D01*
X154980952Y-99971428D01*
X154980952Y-99995238D01*
X154957142Y-100042857D01*
X154933333Y-100066666D01*
X154885714Y-100090476D01*
X154790476Y-100090476D01*
X154742857Y-100114285D01*
X154719047Y-100138095D01*
X154695238Y-100185714D01*
X154695238Y-100280952D01*
X154719047Y-100328571D01*
X154742857Y-100352380D01*
X154790476Y-100376190D01*
X154885714Y-100376190D01*
X154933333Y-100352380D01*
X154957142Y-100328571D01*
X154980952Y-100280952D01*
X154980952Y-100185714D01*
X154957142Y-100138095D01*
X154933333Y-100114285D01*
X154885714Y-100090476D01*
X156493571Y-98476190D02*
X156326904Y-98238095D01*
X156207857Y-98476190D02*
X156207857Y-97976190D01*
X156398333Y-97976190D01*
X156445952Y-98000000D01*
X156469761Y-98023809D01*
X156493571Y-98071428D01*
X156493571Y-98142857D01*
X156469761Y-98190476D01*
X156445952Y-98214285D01*
X156398333Y-98238095D01*
X156207857Y-98238095D01*
X156684047Y-98023809D02*
X156707857Y-98000000D01*
X156755476Y-97976190D01*
X156874523Y-97976190D01*
X156922142Y-98000000D01*
X156945952Y-98023809D01*
X156969761Y-98071428D01*
X156969761Y-98119047D01*
X156945952Y-98190476D01*
X156660238Y-98476190D01*
X156969761Y-98476190D01*
X157398333Y-98142857D02*
X157398333Y-98476190D01*
X157279285Y-97952380D02*
X157160238Y-98309523D01*
X157469761Y-98309523D01*
X149202380Y-101123809D02*
X149154761Y-101100000D01*
X149107142Y-101052380D01*
X149035714Y-100980952D01*
X148988095Y-100957142D01*
X148940476Y-100957142D01*
X148964285Y-101076190D02*
X148916666Y-101052380D01*
X148869047Y-101004761D01*
X148845238Y-100909523D01*
X148845238Y-100742857D01*
X148869047Y-100647619D01*
X148916666Y-100600000D01*
X148964285Y-100576190D01*
X149059523Y-100576190D01*
X149107142Y-100600000D01*
X149154761Y-100647619D01*
X149178571Y-100742857D01*
X149178571Y-100909523D01*
X149154761Y-101004761D01*
X149107142Y-101052380D01*
X149059523Y-101076190D01*
X148964285Y-101076190D01*
X149345238Y-100576190D02*
X149654761Y-100576190D01*
X149488095Y-100766666D01*
X149559523Y-100766666D01*
X149607142Y-100790476D01*
X149630952Y-100814285D01*
X149654761Y-100861904D01*
X149654761Y-100980952D01*
X149630952Y-101028571D01*
X149607142Y-101052380D01*
X149559523Y-101076190D01*
X149416666Y-101076190D01*
X149369047Y-101052380D01*
X149345238Y-101028571D01*
X147978571Y-99909523D02*
X148002380Y-99933333D01*
X148026190Y-100004761D01*
X148026190Y-100052380D01*
X148002380Y-100123809D01*
X147954761Y-100171428D01*
X147907142Y-100195238D01*
X147811904Y-100219047D01*
X147740476Y-100219047D01*
X147645238Y-100195238D01*
X147597619Y-100171428D01*
X147550000Y-100123809D01*
X147526190Y-100052380D01*
X147526190Y-100004761D01*
X147550000Y-99933333D01*
X147573809Y-99909523D01*
X148026190Y-99433333D02*
X148026190Y-99719047D01*
X148026190Y-99576190D02*
X147526190Y-99576190D01*
X147597619Y-99623809D01*
X147645238Y-99671428D01*
X147669047Y-99719047D01*
X147526190Y-99123809D02*
X147526190Y-99076190D01*
X147550000Y-99028571D01*
X147573809Y-99004761D01*
X147621428Y-98980952D01*
X147716666Y-98957142D01*
X147835714Y-98957142D01*
X147930952Y-98980952D01*
X147978571Y-99004761D01*
X148002380Y-99028571D01*
X148026190Y-99076190D01*
X148026190Y-99123809D01*
X148002380Y-99171428D01*
X147978571Y-99195238D01*
X147930952Y-99219047D01*
X147835714Y-99242857D01*
X147716666Y-99242857D01*
X147621428Y-99219047D01*
X147573809Y-99195238D01*
X147550000Y-99171428D01*
X147526190Y-99123809D01*
X147526190Y-98528571D02*
X147526190Y-98623809D01*
X147550000Y-98671428D01*
X147573809Y-98695238D01*
X147645238Y-98742857D01*
X147740476Y-98766666D01*
X147930952Y-98766666D01*
X147978571Y-98742857D01*
X148002380Y-98719047D01*
X148026190Y-98671428D01*
X148026190Y-98576190D01*
X148002380Y-98528571D01*
X147978571Y-98504761D01*
X147930952Y-98480952D01*
X147811904Y-98480952D01*
X147764285Y-98504761D01*
X147740476Y-98528571D01*
X147716666Y-98576190D01*
X147716666Y-98671428D01*
X147740476Y-98719047D01*
X147764285Y-98742857D01*
X147811904Y-98766666D01*
X155690476Y-94878571D02*
X155666666Y-94902380D01*
X155595238Y-94926190D01*
X155547619Y-94926190D01*
X155476190Y-94902380D01*
X155428571Y-94854761D01*
X155404761Y-94807142D01*
X155380952Y-94711904D01*
X155380952Y-94640476D01*
X155404761Y-94545238D01*
X155428571Y-94497619D01*
X155476190Y-94450000D01*
X155547619Y-94426190D01*
X155595238Y-94426190D01*
X155666666Y-94450000D01*
X155690476Y-94473809D01*
X156166666Y-94926190D02*
X155880952Y-94926190D01*
X156023809Y-94926190D02*
X156023809Y-94426190D01*
X155976190Y-94497619D01*
X155928571Y-94545238D01*
X155880952Y-94569047D01*
X156476190Y-94426190D02*
X156523809Y-94426190D01*
X156571428Y-94450000D01*
X156595238Y-94473809D01*
X156619047Y-94521428D01*
X156642857Y-94616666D01*
X156642857Y-94735714D01*
X156619047Y-94830952D01*
X156595238Y-94878571D01*
X156571428Y-94902380D01*
X156523809Y-94926190D01*
X156476190Y-94926190D01*
X156428571Y-94902380D01*
X156404761Y-94878571D01*
X156380952Y-94830952D01*
X156357142Y-94735714D01*
X156357142Y-94616666D01*
X156380952Y-94521428D01*
X156404761Y-94473809D01*
X156428571Y-94450000D01*
X156476190Y-94426190D01*
X157095238Y-94426190D02*
X156857142Y-94426190D01*
X156833333Y-94664285D01*
X156857142Y-94640476D01*
X156904761Y-94616666D01*
X157023809Y-94616666D01*
X157071428Y-94640476D01*
X157095238Y-94664285D01*
X157119047Y-94711904D01*
X157119047Y-94830952D01*
X157095238Y-94878571D01*
X157071428Y-94902380D01*
X157023809Y-94926190D01*
X156904761Y-94926190D01*
X156857142Y-94902380D01*
X156833333Y-94878571D01*
X158840476Y-97928571D02*
X158816666Y-97952380D01*
X158745238Y-97976190D01*
X158697619Y-97976190D01*
X158626190Y-97952380D01*
X158578571Y-97904761D01*
X158554761Y-97857142D01*
X158530952Y-97761904D01*
X158530952Y-97690476D01*
X158554761Y-97595238D01*
X158578571Y-97547619D01*
X158626190Y-97500000D01*
X158697619Y-97476190D01*
X158745238Y-97476190D01*
X158816666Y-97500000D01*
X158840476Y-97523809D01*
X159316666Y-97976190D02*
X159030952Y-97976190D01*
X159173809Y-97976190D02*
X159173809Y-97476190D01*
X159126190Y-97547619D01*
X159078571Y-97595238D01*
X159030952Y-97619047D01*
X159626190Y-97476190D02*
X159673809Y-97476190D01*
X159721428Y-97500000D01*
X159745238Y-97523809D01*
X159769047Y-97571428D01*
X159792857Y-97666666D01*
X159792857Y-97785714D01*
X159769047Y-97880952D01*
X159745238Y-97928571D01*
X159721428Y-97952380D01*
X159673809Y-97976190D01*
X159626190Y-97976190D01*
X159578571Y-97952380D01*
X159554761Y-97928571D01*
X159530952Y-97880952D01*
X159507142Y-97785714D01*
X159507142Y-97666666D01*
X159530952Y-97571428D01*
X159554761Y-97523809D01*
X159578571Y-97500000D01*
X159626190Y-97476190D01*
X159959523Y-97476190D02*
X160269047Y-97476190D01*
X160102380Y-97666666D01*
X160173809Y-97666666D01*
X160221428Y-97690476D01*
X160245238Y-97714285D01*
X160269047Y-97761904D01*
X160269047Y-97880952D01*
X160245238Y-97928571D01*
X160221428Y-97952380D01*
X160173809Y-97976190D01*
X160030952Y-97976190D01*
X159983333Y-97952380D01*
X159959523Y-97928571D01*
X156440476Y-104228571D02*
X156416666Y-104252380D01*
X156345238Y-104276190D01*
X156297619Y-104276190D01*
X156226190Y-104252380D01*
X156178571Y-104204761D01*
X156154761Y-104157142D01*
X156130952Y-104061904D01*
X156130952Y-103990476D01*
X156154761Y-103895238D01*
X156178571Y-103847619D01*
X156226190Y-103800000D01*
X156297619Y-103776190D01*
X156345238Y-103776190D01*
X156416666Y-103800000D01*
X156440476Y-103823809D01*
X156916666Y-104276190D02*
X156630952Y-104276190D01*
X156773809Y-104276190D02*
X156773809Y-103776190D01*
X156726190Y-103847619D01*
X156678571Y-103895238D01*
X156630952Y-103919047D01*
X157226190Y-103776190D02*
X157273809Y-103776190D01*
X157321428Y-103800000D01*
X157345238Y-103823809D01*
X157369047Y-103871428D01*
X157392857Y-103966666D01*
X157392857Y-104085714D01*
X157369047Y-104180952D01*
X157345238Y-104228571D01*
X157321428Y-104252380D01*
X157273809Y-104276190D01*
X157226190Y-104276190D01*
X157178571Y-104252380D01*
X157154761Y-104228571D01*
X157130952Y-104180952D01*
X157107142Y-104085714D01*
X157107142Y-103966666D01*
X157130952Y-103871428D01*
X157154761Y-103823809D01*
X157178571Y-103800000D01*
X157226190Y-103776190D01*
X157869047Y-104276190D02*
X157583333Y-104276190D01*
X157726190Y-104276190D02*
X157726190Y-103776190D01*
X157678571Y-103847619D01*
X157630952Y-103895238D01*
X157583333Y-103919047D01*
X153840476Y-101078571D02*
X153816666Y-101102380D01*
X153745238Y-101126190D01*
X153697619Y-101126190D01*
X153626190Y-101102380D01*
X153578571Y-101054761D01*
X153554761Y-101007142D01*
X153530952Y-100911904D01*
X153530952Y-100840476D01*
X153554761Y-100745238D01*
X153578571Y-100697619D01*
X153626190Y-100650000D01*
X153697619Y-100626190D01*
X153745238Y-100626190D01*
X153816666Y-100650000D01*
X153840476Y-100673809D01*
X154316666Y-101126190D02*
X154030952Y-101126190D01*
X154173809Y-101126190D02*
X154173809Y-100626190D01*
X154126190Y-100697619D01*
X154078571Y-100745238D01*
X154030952Y-100769047D01*
X154626190Y-100626190D02*
X154673809Y-100626190D01*
X154721428Y-100650000D01*
X154745238Y-100673809D01*
X154769047Y-100721428D01*
X154792857Y-100816666D01*
X154792857Y-100935714D01*
X154769047Y-101030952D01*
X154745238Y-101078571D01*
X154721428Y-101102380D01*
X154673809Y-101126190D01*
X154626190Y-101126190D01*
X154578571Y-101102380D01*
X154554761Y-101078571D01*
X154530952Y-101030952D01*
X154507142Y-100935714D01*
X154507142Y-100816666D01*
X154530952Y-100721428D01*
X154554761Y-100673809D01*
X154578571Y-100650000D01*
X154626190Y-100626190D01*
X155102380Y-100626190D02*
X155150000Y-100626190D01*
X155197619Y-100650000D01*
X155221428Y-100673809D01*
X155245238Y-100721428D01*
X155269047Y-100816666D01*
X155269047Y-100935714D01*
X155245238Y-101030952D01*
X155221428Y-101078571D01*
X155197619Y-101102380D01*
X155150000Y-101126190D01*
X155102380Y-101126190D01*
X155054761Y-101102380D01*
X155030952Y-101078571D01*
X155007142Y-101030952D01*
X154983333Y-100935714D01*
X154983333Y-100816666D01*
X155007142Y-100721428D01*
X155030952Y-100673809D01*
X155054761Y-100650000D01*
X155102380Y-100626190D01*
X144028571Y-96128571D02*
X144004761Y-96152380D01*
X143933333Y-96176190D01*
X143885714Y-96176190D01*
X143814285Y-96152380D01*
X143766666Y-96104761D01*
X143742857Y-96057142D01*
X143719047Y-95961904D01*
X143719047Y-95890476D01*
X143742857Y-95795238D01*
X143766666Y-95747619D01*
X143814285Y-95700000D01*
X143885714Y-95676190D01*
X143933333Y-95676190D01*
X144004761Y-95700000D01*
X144028571Y-95723809D01*
X144266666Y-96176190D02*
X144361904Y-96176190D01*
X144409523Y-96152380D01*
X144433333Y-96128571D01*
X144480952Y-96057142D01*
X144504761Y-95961904D01*
X144504761Y-95771428D01*
X144480952Y-95723809D01*
X144457142Y-95700000D01*
X144409523Y-95676190D01*
X144314285Y-95676190D01*
X144266666Y-95700000D01*
X144242857Y-95723809D01*
X144219047Y-95771428D01*
X144219047Y-95890476D01*
X144242857Y-95938095D01*
X144266666Y-95961904D01*
X144314285Y-95985714D01*
X144409523Y-95985714D01*
X144457142Y-95961904D01*
X144480952Y-95938095D01*
X144504761Y-95890476D01*
X144671428Y-95676190D02*
X145004761Y-95676190D01*
X144790476Y-96176190D01*
X144028571Y-95478571D02*
X144004761Y-95502380D01*
X143933333Y-95526190D01*
X143885714Y-95526190D01*
X143814285Y-95502380D01*
X143766666Y-95454761D01*
X143742857Y-95407142D01*
X143719047Y-95311904D01*
X143719047Y-95240476D01*
X143742857Y-95145238D01*
X143766666Y-95097619D01*
X143814285Y-95050000D01*
X143885714Y-95026190D01*
X143933333Y-95026190D01*
X144004761Y-95050000D01*
X144028571Y-95073809D01*
X144266666Y-95526190D02*
X144361904Y-95526190D01*
X144409523Y-95502380D01*
X144433333Y-95478571D01*
X144480952Y-95407142D01*
X144504761Y-95311904D01*
X144504761Y-95121428D01*
X144480952Y-95073809D01*
X144457142Y-95050000D01*
X144409523Y-95026190D01*
X144314285Y-95026190D01*
X144266666Y-95050000D01*
X144242857Y-95073809D01*
X144219047Y-95121428D01*
X144219047Y-95240476D01*
X144242857Y-95288095D01*
X144266666Y-95311904D01*
X144314285Y-95335714D01*
X144409523Y-95335714D01*
X144457142Y-95311904D01*
X144480952Y-95288095D01*
X144504761Y-95240476D01*
X144957142Y-95026190D02*
X144719047Y-95026190D01*
X144695238Y-95264285D01*
X144719047Y-95240476D01*
X144766666Y-95216666D01*
X144885714Y-95216666D01*
X144933333Y-95240476D01*
X144957142Y-95264285D01*
X144980952Y-95311904D01*
X144980952Y-95430952D01*
X144957142Y-95478571D01*
X144933333Y-95502380D01*
X144885714Y-95526190D01*
X144766666Y-95526190D01*
X144719047Y-95502380D01*
X144695238Y-95478571D01*
X161378571Y-96878571D02*
X161354761Y-96902380D01*
X161283333Y-96926190D01*
X161235714Y-96926190D01*
X161164285Y-96902380D01*
X161116666Y-96854761D01*
X161092857Y-96807142D01*
X161069047Y-96711904D01*
X161069047Y-96640476D01*
X161092857Y-96545238D01*
X161116666Y-96497619D01*
X161164285Y-96450000D01*
X161235714Y-96426190D01*
X161283333Y-96426190D01*
X161354761Y-96450000D01*
X161378571Y-96473809D01*
X161616666Y-96926190D02*
X161711904Y-96926190D01*
X161759523Y-96902380D01*
X161783333Y-96878571D01*
X161830952Y-96807142D01*
X161854761Y-96711904D01*
X161854761Y-96521428D01*
X161830952Y-96473809D01*
X161807142Y-96450000D01*
X161759523Y-96426190D01*
X161664285Y-96426190D01*
X161616666Y-96450000D01*
X161592857Y-96473809D01*
X161569047Y-96521428D01*
X161569047Y-96640476D01*
X161592857Y-96688095D01*
X161616666Y-96711904D01*
X161664285Y-96735714D01*
X161759523Y-96735714D01*
X161807142Y-96711904D01*
X161830952Y-96688095D01*
X161854761Y-96640476D01*
X162330952Y-96926190D02*
X162045238Y-96926190D01*
X162188095Y-96926190D02*
X162188095Y-96426190D01*
X162140476Y-96497619D01*
X162092857Y-96545238D01*
X162045238Y-96569047D01*
X144026190Y-99921428D02*
X143788095Y-100088095D01*
X144026190Y-100207142D02*
X143526190Y-100207142D01*
X143526190Y-100016666D01*
X143550000Y-99969047D01*
X143573809Y-99945238D01*
X143621428Y-99921428D01*
X143692857Y-99921428D01*
X143740476Y-99945238D01*
X143764285Y-99969047D01*
X143788095Y-100016666D01*
X143788095Y-100207142D01*
X143573809Y-99730952D02*
X143550000Y-99707142D01*
X143526190Y-99659523D01*
X143526190Y-99540476D01*
X143550000Y-99492857D01*
X143573809Y-99469047D01*
X143621428Y-99445238D01*
X143669047Y-99445238D01*
X143740476Y-99469047D01*
X144026190Y-99754761D01*
X144026190Y-99445238D01*
X143573809Y-99254761D02*
X143550000Y-99230952D01*
X143526190Y-99183333D01*
X143526190Y-99064285D01*
X143550000Y-99016666D01*
X143573809Y-98992857D01*
X143621428Y-98969047D01*
X143669047Y-98969047D01*
X143740476Y-98992857D01*
X144026190Y-99278571D01*
X144026190Y-98969047D01*
X145026190Y-99921428D02*
X144788095Y-100088095D01*
X145026190Y-100207142D02*
X144526190Y-100207142D01*
X144526190Y-100016666D01*
X144550000Y-99969047D01*
X144573809Y-99945238D01*
X144621428Y-99921428D01*
X144692857Y-99921428D01*
X144740476Y-99945238D01*
X144764285Y-99969047D01*
X144788095Y-100016666D01*
X144788095Y-100207142D01*
X144573809Y-99730952D02*
X144550000Y-99707142D01*
X144526190Y-99659523D01*
X144526190Y-99540476D01*
X144550000Y-99492857D01*
X144573809Y-99469047D01*
X144621428Y-99445238D01*
X144669047Y-99445238D01*
X144740476Y-99469047D01*
X145026190Y-99754761D01*
X145026190Y-99445238D01*
X144526190Y-99135714D02*
X144526190Y-99088095D01*
X144550000Y-99040476D01*
X144573809Y-99016666D01*
X144621428Y-98992857D01*
X144716666Y-98969047D01*
X144835714Y-98969047D01*
X144930952Y-98992857D01*
X144978571Y-99016666D01*
X145002380Y-99040476D01*
X145026190Y-99088095D01*
X145026190Y-99135714D01*
X145002380Y-99183333D01*
X144978571Y-99207142D01*
X144930952Y-99230952D01*
X144835714Y-99254761D01*
X144716666Y-99254761D01*
X144621428Y-99230952D01*
X144573809Y-99207142D01*
X144550000Y-99183333D01*
X144526190Y-99135714D01*
X142978571Y-105126190D02*
X142811904Y-104888095D01*
X142692857Y-105126190D02*
X142692857Y-104626190D01*
X142883333Y-104626190D01*
X142930952Y-104650000D01*
X142954761Y-104673809D01*
X142978571Y-104721428D01*
X142978571Y-104792857D01*
X142954761Y-104840476D01*
X142930952Y-104864285D01*
X142883333Y-104888095D01*
X142692857Y-104888095D01*
X143454761Y-105126190D02*
X143169047Y-105126190D01*
X143311904Y-105126190D02*
X143311904Y-104626190D01*
X143264285Y-104697619D01*
X143216666Y-104745238D01*
X143169047Y-104769047D01*
X143740476Y-104840476D02*
X143692857Y-104816666D01*
X143669047Y-104792857D01*
X143645238Y-104745238D01*
X143645238Y-104721428D01*
X143669047Y-104673809D01*
X143692857Y-104650000D01*
X143740476Y-104626190D01*
X143835714Y-104626190D01*
X143883333Y-104650000D01*
X143907142Y-104673809D01*
X143930952Y-104721428D01*
X143930952Y-104745238D01*
X143907142Y-104792857D01*
X143883333Y-104816666D01*
X143835714Y-104840476D01*
X143740476Y-104840476D01*
X143692857Y-104864285D01*
X143669047Y-104888095D01*
X143645238Y-104935714D01*
X143645238Y-105030952D01*
X143669047Y-105078571D01*
X143692857Y-105102380D01*
X143740476Y-105126190D01*
X143835714Y-105126190D01*
X143883333Y-105102380D01*
X143907142Y-105078571D01*
X143930952Y-105030952D01*
X143930952Y-104935714D01*
X143907142Y-104888095D01*
X143883333Y-104864285D01*
X143835714Y-104840476D01*
X142383333Y-93226190D02*
X142383333Y-93583333D01*
X142359523Y-93654761D01*
X142311904Y-93702380D01*
X142240476Y-93726190D01*
X142192857Y-93726190D01*
X142859523Y-93226190D02*
X142621428Y-93226190D01*
X142597619Y-93464285D01*
X142621428Y-93440476D01*
X142669047Y-93416666D01*
X142788095Y-93416666D01*
X142835714Y-93440476D01*
X142859523Y-93464285D01*
X142883333Y-93511904D01*
X142883333Y-93630952D01*
X142859523Y-93678571D01*
X142835714Y-93702380D01*
X142788095Y-93726190D01*
X142669047Y-93726190D01*
X142621428Y-93702380D01*
X142597619Y-93678571D01*
X189819047Y-103726190D02*
X189819047Y-104130952D01*
X189842857Y-104178571D01*
X189866666Y-104202380D01*
X189914285Y-104226190D01*
X190009523Y-104226190D01*
X190057142Y-104202380D01*
X190080952Y-104178571D01*
X190104761Y-104130952D01*
X190104761Y-103726190D01*
X190319047Y-103773809D02*
X190342857Y-103750000D01*
X190390476Y-103726190D01*
X190509523Y-103726190D01*
X190557142Y-103750000D01*
X190580952Y-103773809D01*
X190604761Y-103821428D01*
X190604761Y-103869047D01*
X190580952Y-103940476D01*
X190295238Y-104226190D01*
X190604761Y-104226190D01*
X173933333Y-93626190D02*
X173933333Y-93983333D01*
X173909523Y-94054761D01*
X173861904Y-94102380D01*
X173790476Y-94126190D01*
X173742857Y-94126190D01*
X174123809Y-93626190D02*
X174457142Y-93626190D01*
X174242857Y-94126190D01*
X190428571Y-110826190D02*
X190261904Y-110588095D01*
X190142857Y-110826190D02*
X190142857Y-110326190D01*
X190333333Y-110326190D01*
X190380952Y-110350000D01*
X190404761Y-110373809D01*
X190428571Y-110421428D01*
X190428571Y-110492857D01*
X190404761Y-110540476D01*
X190380952Y-110564285D01*
X190333333Y-110588095D01*
X190142857Y-110588095D01*
X190904761Y-110826190D02*
X190619047Y-110826190D01*
X190761904Y-110826190D02*
X190761904Y-110326190D01*
X190714285Y-110397619D01*
X190666666Y-110445238D01*
X190619047Y-110469047D01*
X191333333Y-110492857D02*
X191333333Y-110826190D01*
X191214285Y-110302380D02*
X191095238Y-110659523D01*
X191404761Y-110659523D01*
X193528571Y-105128571D02*
X193504761Y-105152380D01*
X193433333Y-105176190D01*
X193385714Y-105176190D01*
X193314285Y-105152380D01*
X193266666Y-105104761D01*
X193242857Y-105057142D01*
X193219047Y-104961904D01*
X193219047Y-104890476D01*
X193242857Y-104795238D01*
X193266666Y-104747619D01*
X193314285Y-104700000D01*
X193385714Y-104676190D01*
X193433333Y-104676190D01*
X193504761Y-104700000D01*
X193528571Y-104723809D01*
X193695238Y-104676190D02*
X194028571Y-104676190D01*
X193814285Y-105176190D01*
X194242857Y-105176190D02*
X194338095Y-105176190D01*
X194385714Y-105152380D01*
X194409523Y-105128571D01*
X194457142Y-105057142D01*
X194480952Y-104961904D01*
X194480952Y-104771428D01*
X194457142Y-104723809D01*
X194433333Y-104700000D01*
X194385714Y-104676190D01*
X194290476Y-104676190D01*
X194242857Y-104700000D01*
X194219047Y-104723809D01*
X194195238Y-104771428D01*
X194195238Y-104890476D01*
X194219047Y-104938095D01*
X194242857Y-104961904D01*
X194290476Y-104985714D01*
X194385714Y-104985714D01*
X194433333Y-104961904D01*
X194457142Y-104938095D01*
X194480952Y-104890476D01*
X188978571Y-115128571D02*
X188954761Y-115152380D01*
X188883333Y-115176190D01*
X188835714Y-115176190D01*
X188764285Y-115152380D01*
X188716666Y-115104761D01*
X188692857Y-115057142D01*
X188669047Y-114961904D01*
X188669047Y-114890476D01*
X188692857Y-114795238D01*
X188716666Y-114747619D01*
X188764285Y-114700000D01*
X188835714Y-114676190D01*
X188883333Y-114676190D01*
X188954761Y-114700000D01*
X188978571Y-114723809D01*
X189145238Y-114676190D02*
X189478571Y-114676190D01*
X189264285Y-115176190D01*
X189740476Y-114890476D02*
X189692857Y-114866666D01*
X189669047Y-114842857D01*
X189645238Y-114795238D01*
X189645238Y-114771428D01*
X189669047Y-114723809D01*
X189692857Y-114700000D01*
X189740476Y-114676190D01*
X189835714Y-114676190D01*
X189883333Y-114700000D01*
X189907142Y-114723809D01*
X189930952Y-114771428D01*
X189930952Y-114795238D01*
X189907142Y-114842857D01*
X189883333Y-114866666D01*
X189835714Y-114890476D01*
X189740476Y-114890476D01*
X189692857Y-114914285D01*
X189669047Y-114938095D01*
X189645238Y-114985714D01*
X189645238Y-115080952D01*
X189669047Y-115128571D01*
X189692857Y-115152380D01*
X189740476Y-115176190D01*
X189835714Y-115176190D01*
X189883333Y-115152380D01*
X189907142Y-115128571D01*
X189930952Y-115080952D01*
X189930952Y-114985714D01*
X189907142Y-114938095D01*
X189883333Y-114914285D01*
X189835714Y-114890476D01*
X193528571Y-109778571D02*
X193504761Y-109802380D01*
X193433333Y-109826190D01*
X193385714Y-109826190D01*
X193314285Y-109802380D01*
X193266666Y-109754761D01*
X193242857Y-109707142D01*
X193219047Y-109611904D01*
X193219047Y-109540476D01*
X193242857Y-109445238D01*
X193266666Y-109397619D01*
X193314285Y-109350000D01*
X193385714Y-109326190D01*
X193433333Y-109326190D01*
X193504761Y-109350000D01*
X193528571Y-109373809D01*
X193695238Y-109326190D02*
X194028571Y-109326190D01*
X193814285Y-109826190D01*
X194171428Y-109326190D02*
X194504761Y-109326190D01*
X194290476Y-109826190D01*
X193528571Y-108053571D02*
X193504761Y-108077380D01*
X193433333Y-108101190D01*
X193385714Y-108101190D01*
X193314285Y-108077380D01*
X193266666Y-108029761D01*
X193242857Y-107982142D01*
X193219047Y-107886904D01*
X193219047Y-107815476D01*
X193242857Y-107720238D01*
X193266666Y-107672619D01*
X193314285Y-107625000D01*
X193385714Y-107601190D01*
X193433333Y-107601190D01*
X193504761Y-107625000D01*
X193528571Y-107648809D01*
X193695238Y-107601190D02*
X194028571Y-107601190D01*
X193814285Y-108101190D01*
X194480952Y-108101190D02*
X194195238Y-108101190D01*
X194338095Y-108101190D02*
X194338095Y-107601190D01*
X194290476Y-107672619D01*
X194242857Y-107720238D01*
X194195238Y-107744047D01*
X158411904Y-114663095D02*
X158411904Y-114901190D01*
X158245238Y-114401190D02*
X158411904Y-114663095D01*
X158578571Y-114401190D01*
X159007142Y-114901190D02*
X158721428Y-114901190D01*
X158864285Y-114901190D02*
X158864285Y-114401190D01*
X158816666Y-114472619D01*
X158769047Y-114520238D01*
X158721428Y-114544047D01*
X154576190Y-114221428D02*
X154338095Y-114388095D01*
X154576190Y-114507142D02*
X154076190Y-114507142D01*
X154076190Y-114316666D01*
X154100000Y-114269047D01*
X154123809Y-114245238D01*
X154171428Y-114221428D01*
X154242857Y-114221428D01*
X154290476Y-114245238D01*
X154314285Y-114269047D01*
X154338095Y-114316666D01*
X154338095Y-114507142D01*
X154576190Y-113745238D02*
X154576190Y-114030952D01*
X154576190Y-113888095D02*
X154076190Y-113888095D01*
X154147619Y-113935714D01*
X154195238Y-113983333D01*
X154219047Y-114030952D01*
X154076190Y-113578571D02*
X154076190Y-113269047D01*
X154266666Y-113435714D01*
X154266666Y-113364285D01*
X154290476Y-113316666D01*
X154314285Y-113292857D01*
X154361904Y-113269047D01*
X154480952Y-113269047D01*
X154528571Y-113292857D01*
X154552380Y-113316666D01*
X154576190Y-113364285D01*
X154576190Y-113507142D01*
X154552380Y-113554761D01*
X154528571Y-113578571D01*
X146576190Y-104971428D02*
X146338095Y-105138095D01*
X146576190Y-105257142D02*
X146076190Y-105257142D01*
X146076190Y-105066666D01*
X146100000Y-105019047D01*
X146123809Y-104995238D01*
X146171428Y-104971428D01*
X146242857Y-104971428D01*
X146290476Y-104995238D01*
X146314285Y-105019047D01*
X146338095Y-105066666D01*
X146338095Y-105257142D01*
X146576190Y-104495238D02*
X146576190Y-104780952D01*
X146576190Y-104638095D02*
X146076190Y-104638095D01*
X146147619Y-104685714D01*
X146195238Y-104733333D01*
X146219047Y-104780952D01*
X146123809Y-104304761D02*
X146100000Y-104280952D01*
X146076190Y-104233333D01*
X146076190Y-104114285D01*
X146100000Y-104066666D01*
X146123809Y-104042857D01*
X146171428Y-104019047D01*
X146219047Y-104019047D01*
X146290476Y-104042857D01*
X146576190Y-104328571D01*
X146576190Y-104019047D01*
X148128571Y-113726190D02*
X147961904Y-113488095D01*
X147842857Y-113726190D02*
X147842857Y-113226190D01*
X148033333Y-113226190D01*
X148080952Y-113250000D01*
X148104761Y-113273809D01*
X148128571Y-113321428D01*
X148128571Y-113392857D01*
X148104761Y-113440476D01*
X148080952Y-113464285D01*
X148033333Y-113488095D01*
X147842857Y-113488095D01*
X148604761Y-113726190D02*
X148319047Y-113726190D01*
X148461904Y-113726190D02*
X148461904Y-113226190D01*
X148414285Y-113297619D01*
X148366666Y-113345238D01*
X148319047Y-113369047D01*
X149080952Y-113726190D02*
X148795238Y-113726190D01*
X148938095Y-113726190D02*
X148938095Y-113226190D01*
X148890476Y-113297619D01*
X148842857Y-113345238D01*
X148795238Y-113369047D01*
X149416666Y-104626190D02*
X149178571Y-104626190D01*
X149178571Y-104126190D01*
X149797619Y-104126190D02*
X149702380Y-104126190D01*
X149654761Y-104150000D01*
X149630952Y-104173809D01*
X149583333Y-104245238D01*
X149559523Y-104340476D01*
X149559523Y-104530952D01*
X149583333Y-104578571D01*
X149607142Y-104602380D01*
X149654761Y-104626190D01*
X149750000Y-104626190D01*
X149797619Y-104602380D01*
X149821428Y-104578571D01*
X149845238Y-104530952D01*
X149845238Y-104411904D01*
X149821428Y-104364285D01*
X149797619Y-104340476D01*
X149750000Y-104316666D01*
X149654761Y-104316666D01*
X149607142Y-104340476D01*
X149583333Y-104364285D01*
X149559523Y-104411904D01*
X146676190Y-110595333D02*
X146676190Y-110833428D01*
X146176190Y-110833428D01*
X146176190Y-110190571D02*
X146176190Y-110428666D01*
X146414285Y-110452476D01*
X146390476Y-110428666D01*
X146366666Y-110381047D01*
X146366666Y-110262000D01*
X146390476Y-110214380D01*
X146414285Y-110190571D01*
X146461904Y-110166761D01*
X146580952Y-110166761D01*
X146628571Y-110190571D01*
X146652380Y-110214380D01*
X146676190Y-110262000D01*
X146676190Y-110381047D01*
X146652380Y-110428666D01*
X146628571Y-110452476D01*
X146776190Y-106983333D02*
X146776190Y-107221428D01*
X146276190Y-107221428D01*
X146442857Y-106602380D02*
X146776190Y-106602380D01*
X146252380Y-106721428D02*
X146609523Y-106840476D01*
X146609523Y-106530952D01*
X152816666Y-104626190D02*
X152578571Y-104626190D01*
X152578571Y-104126190D01*
X152935714Y-104126190D02*
X153245238Y-104126190D01*
X153078571Y-104316666D01*
X153150000Y-104316666D01*
X153197619Y-104340476D01*
X153221428Y-104364285D01*
X153245238Y-104411904D01*
X153245238Y-104530952D01*
X153221428Y-104578571D01*
X153197619Y-104602380D01*
X153150000Y-104626190D01*
X153007142Y-104626190D01*
X152959523Y-104602380D01*
X152935714Y-104578571D01*
X155826190Y-107283333D02*
X155826190Y-107521428D01*
X155326190Y-107521428D01*
X155373809Y-107140476D02*
X155350000Y-107116666D01*
X155326190Y-107069047D01*
X155326190Y-106950000D01*
X155350000Y-106902380D01*
X155373809Y-106878571D01*
X155421428Y-106854761D01*
X155469047Y-106854761D01*
X155540476Y-106878571D01*
X155826190Y-107164285D01*
X155826190Y-106854761D01*
X155826190Y-110595333D02*
X155826190Y-110833428D01*
X155326190Y-110833428D01*
X155826190Y-110166761D02*
X155826190Y-110452476D01*
X155826190Y-110309619D02*
X155326190Y-110309619D01*
X155397619Y-110357238D01*
X155445238Y-110404857D01*
X155469047Y-110452476D01*
X155603571Y-116296428D02*
X155627380Y-116320238D01*
X155651190Y-116391666D01*
X155651190Y-116439285D01*
X155627380Y-116510714D01*
X155579761Y-116558333D01*
X155532142Y-116582142D01*
X155436904Y-116605952D01*
X155365476Y-116605952D01*
X155270238Y-116582142D01*
X155222619Y-116558333D01*
X155175000Y-116510714D01*
X155151190Y-116439285D01*
X155151190Y-116391666D01*
X155175000Y-116320238D01*
X155198809Y-116296428D01*
X155151190Y-116129761D02*
X155151190Y-115796428D01*
X155651190Y-116010714D01*
X155151190Y-115510714D02*
X155151190Y-115463095D01*
X155175000Y-115415476D01*
X155198809Y-115391666D01*
X155246428Y-115367857D01*
X155341666Y-115344047D01*
X155460714Y-115344047D01*
X155555952Y-115367857D01*
X155603571Y-115391666D01*
X155627380Y-115415476D01*
X155651190Y-115463095D01*
X155651190Y-115510714D01*
X155627380Y-115558333D01*
X155603571Y-115582142D01*
X155555952Y-115605952D01*
X155460714Y-115629761D01*
X155341666Y-115629761D01*
X155246428Y-115605952D01*
X155198809Y-115582142D01*
X155175000Y-115558333D01*
X155151190Y-115510714D01*
X161978571Y-115771428D02*
X162002380Y-115795238D01*
X162026190Y-115866666D01*
X162026190Y-115914285D01*
X162002380Y-115985714D01*
X161954761Y-116033333D01*
X161907142Y-116057142D01*
X161811904Y-116080952D01*
X161740476Y-116080952D01*
X161645238Y-116057142D01*
X161597619Y-116033333D01*
X161550000Y-115985714D01*
X161526190Y-115914285D01*
X161526190Y-115866666D01*
X161550000Y-115795238D01*
X161573809Y-115771428D01*
X161526190Y-115342857D02*
X161526190Y-115438095D01*
X161550000Y-115485714D01*
X161573809Y-115509523D01*
X161645238Y-115557142D01*
X161740476Y-115580952D01*
X161930952Y-115580952D01*
X161978571Y-115557142D01*
X162002380Y-115533333D01*
X162026190Y-115485714D01*
X162026190Y-115390476D01*
X162002380Y-115342857D01*
X161978571Y-115319047D01*
X161930952Y-115295238D01*
X161811904Y-115295238D01*
X161764285Y-115319047D01*
X161740476Y-115342857D01*
X161716666Y-115390476D01*
X161716666Y-115485714D01*
X161740476Y-115533333D01*
X161764285Y-115557142D01*
X161811904Y-115580952D01*
X162026190Y-115057142D02*
X162026190Y-114961904D01*
X162002380Y-114914285D01*
X161978571Y-114890476D01*
X161907142Y-114842857D01*
X161811904Y-114819047D01*
X161621428Y-114819047D01*
X161573809Y-114842857D01*
X161550000Y-114866666D01*
X161526190Y-114914285D01*
X161526190Y-115009523D01*
X161550000Y-115057142D01*
X161573809Y-115080952D01*
X161621428Y-115104761D01*
X161740476Y-115104761D01*
X161788095Y-115080952D01*
X161811904Y-115057142D01*
X161835714Y-115009523D01*
X161835714Y-114914285D01*
X161811904Y-114866666D01*
X161788095Y-114842857D01*
X161740476Y-114819047D01*
X181833333Y-115601190D02*
X181833333Y-115958333D01*
X181809523Y-116029761D01*
X181761904Y-116077380D01*
X181690476Y-116101190D01*
X181642857Y-116101190D01*
X182285714Y-115601190D02*
X182190476Y-115601190D01*
X182142857Y-115625000D01*
X182119047Y-115648809D01*
X182071428Y-115720238D01*
X182047619Y-115815476D01*
X182047619Y-116005952D01*
X182071428Y-116053571D01*
X182095238Y-116077380D01*
X182142857Y-116101190D01*
X182238095Y-116101190D01*
X182285714Y-116077380D01*
X182309523Y-116053571D01*
X182333333Y-116005952D01*
X182333333Y-115886904D01*
X182309523Y-115839285D01*
X182285714Y-115815476D01*
X182238095Y-115791666D01*
X182142857Y-115791666D01*
X182095238Y-115815476D01*
X182071428Y-115839285D01*
X182047619Y-115886904D01*
D10*
X143066666Y-115283333D02*
X143166666Y-115316666D01*
X143333333Y-115316666D01*
X143400000Y-115283333D01*
X143433333Y-115250000D01*
X143466666Y-115183333D01*
X143466666Y-115116666D01*
X143433333Y-115050000D01*
X143400000Y-115016666D01*
X143333333Y-114983333D01*
X143200000Y-114950000D01*
X143133333Y-114916666D01*
X143100000Y-114883333D01*
X143066666Y-114816666D01*
X143066666Y-114750000D01*
X143100000Y-114683333D01*
X143133333Y-114650000D01*
X143200000Y-114616666D01*
X143366666Y-114616666D01*
X143466666Y-114650000D01*
X143700000Y-114616666D02*
X143866666Y-115316666D01*
X144000000Y-114816666D01*
X144133333Y-115316666D01*
X144300000Y-114616666D01*
X144533333Y-114683333D02*
X144566666Y-114650000D01*
X144633333Y-114616666D01*
X144800000Y-114616666D01*
X144866666Y-114650000D01*
X144900000Y-114683333D01*
X144933333Y-114750000D01*
X144933333Y-114816666D01*
X144900000Y-114916666D01*
X144500000Y-115316666D01*
X144933333Y-115316666D01*
X147866666Y-115283333D02*
X147966666Y-115316666D01*
X148133333Y-115316666D01*
X148200000Y-115283333D01*
X148233333Y-115250000D01*
X148266666Y-115183333D01*
X148266666Y-115116666D01*
X148233333Y-115050000D01*
X148200000Y-115016666D01*
X148133333Y-114983333D01*
X148000000Y-114950000D01*
X147933333Y-114916666D01*
X147900000Y-114883333D01*
X147866666Y-114816666D01*
X147866666Y-114750000D01*
X147900000Y-114683333D01*
X147933333Y-114650000D01*
X148000000Y-114616666D01*
X148166666Y-114616666D01*
X148266666Y-114650000D01*
X148500000Y-114616666D02*
X148666666Y-115316666D01*
X148800000Y-114816666D01*
X148933333Y-115316666D01*
X149100000Y-114616666D01*
X149733333Y-115316666D02*
X149333333Y-115316666D01*
X149533333Y-115316666D02*
X149533333Y-114616666D01*
X149466666Y-114716666D01*
X149400000Y-114783333D01*
X149333333Y-114816666D01*
M02*
